%TF.GenerationSoftware,KiCad,Pcbnew,(6.0.7-1)-1*%
%TF.CreationDate,2022-08-16T19:50:39+02:00*%
%TF.ProjectId,switch-plate,73776974-6368-42d7-906c-6174652e6b69,rev?*%
%TF.SameCoordinates,Original*%
%TF.FileFunction,Drillmap*%
%TF.FilePolarity,Positive*%
%FSLAX45Y45*%
G04 Gerber Fmt 4.5, Leading zero omitted, Abs format (unit mm)*
G04 Created by KiCad (PCBNEW (6.0.7-1)-1) date 2022-08-16 19:50:39*
%MOMM*%
%LPD*%
G01*
G04 APERTURE LIST*
%ADD10C,0.100000*%
%ADD11C,0.200000*%
%ADD12C,0.170000*%
G04 APERTURE END LIST*
D10*
X18282110Y-9397703D02*
X19195309Y-9135848D01*
X9770366Y-10382641D02*
X11743720Y-11100883D01*
X775000Y1350000D02*
G75*
G03*
X475000Y1050000I0J-300000D01*
G01*
X775000Y1350000D02*
X29550000Y1350000D01*
X29850000Y1050000D02*
G75*
G03*
X29550000Y1350000I-300000J0D01*
G01*
X29550000Y-8950000D02*
G75*
G03*
X29850000Y-8650000I0J300000D01*
G01*
X475000Y1050000D02*
X475000Y-2550000D01*
X17779634Y-10382641D02*
X15806280Y-11100883D01*
X9030390Y-9397703D02*
X9426049Y-9513173D01*
X11743721Y-11100881D02*
G75*
G03*
X12128234Y-10921581I102609J281901D01*
G01*
X9591059Y-9998125D02*
G75*
G03*
X9770366Y-10382641I281911J-102605D01*
G01*
X20175000Y-8950000D02*
G75*
G03*
X20092309Y-8961622I0J-300000D01*
G01*
X475000Y-8650000D02*
G75*
G03*
X775000Y-8950000I300000J0D01*
G01*
X19195309Y-9135848D02*
X20092309Y-8961622D01*
X18106851Y-9466193D02*
G75*
G03*
X17907633Y-9857173I82689J-288377D01*
G01*
X775000Y-8950000D02*
X7325000Y-8950000D01*
X13025778Y-9032741D02*
X14524222Y-9032741D01*
X475000Y-2550000D02*
X475000Y-8650000D01*
X17779633Y-10382636D02*
G75*
G03*
X17958936Y-9998127I-102603J281906D01*
G01*
X9591064Y-9998127D02*
X9625266Y-9904158D01*
X13025778Y-9032739D02*
G75*
G03*
X12743870Y-9230135I2J-300002D01*
G01*
X15421766Y-10921581D02*
X14806130Y-9230135D01*
X12128234Y-10921581D02*
X12743870Y-9230135D01*
X9625265Y-9904157D02*
G75*
G03*
X9426049Y-9513173I-281905J102607D01*
G01*
X7407691Y-8961622D02*
X7888891Y-9070384D01*
X18106850Y-9466189D02*
X18282110Y-9397703D01*
X14806128Y-9230135D02*
G75*
G03*
X14524222Y-9032741I-281908J-102605D01*
G01*
X15421764Y-10921582D02*
G75*
G03*
X15806280Y-11100883I281906J102602D01*
G01*
X29850000Y-8650000D02*
X29850000Y1050000D01*
X20175000Y-8950000D02*
X29550000Y-8950000D01*
X7888891Y-9070384D02*
X9030390Y-9397703D01*
X17958936Y-9998127D02*
X17907633Y-9857173D01*
X7407691Y-8961622D02*
G75*
G03*
X7325000Y-8950000I-82691J-288379D01*
G01*
D11*
D12*
X865000Y1035000D02*
X1035000Y865000D01*
X1035000Y1035000D02*
X865000Y865000D01*
X865000Y-2350000D02*
X1035000Y-2520000D01*
X1035000Y-2350000D02*
X865000Y-2520000D01*
X2290000Y-8465000D02*
X2460000Y-8635000D01*
X2460000Y-8465000D02*
X2290000Y-8635000D01*
X5615000Y-925000D02*
X5785000Y-1095000D01*
X5785000Y-925000D02*
X5615000Y-1095000D01*
X6090000Y-8465000D02*
X6260000Y-8635000D01*
X6260000Y-8465000D02*
X6090000Y-8635000D01*
X7040000Y-4725000D02*
X7210000Y-4895000D01*
X7210000Y-4725000D02*
X7040000Y-4895000D01*
X10365000Y1035000D02*
X10535000Y865000D01*
X10535000Y1035000D02*
X10365000Y865000D01*
X13690000Y-8565000D02*
X13860000Y-8735000D01*
X13860000Y-8565000D02*
X13690000Y-8735000D01*
X14640000Y-4725000D02*
X14810000Y-4895000D01*
X14810000Y-4725000D02*
X14640000Y-4895000D01*
X15115000Y-925000D02*
X15285000Y-1095000D01*
X15285000Y-925000D02*
X15115000Y-1095000D01*
X19865000Y1035000D02*
X20035000Y865000D01*
X20035000Y1035000D02*
X19865000Y865000D01*
X22240000Y-4725000D02*
X22410000Y-4895000D01*
X22410000Y-4725000D02*
X22240000Y-4895000D01*
X22715000Y-8465000D02*
X22885000Y-8635000D01*
X22885000Y-8465000D02*
X22715000Y-8635000D01*
X24615000Y-925000D02*
X24785000Y-1095000D01*
X24785000Y-925000D02*
X24615000Y-1095000D01*
X29365000Y1035000D02*
X29535000Y865000D01*
X29535000Y1035000D02*
X29365000Y865000D01*
X29365000Y-4725000D02*
X29535000Y-4895000D01*
X29535000Y-4725000D02*
X29365000Y-4895000D01*
X29365000Y-8465000D02*
X29535000Y-8635000D01*
X29535000Y-8465000D02*
X29365000Y-8635000D01*
D11*
X727619Y-11434453D02*
X727619Y-11234453D01*
X775238Y-11234453D01*
X803809Y-11243977D01*
X822857Y-11263024D01*
X832381Y-11282072D01*
X841905Y-11320167D01*
X841905Y-11348739D01*
X832381Y-11386834D01*
X822857Y-11405881D01*
X803809Y-11424929D01*
X775238Y-11434453D01*
X727619Y-11434453D01*
X927619Y-11434453D02*
X927619Y-11301120D01*
X927619Y-11339215D02*
X937143Y-11320167D01*
X946667Y-11310643D01*
X965714Y-11301120D01*
X984762Y-11301120D01*
X1051429Y-11434453D02*
X1051429Y-11301120D01*
X1051429Y-11234453D02*
X1041905Y-11243977D01*
X1051429Y-11253501D01*
X1060952Y-11243977D01*
X1051429Y-11234453D01*
X1051429Y-11253501D01*
X1175238Y-11434453D02*
X1156190Y-11424929D01*
X1146667Y-11405881D01*
X1146667Y-11234453D01*
X1280000Y-11434453D02*
X1260952Y-11424929D01*
X1251429Y-11405881D01*
X1251429Y-11234453D01*
X1508571Y-11434453D02*
X1508571Y-11234453D01*
X1575238Y-11377310D01*
X1641905Y-11234453D01*
X1641905Y-11434453D01*
X1822857Y-11434453D02*
X1822857Y-11329691D01*
X1813333Y-11310643D01*
X1794286Y-11301120D01*
X1756190Y-11301120D01*
X1737143Y-11310643D01*
X1822857Y-11424929D02*
X1803809Y-11434453D01*
X1756190Y-11434453D01*
X1737143Y-11424929D01*
X1727619Y-11405881D01*
X1727619Y-11386834D01*
X1737143Y-11367786D01*
X1756190Y-11358262D01*
X1803809Y-11358262D01*
X1822857Y-11348739D01*
X1918095Y-11301120D02*
X1918095Y-11501120D01*
X1918095Y-11310643D02*
X1937143Y-11301120D01*
X1975238Y-11301120D01*
X1994286Y-11310643D01*
X2003809Y-11320167D01*
X2013333Y-11339215D01*
X2013333Y-11396358D01*
X2003809Y-11415405D01*
X1994286Y-11424929D01*
X1975238Y-11434453D01*
X1937143Y-11434453D01*
X1918095Y-11424929D01*
X2099048Y-11415405D02*
X2108571Y-11424929D01*
X2099048Y-11434453D01*
X2089524Y-11424929D01*
X2099048Y-11415405D01*
X2099048Y-11434453D01*
X2099048Y-11310643D02*
X2108571Y-11320167D01*
X2099048Y-11329691D01*
X2089524Y-11320167D01*
X2099048Y-11310643D01*
X2099048Y-11329691D01*
D12*
X300000Y-11678977D02*
X470000Y-11848977D01*
X470000Y-11678977D02*
X300000Y-11848977D01*
D11*
X832381Y-11854453D02*
X718095Y-11854453D01*
X775238Y-11854453D02*
X775238Y-11654453D01*
X756190Y-11683024D01*
X737143Y-11702072D01*
X718095Y-11711596D01*
X918095Y-11835405D02*
X927619Y-11844929D01*
X918095Y-11854453D01*
X908571Y-11844929D01*
X918095Y-11835405D01*
X918095Y-11854453D01*
X994286Y-11654453D02*
X1127619Y-11654453D01*
X1041905Y-11854453D01*
X1241905Y-11654453D02*
X1260952Y-11654453D01*
X1280000Y-11663977D01*
X1289524Y-11673501D01*
X1299048Y-11692548D01*
X1308571Y-11730643D01*
X1308571Y-11778262D01*
X1299048Y-11816358D01*
X1289524Y-11835405D01*
X1280000Y-11844929D01*
X1260952Y-11854453D01*
X1241905Y-11854453D01*
X1222857Y-11844929D01*
X1213333Y-11835405D01*
X1203810Y-11816358D01*
X1194286Y-11778262D01*
X1194286Y-11730643D01*
X1203810Y-11692548D01*
X1213333Y-11673501D01*
X1222857Y-11663977D01*
X1241905Y-11654453D01*
X1432381Y-11654453D02*
X1451428Y-11654453D01*
X1470476Y-11663977D01*
X1480000Y-11673501D01*
X1489524Y-11692548D01*
X1499048Y-11730643D01*
X1499048Y-11778262D01*
X1489524Y-11816358D01*
X1480000Y-11835405D01*
X1470476Y-11844929D01*
X1451428Y-11854453D01*
X1432381Y-11854453D01*
X1413333Y-11844929D01*
X1403809Y-11835405D01*
X1394286Y-11816358D01*
X1384762Y-11778262D01*
X1384762Y-11730643D01*
X1394286Y-11692548D01*
X1403809Y-11673501D01*
X1413333Y-11663977D01*
X1432381Y-11654453D01*
X1584762Y-11854453D02*
X1584762Y-11721120D01*
X1584762Y-11740167D02*
X1594286Y-11730643D01*
X1613333Y-11721120D01*
X1641905Y-11721120D01*
X1660952Y-11730643D01*
X1670476Y-11749691D01*
X1670476Y-11854453D01*
X1670476Y-11749691D02*
X1680000Y-11730643D01*
X1699048Y-11721120D01*
X1727619Y-11721120D01*
X1746667Y-11730643D01*
X1756190Y-11749691D01*
X1756190Y-11854453D01*
X1851428Y-11854453D02*
X1851428Y-11721120D01*
X1851428Y-11740167D02*
X1860952Y-11730643D01*
X1880000Y-11721120D01*
X1908571Y-11721120D01*
X1927619Y-11730643D01*
X1937143Y-11749691D01*
X1937143Y-11854453D01*
X1937143Y-11749691D02*
X1946667Y-11730643D01*
X1965714Y-11721120D01*
X1994286Y-11721120D01*
X2013333Y-11730643D01*
X2022857Y-11749691D01*
X2022857Y-11854453D01*
X2413333Y-11644929D02*
X2241905Y-11902072D01*
X2670476Y-11654453D02*
X2689524Y-11654453D01*
X2708571Y-11663977D01*
X2718095Y-11673501D01*
X2727619Y-11692548D01*
X2737143Y-11730643D01*
X2737143Y-11778262D01*
X2727619Y-11816358D01*
X2718095Y-11835405D01*
X2708571Y-11844929D01*
X2689524Y-11854453D01*
X2670476Y-11854453D01*
X2651429Y-11844929D01*
X2641905Y-11835405D01*
X2632381Y-11816358D01*
X2622857Y-11778262D01*
X2622857Y-11730643D01*
X2632381Y-11692548D01*
X2641905Y-11673501D01*
X2651429Y-11663977D01*
X2670476Y-11654453D01*
X2822857Y-11835405D02*
X2832381Y-11844929D01*
X2822857Y-11854453D01*
X2813333Y-11844929D01*
X2822857Y-11835405D01*
X2822857Y-11854453D01*
X2956190Y-11654453D02*
X2975238Y-11654453D01*
X2994286Y-11663977D01*
X3003809Y-11673501D01*
X3013333Y-11692548D01*
X3022857Y-11730643D01*
X3022857Y-11778262D01*
X3013333Y-11816358D01*
X3003809Y-11835405D01*
X2994286Y-11844929D01*
X2975238Y-11854453D01*
X2956190Y-11854453D01*
X2937143Y-11844929D01*
X2927619Y-11835405D01*
X2918095Y-11816358D01*
X2908571Y-11778262D01*
X2908571Y-11730643D01*
X2918095Y-11692548D01*
X2927619Y-11673501D01*
X2937143Y-11663977D01*
X2956190Y-11654453D01*
X3194286Y-11654453D02*
X3156190Y-11654453D01*
X3137143Y-11663977D01*
X3127619Y-11673501D01*
X3108571Y-11702072D01*
X3099048Y-11740167D01*
X3099048Y-11816358D01*
X3108571Y-11835405D01*
X3118095Y-11844929D01*
X3137143Y-11854453D01*
X3175238Y-11854453D01*
X3194286Y-11844929D01*
X3203809Y-11835405D01*
X3213333Y-11816358D01*
X3213333Y-11768739D01*
X3203809Y-11749691D01*
X3194286Y-11740167D01*
X3175238Y-11730643D01*
X3137143Y-11730643D01*
X3118095Y-11740167D01*
X3108571Y-11749691D01*
X3099048Y-11768739D01*
X3384762Y-11654453D02*
X3346667Y-11654453D01*
X3327619Y-11663977D01*
X3318095Y-11673501D01*
X3299048Y-11702072D01*
X3289524Y-11740167D01*
X3289524Y-11816358D01*
X3299048Y-11835405D01*
X3308571Y-11844929D01*
X3327619Y-11854453D01*
X3365714Y-11854453D01*
X3384762Y-11844929D01*
X3394286Y-11835405D01*
X3403809Y-11816358D01*
X3403809Y-11768739D01*
X3394286Y-11749691D01*
X3384762Y-11740167D01*
X3365714Y-11730643D01*
X3327619Y-11730643D01*
X3308571Y-11740167D01*
X3299048Y-11749691D01*
X3289524Y-11768739D01*
X3499048Y-11854453D02*
X3537143Y-11854453D01*
X3556190Y-11844929D01*
X3565714Y-11835405D01*
X3584762Y-11806834D01*
X3594286Y-11768739D01*
X3594286Y-11692548D01*
X3584762Y-11673501D01*
X3575238Y-11663977D01*
X3556190Y-11654453D01*
X3518095Y-11654453D01*
X3499048Y-11663977D01*
X3489524Y-11673501D01*
X3480000Y-11692548D01*
X3480000Y-11740167D01*
X3489524Y-11759215D01*
X3499048Y-11768739D01*
X3518095Y-11778262D01*
X3556190Y-11778262D01*
X3575238Y-11768739D01*
X3584762Y-11759215D01*
X3594286Y-11740167D01*
X3670476Y-11654453D02*
X3670476Y-11692548D01*
X3746667Y-11654453D02*
X3746667Y-11692548D01*
X4041905Y-11930643D02*
X4032381Y-11921120D01*
X4013333Y-11892548D01*
X4003809Y-11873501D01*
X3994286Y-11844929D01*
X3984762Y-11797310D01*
X3984762Y-11759215D01*
X3994286Y-11711596D01*
X4003809Y-11683024D01*
X4013333Y-11663977D01*
X4032381Y-11635405D01*
X4041905Y-11625881D01*
X4222857Y-11854453D02*
X4108571Y-11854453D01*
X4165714Y-11854453D02*
X4165714Y-11654453D01*
X4146667Y-11683024D01*
X4127619Y-11702072D01*
X4108571Y-11711596D01*
X4289524Y-11654453D02*
X4422857Y-11654453D01*
X4337143Y-11854453D01*
X4651429Y-11854453D02*
X4651429Y-11654453D01*
X4737143Y-11854453D02*
X4737143Y-11749691D01*
X4727619Y-11730643D01*
X4708571Y-11721120D01*
X4680000Y-11721120D01*
X4660952Y-11730643D01*
X4651429Y-11740167D01*
X4860952Y-11854453D02*
X4841905Y-11844929D01*
X4832381Y-11835405D01*
X4822857Y-11816358D01*
X4822857Y-11759215D01*
X4832381Y-11740167D01*
X4841905Y-11730643D01*
X4860952Y-11721120D01*
X4889524Y-11721120D01*
X4908571Y-11730643D01*
X4918095Y-11740167D01*
X4927619Y-11759215D01*
X4927619Y-11816358D01*
X4918095Y-11835405D01*
X4908571Y-11844929D01*
X4889524Y-11854453D01*
X4860952Y-11854453D01*
X5041905Y-11854453D02*
X5022857Y-11844929D01*
X5013333Y-11825881D01*
X5013333Y-11654453D01*
X5194286Y-11844929D02*
X5175238Y-11854453D01*
X5137143Y-11854453D01*
X5118095Y-11844929D01*
X5108571Y-11825881D01*
X5108571Y-11749691D01*
X5118095Y-11730643D01*
X5137143Y-11721120D01*
X5175238Y-11721120D01*
X5194286Y-11730643D01*
X5203810Y-11749691D01*
X5203810Y-11768739D01*
X5108571Y-11787786D01*
X5280000Y-11844929D02*
X5299048Y-11854453D01*
X5337143Y-11854453D01*
X5356190Y-11844929D01*
X5365714Y-11825881D01*
X5365714Y-11816358D01*
X5356190Y-11797310D01*
X5337143Y-11787786D01*
X5308571Y-11787786D01*
X5289524Y-11778262D01*
X5280000Y-11759215D01*
X5280000Y-11749691D01*
X5289524Y-11730643D01*
X5308571Y-11721120D01*
X5337143Y-11721120D01*
X5356190Y-11730643D01*
X5432381Y-11930643D02*
X5441905Y-11921120D01*
X5460952Y-11892548D01*
X5470476Y-11873501D01*
X5480000Y-11844929D01*
X5489524Y-11797310D01*
X5489524Y-11759215D01*
X5480000Y-11711596D01*
X5470476Y-11683024D01*
X5460952Y-11663977D01*
X5441905Y-11635405D01*
X5432381Y-11625881D01*
M02*
