M48
; DRILL file {KiCad (6.0.7-1)-1} date Tuesday, August 16, 2022 at 07:54:14 PM
; FORMAT={-:-/ absolute / metric / decimal}
; #@! TF.CreationDate,2022-08-16T19:54:14+02:00
; #@! TF.GenerationSoftware,Kicad,Pcbnew,(6.0.7-1)-1
; #@! TF.FileFunction,Plated,1,2,PTH
FMAT,2
METRIC
; #@! TA.AperFunction,Plated,PTH,ViaDrill
T1C0.400
; #@! TA.AperFunction,Plated,PTH,ComponentDrill
T2C1.016
; #@! TA.AperFunction,Plated,PTH,ComponentDrill
T3C2.500
; #@! TA.AperFunction,Plated,PTH,ComponentDrill
T4C3.730
%
G90
G05
T1
X4.37Y-76.83
X5.33Y-38.12
X6.77Y-73.43
X7.63Y-50.77
X9.95Y-40.95
X9.95Y-42.75
X9.95Y-78.95
X9.95Y-80.75
X10.765Y-52.56
X14.7Y-2.95
X14.7Y-4.75
X14.7Y-59.95
X14.7Y-61.75
X17.35Y-42.75
X17.35Y-80.75
X19.45Y-21.95
X19.45Y-23.75
X22.1Y-4.75
X22.1Y-61.75
X22.59Y-47.69
X23.737Y-45.518
X26.85Y-23.75
X28.95Y-40.95
X28.95Y-42.75
X28.95Y-78.95
X28.95Y-80.75
X30.03Y0.4
X32.78Y-51.9
X33.7Y-2.95
X33.7Y-4.75
X33.95Y-19.19
X36.35Y-42.75
X36.35Y-80.75
X38.45Y-59.95
X38.45Y-61.75
X41.1Y-4.75
X43.2Y-21.95
X43.2Y-23.75
X45.85Y-61.75
X47.95Y-40.95
X47.95Y-42.75
X47.95Y-78.95
X47.95Y-80.75
X50.6Y-23.75
X52.7Y-2.95
X52.7Y-4.75
X53.49Y-52.52
X55.35Y-42.75
X55.35Y-80.75
X57.45Y-59.95
X57.45Y-61.75
X60.1Y-4.75
X62.2Y-21.95
X62.2Y-23.75
X64.85Y-61.75
X66.95Y-40.95
X66.95Y-42.75
X66.95Y-78.95
X66.95Y-80.75
X69.19Y-53.12
X69.6Y-23.75
X71.7Y-2.95
X71.7Y-4.75
X72.4Y-55.21
X74.35Y-42.75
X74.35Y-80.75
X76.45Y-59.95
X76.45Y-61.75
X79.1Y-4.75
X81.2Y-21.95
X81.2Y-23.75
X81.86Y-70.87
X83.29Y-70.38
X83.85Y-61.75
X84.83Y-70.1
X85.95Y-40.95
X85.95Y-42.75
X86.27Y-69.74
X87.56Y-73.53
X88.544Y-84.656
X88.6Y-23.75
X90.14Y-81.36
X90.7Y-2.95
X90.7Y-4.75
X91.38Y-52.63
X93.35Y-42.75
X95.45Y-59.95
X95.45Y-61.75
X96.41Y-86.26
X98.1Y-4.75
X100.2Y-21.95
X100.2Y-23.75
X102.85Y-61.75
X104.95Y-40.95
X104.95Y-42.75
X107.6Y-23.75
X109.7Y-2.95
X109.7Y-4.75
X110.42Y-52.14
X110.56Y-86.19
X112.35Y-42.75
X113.11Y-96.41
X114.45Y-59.95
X114.45Y-61.75
X116.34Y-52.2
X117.1Y-4.75
X119.04Y-90.63
X119.2Y-21.95
X119.2Y-23.75
X120.26Y-68.73
X121.85Y-61.75
X122.39Y-53.59
X123.95Y-40.95
X123.95Y-42.75
X124.73Y-64.21
X125.49Y-60.91
X126.6Y-23.75
X128.7Y-2.95
X128.7Y-4.75
X129.44Y-52.38
X131.35Y-42.75
X131.95Y-80.75
X133.45Y-59.95
X133.45Y-61.75
X133.45Y-78.95
X136.1Y-4.75
X138.2Y-21.95
X138.2Y-23.75
X140.85Y-61.75
X140.85Y-80.75
X142.95Y-40.95
X142.95Y-42.75
X144.322Y-66.358
X145.14Y-53.11
X145.6Y-23.75
X147.7Y-2.95
X147.7Y-4.75
X148.45Y-55.34
X150.35Y-42.75
X152.45Y-59.95
X152.45Y-61.75
X155.1Y-4.75
X157.2Y-21.95
X157.2Y-23.75
X158.25Y-88.53
X159.85Y-61.75
X160.63Y-66.72
X161.95Y-40.95
X161.95Y-42.75
X164.6Y-23.75
X165.61Y-87.03
X166.7Y-2.95
X166.7Y-4.75
X167.04Y-96.17
X167.41Y-52.29
X169.35Y-42.75
X171.45Y-59.95
X171.45Y-61.75
X174.1Y-4.75
X176.2Y-21.95
X176.2Y-23.75
X176.237Y-86.476
X176.25Y-83.18
X178.85Y-61.75
X179.24Y-67.46
X180.95Y-40.95
X180.95Y-42.75
X183.6Y-23.75
X184.1Y-84.17
X185.7Y-2.95
X185.7Y-4.75
X186.42Y-52.31
X188.35Y-42.75
X190.45Y-59.95
X190.45Y-61.75
X193.1Y-4.75
X195.2Y-21.95
X195.2Y-23.75
X195.2Y-78.95
X195.2Y-80.75
X195.43Y-67.16
X197.85Y-61.75
X199.95Y-40.95
X199.95Y-42.75
X202.6Y-23.75
X202.6Y-80.75
X204.7Y-2.95
X204.7Y-4.75
X205.47Y-52.47
X207.35Y-42.75
X209.45Y-59.95
X209.45Y-61.75
X212.1Y-4.75
X214.2Y-21.95
X214.2Y-23.75
X214.2Y-78.95
X214.2Y-80.75
X214.43Y-70.89
X216.85Y-61.75
X218.95Y-40.95
X218.95Y-42.75
X220.81Y-53.17
X221.6Y-23.75
X221.6Y-80.75
X223.7Y-2.95
X223.7Y-4.75
X224.46Y-55.48
X226.35Y-42.75
X228.45Y-59.95
X228.45Y-61.75
X231.1Y-4.75
X233.2Y-21.95
X233.2Y-23.75
X233.2Y-78.95
X233.2Y-80.75
X235.85Y-61.75
X237.95Y-40.95
X237.95Y-42.75
X240.6Y-23.75
X240.6Y-80.75
X242.7Y-2.95
X242.7Y-4.75
X245.35Y-42.75
X245.86Y-52.62
X249.825Y-59.95
X249.825Y-61.75
X250.1Y-4.75
X252.2Y-21.95
X252.2Y-23.75
X252.2Y-78.95
X252.2Y-80.75
X257.225Y-61.75
X259.325Y-40.95
X259.325Y-42.75
X259.6Y-23.75
X259.6Y-80.75
X260.86Y-66.86
X261.7Y-2.95
X261.7Y-4.75
X266.725Y-42.75
X267.19Y-52.56
X269.1Y-4.75
X269.7Y-80.75
X271.2Y-59.95
X271.2Y-61.75
X271.2Y-78.95
X275.95Y-21.95
X275.95Y-23.75
X276.73Y-27.88
X278.6Y-61.75
X278.6Y-80.75
X280.7Y-2.95
X280.7Y-4.75
X280.7Y-40.95
X280.7Y-42.75
X283.35Y-23.75
X285.92Y-52.49
X288.1Y-4.75
X288.1Y-42.75
T2
X-13.997Y-32.44
X-13.997Y-37.52
X-13.997Y-42.6
X-13.997Y-47.68
X-13.997Y-52.76
X-13.997Y-57.84
X-13.997Y-62.92
X-13.997Y-68.0
X-13.997Y-73.08
X-13.997Y-78.16
X-13.75Y-29.9
X-13.743Y-34.98
X-13.743Y-40.06
X-13.743Y-45.14
X-13.743Y-50.22
X-13.743Y-55.3
X-13.743Y-60.38
X-13.743Y-65.46
X-13.743Y-70.54
X-13.743Y-75.62
X1.15Y-29.9
X1.243Y-34.98
X1.243Y-40.06
X1.243Y-45.14
X1.243Y-50.22
X1.243Y-55.3
X1.243Y-60.38
X1.243Y-65.46
X1.243Y-70.54
X1.243Y-75.62
X1.497Y-32.44
X1.497Y-37.52
X1.497Y-42.6
X1.497Y-47.68
X1.497Y-52.76
X1.497Y-57.84
X1.497Y-62.92
X1.497Y-68.0
X1.497Y-73.08
X1.497Y-78.16
T3
X9.5Y9.5
X9.5Y-24.35
X23.75Y-85.5
X57.0Y-10.1
X61.75Y-85.5
X71.25Y-48.1
X104.5Y9.5
X137.75Y-86.5
X147.25Y-48.1
X152.0Y-10.1
X199.5Y9.5
X223.25Y-48.1
X228.0Y-85.5
X247.0Y-10.1
X294.5Y9.5
X294.5Y-48.1
X294.5Y-85.5
T4
X-12.75Y-117.5
X-12.75Y-168.5
X69.75Y-117.5
X69.75Y-168.5
X205.75Y-117.5
X205.75Y-168.5
X294.5Y-117.5
X294.5Y-168.5
T0
M30
