%TF.GenerationSoftware,KiCad,Pcbnew,(6.0.7-1)-1*%
%TF.CreationDate,2022-08-16T19:54:16+02:00*%
%TF.ProjectId,keychron-optical-keyboard,6b657963-6872-46f6-9e2d-6f7074696361,rev?*%
%TF.SameCoordinates,Original*%
%TF.FileFunction,Drillmap*%
%TF.FilePolarity,Positive*%
%FSLAX45Y45*%
G04 Gerber Fmt 4.5, Leading zero omitted, Abs format (unit mm)*
G04 Created by KiCad (PCBNEW (6.0.7-1)-1) date 2022-08-16 19:54:16*
%MOMM*%
%LPD*%
G01*
G04 APERTURE LIST*
%ADD10C,0.100000*%
%ADD11C,0.200000*%
%ADD12C,0.150000*%
%ADD13C,0.340000*%
%ADD14C,0.350000*%
G04 APERTURE END LIST*
D10*
X29550000Y-17250000D02*
G75*
G03*
X29850000Y-16950000I0J300000D01*
G01*
X20175000Y-9350000D02*
X20175000Y-11350000D01*
X7375000Y-16950000D02*
X7375000Y-11650000D01*
X17779633Y-10382636D02*
G75*
G03*
X17958936Y-9998127I-102603J281906D01*
G01*
X20175000Y-11350000D02*
X20175000Y-11650000D01*
X775000Y1350000D02*
X29550000Y1350000D01*
X-1675000Y-16950000D02*
G75*
G03*
X-1375000Y-17250000I300000J0D01*
G01*
X9030390Y-9397703D02*
X9426049Y-9513173D01*
X7757691Y-9061622D02*
X7888891Y-9070384D01*
X9770366Y-10382641D02*
X11743720Y-11100883D01*
X-1675000Y-11350000D02*
X-1675000Y-11650000D01*
X15421764Y-10921582D02*
G75*
G03*
X15806280Y-11100883I281906J102602D01*
G01*
X20175000Y-16950000D02*
G75*
G03*
X20475000Y-17250000I300000J0D01*
G01*
X14806128Y-9230135D02*
G75*
G03*
X14524222Y-9032741I-281908J-102605D01*
G01*
X13025778Y-9032741D02*
X14524222Y-9032741D01*
X20175000Y-9350000D02*
G75*
G03*
X19792309Y-9061622I-300000J0D01*
G01*
X13025778Y-9032739D02*
G75*
G03*
X12743870Y-9230135I2J-300002D01*
G01*
X19195309Y-9135848D02*
X19792309Y-9061622D01*
X7757691Y-9061622D02*
G75*
G03*
X7375000Y-9350000I-82691J-288379D01*
G01*
X15421766Y-10921581D02*
X14806130Y-9230135D01*
X7075000Y-17250000D02*
G75*
G03*
X7375000Y-16950000I0J300000D01*
G01*
X-1375000Y-17250000D02*
X7075000Y-17250000D01*
X20475000Y-17250000D02*
X29550000Y-17250000D01*
X7888891Y-9070384D02*
X9030390Y-9397703D01*
X17779634Y-10382641D02*
X15806280Y-11100883D01*
X29850000Y-11650000D02*
X29850000Y-11350000D01*
X175000Y-2850000D02*
G75*
G03*
X475000Y-2550000I0J300000D01*
G01*
X17958936Y-9998127D02*
X17907633Y-9857173D01*
X7375000Y-11350000D02*
X7375000Y-9350000D01*
X29850000Y1050000D02*
G75*
G03*
X29550000Y1350000I-300000J0D01*
G01*
X-1675000Y-2850000D02*
X-1675000Y-11350000D01*
X-1675000Y-11650000D02*
X-1675000Y-16950000D01*
X18106850Y-9466189D02*
X18282110Y-9397703D01*
X7375000Y-11650000D02*
X7375000Y-11350000D01*
X29850000Y-16950000D02*
X29850000Y-11650000D01*
X9591059Y-9998125D02*
G75*
G03*
X9770366Y-10382641I281911J-102605D01*
G01*
X20175000Y-11650000D02*
X20175000Y-16950000D01*
X12128234Y-10921581D02*
X12743870Y-9230135D01*
X11743721Y-11100881D02*
G75*
G03*
X12128234Y-10921581I102609J281901D01*
G01*
X18282110Y-9397703D02*
X19195309Y-9135848D01*
X18106851Y-9466193D02*
G75*
G03*
X17907633Y-9857173I82689J-288377D01*
G01*
X475000Y1050000D02*
X475000Y-2550000D01*
X175000Y-2850000D02*
X-1675000Y-2850000D01*
X775000Y1350000D02*
G75*
G03*
X475000Y1050000I0J-300000D01*
G01*
X9625265Y-9904157D02*
G75*
G03*
X9426049Y-9513173I-281905J102607D01*
G01*
X29850000Y-11350000D02*
X29850000Y1050000D01*
X9591064Y-9998127D02*
X9625266Y-9904158D01*
D11*
D12*
X1350000Y-3045000D02*
X1500000Y-3195000D01*
X1500000Y-3045000D02*
X1350000Y-3195000D01*
D11*
X1210000Y-3195000D02*
X1640000Y-3195000D01*
X1210000Y-3045000D02*
X1640000Y-3045000D01*
X1640000Y-3195000D02*
G75*
G03*
X1640000Y-3045000I0J75000D01*
G01*
X1210000Y-3045000D02*
G75*
G03*
X1210000Y-3195000I0J-75000D01*
G01*
D12*
X1350000Y-4405000D02*
X1500000Y-4555000D01*
X1500000Y-4405000D02*
X1350000Y-4555000D01*
D11*
X1210000Y-4555000D02*
X1640000Y-4555000D01*
X1210000Y-4405000D02*
X1640000Y-4405000D01*
X1640000Y-4555000D02*
G75*
G03*
X1640000Y-4405000I0J75000D01*
G01*
X1210000Y-4405000D02*
G75*
G03*
X1210000Y-4555000I0J-75000D01*
G01*
D12*
X1350000Y-6845000D02*
X1500000Y-6995000D01*
X1500000Y-6845000D02*
X1350000Y-6995000D01*
D11*
X1210000Y-6995000D02*
X1640000Y-6995000D01*
X1210000Y-6845000D02*
X1640000Y-6845000D01*
X1640000Y-6995000D02*
G75*
G03*
X1640000Y-6845000I0J75000D01*
G01*
X1210000Y-6845000D02*
G75*
G03*
X1210000Y-6995000I0J-75000D01*
G01*
D12*
X1350000Y-8205000D02*
X1500000Y-8355000D01*
X1500000Y-8205000D02*
X1350000Y-8355000D01*
D11*
X1210000Y-8355000D02*
X1640000Y-8355000D01*
X1210000Y-8205000D02*
X1640000Y-8205000D01*
X1640000Y-8355000D02*
G75*
G03*
X1640000Y-8205000I0J75000D01*
G01*
X1210000Y-8205000D02*
G75*
G03*
X1210000Y-8355000I0J-75000D01*
G01*
D12*
X1825000Y755000D02*
X1975000Y605000D01*
X1975000Y755000D02*
X1825000Y605000D01*
D11*
X1685000Y605000D02*
X2115000Y605000D01*
X1685000Y755000D02*
X2115000Y755000D01*
X2115000Y605000D02*
G75*
G03*
X2115000Y755000I0J75000D01*
G01*
X1685000Y755000D02*
G75*
G03*
X1685000Y605000I0J-75000D01*
G01*
D12*
X1825000Y-605000D02*
X1975000Y-755000D01*
X1975000Y-605000D02*
X1825000Y-755000D01*
D11*
X1685000Y-755000D02*
X2115000Y-755000D01*
X1685000Y-605000D02*
X2115000Y-605000D01*
X2115000Y-755000D02*
G75*
G03*
X2115000Y-605000I0J75000D01*
G01*
X1685000Y-605000D02*
G75*
G03*
X1685000Y-755000I0J-75000D01*
G01*
D12*
X1825000Y-4945000D02*
X1975000Y-5095000D01*
X1975000Y-4945000D02*
X1825000Y-5095000D01*
D11*
X1685000Y-5095000D02*
X2115000Y-5095000D01*
X1685000Y-4945000D02*
X2115000Y-4945000D01*
X2115000Y-5095000D02*
G75*
G03*
X2115000Y-4945000I0J75000D01*
G01*
X1685000Y-4945000D02*
G75*
G03*
X1685000Y-5095000I0J-75000D01*
G01*
D12*
X1825000Y-6305000D02*
X1975000Y-6455000D01*
X1975000Y-6305000D02*
X1825000Y-6455000D01*
D11*
X1685000Y-6455000D02*
X2115000Y-6455000D01*
X1685000Y-6305000D02*
X2115000Y-6305000D01*
X2115000Y-6455000D02*
G75*
G03*
X2115000Y-6305000I0J75000D01*
G01*
X1685000Y-6305000D02*
G75*
G03*
X1685000Y-6455000I0J-75000D01*
G01*
D12*
X2300000Y-1145000D02*
X2450000Y-1295000D01*
X2450000Y-1145000D02*
X2300000Y-1295000D01*
D11*
X2160000Y-1295000D02*
X2590000Y-1295000D01*
X2160000Y-1145000D02*
X2590000Y-1145000D01*
X2590000Y-1295000D02*
G75*
G03*
X2590000Y-1145000I0J75000D01*
G01*
X2160000Y-1145000D02*
G75*
G03*
X2160000Y-1295000I0J-75000D01*
G01*
D12*
X2300000Y-2505000D02*
X2450000Y-2655000D01*
X2450000Y-2505000D02*
X2300000Y-2655000D01*
D11*
X2160000Y-2655000D02*
X2590000Y-2655000D01*
X2160000Y-2505000D02*
X2590000Y-2505000D01*
X2590000Y-2655000D02*
G75*
G03*
X2590000Y-2505000I0J75000D01*
G01*
X2160000Y-2505000D02*
G75*
G03*
X2160000Y-2655000I0J-75000D01*
G01*
D12*
X3250000Y-3045000D02*
X3400000Y-3195000D01*
X3400000Y-3045000D02*
X3250000Y-3195000D01*
D11*
X3110000Y-3195000D02*
X3540000Y-3195000D01*
X3110000Y-3045000D02*
X3540000Y-3045000D01*
X3540000Y-3195000D02*
G75*
G03*
X3540000Y-3045000I0J75000D01*
G01*
X3110000Y-3045000D02*
G75*
G03*
X3110000Y-3195000I0J-75000D01*
G01*
D12*
X3250000Y-4405000D02*
X3400000Y-4555000D01*
X3400000Y-4405000D02*
X3250000Y-4555000D01*
D11*
X3110000Y-4555000D02*
X3540000Y-4555000D01*
X3110000Y-4405000D02*
X3540000Y-4405000D01*
X3540000Y-4555000D02*
G75*
G03*
X3540000Y-4405000I0J75000D01*
G01*
X3110000Y-4405000D02*
G75*
G03*
X3110000Y-4555000I0J-75000D01*
G01*
D12*
X3250000Y-6845000D02*
X3400000Y-6995000D01*
X3400000Y-6845000D02*
X3250000Y-6995000D01*
D11*
X3110000Y-6995000D02*
X3540000Y-6995000D01*
X3110000Y-6845000D02*
X3540000Y-6845000D01*
X3540000Y-6995000D02*
G75*
G03*
X3540000Y-6845000I0J75000D01*
G01*
X3110000Y-6845000D02*
G75*
G03*
X3110000Y-6995000I0J-75000D01*
G01*
D12*
X3250000Y-8205000D02*
X3400000Y-8355000D01*
X3400000Y-8205000D02*
X3250000Y-8355000D01*
D11*
X3110000Y-8355000D02*
X3540000Y-8355000D01*
X3110000Y-8205000D02*
X3540000Y-8205000D01*
X3540000Y-8355000D02*
G75*
G03*
X3540000Y-8205000I0J75000D01*
G01*
X3110000Y-8205000D02*
G75*
G03*
X3110000Y-8355000I0J-75000D01*
G01*
D12*
X3725000Y755000D02*
X3875000Y605000D01*
X3875000Y755000D02*
X3725000Y605000D01*
D11*
X3585000Y605000D02*
X4015000Y605000D01*
X3585000Y755000D02*
X4015000Y755000D01*
X4015000Y605000D02*
G75*
G03*
X4015000Y755000I0J75000D01*
G01*
X3585000Y755000D02*
G75*
G03*
X3585000Y605000I0J-75000D01*
G01*
D12*
X3725000Y-605000D02*
X3875000Y-755000D01*
X3875000Y-605000D02*
X3725000Y-755000D01*
D11*
X3585000Y-755000D02*
X4015000Y-755000D01*
X3585000Y-605000D02*
X4015000Y-605000D01*
X4015000Y-755000D02*
G75*
G03*
X4015000Y-605000I0J75000D01*
G01*
X3585000Y-605000D02*
G75*
G03*
X3585000Y-755000I0J-75000D01*
G01*
D12*
X4200000Y-4945000D02*
X4350000Y-5095000D01*
X4350000Y-4945000D02*
X4200000Y-5095000D01*
D11*
X4060000Y-5095000D02*
X4490000Y-5095000D01*
X4060000Y-4945000D02*
X4490000Y-4945000D01*
X4490000Y-5095000D02*
G75*
G03*
X4490000Y-4945000I0J75000D01*
G01*
X4060000Y-4945000D02*
G75*
G03*
X4060000Y-5095000I0J-75000D01*
G01*
D12*
X4200000Y-6305000D02*
X4350000Y-6455000D01*
X4350000Y-6305000D02*
X4200000Y-6455000D01*
D11*
X4060000Y-6455000D02*
X4490000Y-6455000D01*
X4060000Y-6305000D02*
X4490000Y-6305000D01*
X4490000Y-6455000D02*
G75*
G03*
X4490000Y-6305000I0J75000D01*
G01*
X4060000Y-6305000D02*
G75*
G03*
X4060000Y-6455000I0J-75000D01*
G01*
D12*
X4675000Y-1145000D02*
X4825000Y-1295000D01*
X4825000Y-1145000D02*
X4675000Y-1295000D01*
D11*
X4535000Y-1295000D02*
X4965000Y-1295000D01*
X4535000Y-1145000D02*
X4965000Y-1145000D01*
X4965000Y-1295000D02*
G75*
G03*
X4965000Y-1145000I0J75000D01*
G01*
X4535000Y-1145000D02*
G75*
G03*
X4535000Y-1295000I0J-75000D01*
G01*
D12*
X4675000Y-2505000D02*
X4825000Y-2655000D01*
X4825000Y-2505000D02*
X4675000Y-2655000D01*
D11*
X4535000Y-2655000D02*
X4965000Y-2655000D01*
X4535000Y-2505000D02*
X4965000Y-2505000D01*
X4965000Y-2655000D02*
G75*
G03*
X4965000Y-2505000I0J75000D01*
G01*
X4535000Y-2505000D02*
G75*
G03*
X4535000Y-2655000I0J-75000D01*
G01*
D12*
X5150000Y-3045000D02*
X5300000Y-3195000D01*
X5300000Y-3045000D02*
X5150000Y-3195000D01*
D11*
X5010000Y-3195000D02*
X5440000Y-3195000D01*
X5010000Y-3045000D02*
X5440000Y-3045000D01*
X5440000Y-3195000D02*
G75*
G03*
X5440000Y-3045000I0J75000D01*
G01*
X5010000Y-3045000D02*
G75*
G03*
X5010000Y-3195000I0J-75000D01*
G01*
D12*
X5150000Y-4405000D02*
X5300000Y-4555000D01*
X5300000Y-4405000D02*
X5150000Y-4555000D01*
D11*
X5010000Y-4555000D02*
X5440000Y-4555000D01*
X5010000Y-4405000D02*
X5440000Y-4405000D01*
X5440000Y-4555000D02*
G75*
G03*
X5440000Y-4405000I0J75000D01*
G01*
X5010000Y-4405000D02*
G75*
G03*
X5010000Y-4555000I0J-75000D01*
G01*
D12*
X5150000Y-6845000D02*
X5300000Y-6995000D01*
X5300000Y-6845000D02*
X5150000Y-6995000D01*
D11*
X5010000Y-6995000D02*
X5440000Y-6995000D01*
X5010000Y-6845000D02*
X5440000Y-6845000D01*
X5440000Y-6995000D02*
G75*
G03*
X5440000Y-6845000I0J75000D01*
G01*
X5010000Y-6845000D02*
G75*
G03*
X5010000Y-6995000I0J-75000D01*
G01*
D12*
X5150000Y-8205000D02*
X5300000Y-8355000D01*
X5300000Y-8205000D02*
X5150000Y-8355000D01*
D11*
X5010000Y-8355000D02*
X5440000Y-8355000D01*
X5010000Y-8205000D02*
X5440000Y-8205000D01*
X5440000Y-8355000D02*
G75*
G03*
X5440000Y-8205000I0J75000D01*
G01*
X5010000Y-8205000D02*
G75*
G03*
X5010000Y-8355000I0J-75000D01*
G01*
D12*
X5625000Y755000D02*
X5775000Y605000D01*
X5775000Y755000D02*
X5625000Y605000D01*
D11*
X5485000Y605000D02*
X5915000Y605000D01*
X5485000Y755000D02*
X5915000Y755000D01*
X5915000Y605000D02*
G75*
G03*
X5915000Y755000I0J75000D01*
G01*
X5485000Y755000D02*
G75*
G03*
X5485000Y605000I0J-75000D01*
G01*
D12*
X5625000Y-605000D02*
X5775000Y-755000D01*
X5775000Y-605000D02*
X5625000Y-755000D01*
D11*
X5485000Y-755000D02*
X5915000Y-755000D01*
X5485000Y-605000D02*
X5915000Y-605000D01*
X5915000Y-755000D02*
G75*
G03*
X5915000Y-605000I0J75000D01*
G01*
X5485000Y-605000D02*
G75*
G03*
X5485000Y-755000I0J-75000D01*
G01*
D12*
X6100000Y-4945000D02*
X6250000Y-5095000D01*
X6250000Y-4945000D02*
X6100000Y-5095000D01*
D11*
X5960000Y-5095000D02*
X6390000Y-5095000D01*
X5960000Y-4945000D02*
X6390000Y-4945000D01*
X6390000Y-5095000D02*
G75*
G03*
X6390000Y-4945000I0J75000D01*
G01*
X5960000Y-4945000D02*
G75*
G03*
X5960000Y-5095000I0J-75000D01*
G01*
D12*
X6100000Y-6305000D02*
X6250000Y-6455000D01*
X6250000Y-6305000D02*
X6100000Y-6455000D01*
D11*
X5960000Y-6455000D02*
X6390000Y-6455000D01*
X5960000Y-6305000D02*
X6390000Y-6305000D01*
X6390000Y-6455000D02*
G75*
G03*
X6390000Y-6305000I0J75000D01*
G01*
X5960000Y-6305000D02*
G75*
G03*
X5960000Y-6455000I0J-75000D01*
G01*
D12*
X6575000Y-1145000D02*
X6725000Y-1295000D01*
X6725000Y-1145000D02*
X6575000Y-1295000D01*
D11*
X6435000Y-1295000D02*
X6865000Y-1295000D01*
X6435000Y-1145000D02*
X6865000Y-1145000D01*
X6865000Y-1295000D02*
G75*
G03*
X6865000Y-1145000I0J75000D01*
G01*
X6435000Y-1145000D02*
G75*
G03*
X6435000Y-1295000I0J-75000D01*
G01*
D12*
X6575000Y-2505000D02*
X6725000Y-2655000D01*
X6725000Y-2505000D02*
X6575000Y-2655000D01*
D11*
X6435000Y-2655000D02*
X6865000Y-2655000D01*
X6435000Y-2505000D02*
X6865000Y-2505000D01*
X6865000Y-2655000D02*
G75*
G03*
X6865000Y-2505000I0J75000D01*
G01*
X6435000Y-2505000D02*
G75*
G03*
X6435000Y-2655000I0J-75000D01*
G01*
D12*
X7050000Y-3045000D02*
X7200000Y-3195000D01*
X7200000Y-3045000D02*
X7050000Y-3195000D01*
D11*
X6910000Y-3195000D02*
X7340000Y-3195000D01*
X6910000Y-3045000D02*
X7340000Y-3045000D01*
X7340000Y-3195000D02*
G75*
G03*
X7340000Y-3045000I0J75000D01*
G01*
X6910000Y-3045000D02*
G75*
G03*
X6910000Y-3195000I0J-75000D01*
G01*
D12*
X7050000Y-4405000D02*
X7200000Y-4555000D01*
X7200000Y-4405000D02*
X7050000Y-4555000D01*
D11*
X6910000Y-4555000D02*
X7340000Y-4555000D01*
X6910000Y-4405000D02*
X7340000Y-4405000D01*
X7340000Y-4555000D02*
G75*
G03*
X7340000Y-4405000I0J75000D01*
G01*
X6910000Y-4405000D02*
G75*
G03*
X6910000Y-4555000I0J-75000D01*
G01*
D12*
X7050000Y-6845000D02*
X7200000Y-6995000D01*
X7200000Y-6845000D02*
X7050000Y-6995000D01*
D11*
X6910000Y-6995000D02*
X7340000Y-6995000D01*
X6910000Y-6845000D02*
X7340000Y-6845000D01*
X7340000Y-6995000D02*
G75*
G03*
X7340000Y-6845000I0J75000D01*
G01*
X6910000Y-6845000D02*
G75*
G03*
X6910000Y-6995000I0J-75000D01*
G01*
D12*
X7050000Y-8205000D02*
X7200000Y-8355000D01*
X7200000Y-8205000D02*
X7050000Y-8355000D01*
D11*
X6910000Y-8355000D02*
X7340000Y-8355000D01*
X6910000Y-8205000D02*
X7340000Y-8205000D01*
X7340000Y-8355000D02*
G75*
G03*
X7340000Y-8205000I0J75000D01*
G01*
X6910000Y-8205000D02*
G75*
G03*
X6910000Y-8355000I0J-75000D01*
G01*
D12*
X7525000Y755000D02*
X7675000Y605000D01*
X7675000Y755000D02*
X7525000Y605000D01*
D11*
X7385000Y605000D02*
X7815000Y605000D01*
X7385000Y755000D02*
X7815000Y755000D01*
X7815000Y605000D02*
G75*
G03*
X7815000Y755000I0J75000D01*
G01*
X7385000Y755000D02*
G75*
G03*
X7385000Y605000I0J-75000D01*
G01*
D12*
X7525000Y-605000D02*
X7675000Y-755000D01*
X7675000Y-605000D02*
X7525000Y-755000D01*
D11*
X7385000Y-755000D02*
X7815000Y-755000D01*
X7385000Y-605000D02*
X7815000Y-605000D01*
X7815000Y-755000D02*
G75*
G03*
X7815000Y-605000I0J75000D01*
G01*
X7385000Y-605000D02*
G75*
G03*
X7385000Y-755000I0J-75000D01*
G01*
D12*
X8000000Y-4945000D02*
X8150000Y-5095000D01*
X8150000Y-4945000D02*
X8000000Y-5095000D01*
D11*
X7860000Y-5095000D02*
X8290000Y-5095000D01*
X7860000Y-4945000D02*
X8290000Y-4945000D01*
X8290000Y-5095000D02*
G75*
G03*
X8290000Y-4945000I0J75000D01*
G01*
X7860000Y-4945000D02*
G75*
G03*
X7860000Y-5095000I0J-75000D01*
G01*
D12*
X8000000Y-6305000D02*
X8150000Y-6455000D01*
X8150000Y-6305000D02*
X8000000Y-6455000D01*
D11*
X7860000Y-6455000D02*
X8290000Y-6455000D01*
X7860000Y-6305000D02*
X8290000Y-6305000D01*
X8290000Y-6455000D02*
G75*
G03*
X8290000Y-6305000I0J75000D01*
G01*
X7860000Y-6305000D02*
G75*
G03*
X7860000Y-6455000I0J-75000D01*
G01*
D12*
X8475000Y-1145000D02*
X8625000Y-1295000D01*
X8625000Y-1145000D02*
X8475000Y-1295000D01*
D11*
X8335000Y-1295000D02*
X8765000Y-1295000D01*
X8335000Y-1145000D02*
X8765000Y-1145000D01*
X8765000Y-1295000D02*
G75*
G03*
X8765000Y-1145000I0J75000D01*
G01*
X8335000Y-1145000D02*
G75*
G03*
X8335000Y-1295000I0J-75000D01*
G01*
D12*
X8475000Y-2505000D02*
X8625000Y-2655000D01*
X8625000Y-2505000D02*
X8475000Y-2655000D01*
D11*
X8335000Y-2655000D02*
X8765000Y-2655000D01*
X8335000Y-2505000D02*
X8765000Y-2505000D01*
X8765000Y-2655000D02*
G75*
G03*
X8765000Y-2505000I0J75000D01*
G01*
X8335000Y-2505000D02*
G75*
G03*
X8335000Y-2655000I0J-75000D01*
G01*
D12*
X8950000Y-3045000D02*
X9100000Y-3195000D01*
X9100000Y-3045000D02*
X8950000Y-3195000D01*
D11*
X8810000Y-3195000D02*
X9240000Y-3195000D01*
X8810000Y-3045000D02*
X9240000Y-3045000D01*
X9240000Y-3195000D02*
G75*
G03*
X9240000Y-3045000I0J75000D01*
G01*
X8810000Y-3045000D02*
G75*
G03*
X8810000Y-3195000I0J-75000D01*
G01*
D12*
X8950000Y-4405000D02*
X9100000Y-4555000D01*
X9100000Y-4405000D02*
X8950000Y-4555000D01*
D11*
X8810000Y-4555000D02*
X9240000Y-4555000D01*
X8810000Y-4405000D02*
X9240000Y-4405000D01*
X9240000Y-4555000D02*
G75*
G03*
X9240000Y-4405000I0J75000D01*
G01*
X8810000Y-4405000D02*
G75*
G03*
X8810000Y-4555000I0J-75000D01*
G01*
D12*
X9140067Y-8678658D02*
X9290067Y-8828658D01*
X9290067Y-8678658D02*
X9140067Y-8828658D01*
D11*
X8987723Y-8766491D02*
X9401065Y-8885015D01*
X9029068Y-8622301D02*
X9442411Y-8740825D01*
X9401065Y-8885015D02*
G75*
G03*
X9442411Y-8740825I20673J72095D01*
G01*
X9029068Y-8622301D02*
G75*
G03*
X8987723Y-8766491I-20673J-72095D01*
G01*
D12*
X9425000Y755000D02*
X9575000Y605000D01*
X9575000Y755000D02*
X9425000Y605000D01*
D11*
X9285000Y605000D02*
X9715000Y605000D01*
X9285000Y755000D02*
X9715000Y755000D01*
X9715000Y605000D02*
G75*
G03*
X9715000Y755000I0J75000D01*
G01*
X9285000Y755000D02*
G75*
G03*
X9285000Y605000I0J-75000D01*
G01*
D12*
X9425000Y-605000D02*
X9575000Y-755000D01*
X9575000Y-605000D02*
X9425000Y-755000D01*
D11*
X9285000Y-755000D02*
X9715000Y-755000D01*
X9285000Y-605000D02*
X9715000Y-605000D01*
X9715000Y-755000D02*
G75*
G03*
X9715000Y-605000I0J75000D01*
G01*
X9285000Y-605000D02*
G75*
G03*
X9285000Y-755000I0J-75000D01*
G01*
D12*
X9514933Y-7371342D02*
X9664933Y-7521342D01*
X9664933Y-7371342D02*
X9514933Y-7521342D01*
D11*
X9362589Y-7459175D02*
X9775932Y-7577699D01*
X9403935Y-7314985D02*
X9817278Y-7433509D01*
X9775932Y-7577699D02*
G75*
G03*
X9817278Y-7433509I20673J72095D01*
G01*
X9403935Y-7314985D02*
G75*
G03*
X9362589Y-7459175I-20673J-72095D01*
G01*
D12*
X9900000Y-4945000D02*
X10050000Y-5095000D01*
X10050000Y-4945000D02*
X9900000Y-5095000D01*
D11*
X9760000Y-5095000D02*
X10190000Y-5095000D01*
X9760000Y-4945000D02*
X10190000Y-4945000D01*
X10190000Y-5095000D02*
G75*
G03*
X10190000Y-4945000I0J75000D01*
G01*
X9760000Y-4945000D02*
G75*
G03*
X9760000Y-5095000I0J-75000D01*
G01*
D12*
X9900000Y-6305000D02*
X10050000Y-6455000D01*
X10050000Y-6305000D02*
X9900000Y-6455000D01*
D11*
X9760000Y-6455000D02*
X10190000Y-6455000D01*
X9760000Y-6305000D02*
X10190000Y-6305000D01*
X10190000Y-6455000D02*
G75*
G03*
X10190000Y-6305000I0J75000D01*
G01*
X9760000Y-6305000D02*
G75*
G03*
X9760000Y-6455000I0J-75000D01*
G01*
D12*
X10375000Y-1145000D02*
X10525000Y-1295000D01*
X10525000Y-1145000D02*
X10375000Y-1295000D01*
D11*
X10235000Y-1295000D02*
X10665000Y-1295000D01*
X10235000Y-1145000D02*
X10665000Y-1145000D01*
X10665000Y-1295000D02*
G75*
G03*
X10665000Y-1145000I0J75000D01*
G01*
X10235000Y-1145000D02*
G75*
G03*
X10235000Y-1295000I0J-75000D01*
G01*
D12*
X10375000Y-2505000D02*
X10525000Y-2655000D01*
X10525000Y-2505000D02*
X10375000Y-2655000D01*
D11*
X10235000Y-2655000D02*
X10665000Y-2655000D01*
X10235000Y-2505000D02*
X10665000Y-2505000D01*
X10665000Y-2655000D02*
G75*
G03*
X10665000Y-2505000I0J75000D01*
G01*
X10235000Y-2505000D02*
G75*
G03*
X10235000Y-2655000I0J-75000D01*
G01*
D12*
X10586009Y-8942426D02*
X10736009Y-9092426D01*
X10736009Y-8942426D02*
X10586009Y-9092426D01*
D11*
X10657952Y-9245112D02*
X10805020Y-8841044D01*
X10516998Y-9193809D02*
X10664066Y-8789741D01*
X10805020Y-8841044D02*
G75*
G03*
X10664066Y-8789741I-70477J25652D01*
G01*
X10516998Y-9193809D02*
G75*
G03*
X10657952Y-9245112I70477J-25652D01*
G01*
D12*
X10850000Y-3045000D02*
X11000000Y-3195000D01*
X11000000Y-3045000D02*
X10850000Y-3195000D01*
D11*
X10710000Y-3195000D02*
X11140000Y-3195000D01*
X10710000Y-3045000D02*
X11140000Y-3045000D01*
X11140000Y-3195000D02*
G75*
G03*
X11140000Y-3045000I0J75000D01*
G01*
X10710000Y-3045000D02*
G75*
G03*
X10710000Y-3195000I0J-75000D01*
G01*
D12*
X10850000Y-4405000D02*
X11000000Y-4555000D01*
X11000000Y-4405000D02*
X10850000Y-4555000D01*
D11*
X10710000Y-4555000D02*
X11140000Y-4555000D01*
X10710000Y-4405000D02*
X11140000Y-4405000D01*
X11140000Y-4555000D02*
G75*
G03*
X11140000Y-4405000I0J75000D01*
G01*
X10710000Y-4405000D02*
G75*
G03*
X10710000Y-4555000I0J-75000D01*
G01*
D12*
X11325000Y755000D02*
X11475000Y605000D01*
X11475000Y755000D02*
X11325000Y605000D01*
D11*
X11185000Y605000D02*
X11615000Y605000D01*
X11185000Y755000D02*
X11615000Y755000D01*
X11615000Y605000D02*
G75*
G03*
X11615000Y755000I0J75000D01*
G01*
X11185000Y755000D02*
G75*
G03*
X11185000Y605000I0J-75000D01*
G01*
D12*
X11325000Y-605000D02*
X11475000Y-755000D01*
X11475000Y-605000D02*
X11325000Y-755000D01*
D11*
X11185000Y-755000D02*
X11615000Y-755000D01*
X11185000Y-605000D02*
X11615000Y-605000D01*
X11615000Y-755000D02*
G75*
G03*
X11615000Y-605000I0J75000D01*
G01*
X11185000Y-605000D02*
G75*
G03*
X11185000Y-755000I0J-75000D01*
G01*
D12*
X11800000Y-4945000D02*
X11950000Y-5095000D01*
X11950000Y-4945000D02*
X11800000Y-5095000D01*
D11*
X11660000Y-5095000D02*
X12090000Y-5095000D01*
X11660000Y-4945000D02*
X12090000Y-4945000D01*
X12090000Y-5095000D02*
G75*
G03*
X12090000Y-4945000I0J75000D01*
G01*
X11660000Y-4945000D02*
G75*
G03*
X11660000Y-5095000I0J-75000D01*
G01*
D12*
X11800000Y-6305000D02*
X11950000Y-6455000D01*
X11950000Y-6305000D02*
X11800000Y-6455000D01*
D11*
X11660000Y-6455000D02*
X12090000Y-6455000D01*
X11660000Y-6305000D02*
X12090000Y-6305000D01*
X12090000Y-6455000D02*
G75*
G03*
X12090000Y-6305000I0J75000D01*
G01*
X11660000Y-6305000D02*
G75*
G03*
X11660000Y-6455000I0J-75000D01*
G01*
D12*
X11863991Y-9407574D02*
X12013991Y-9557574D01*
X12013991Y-9407574D02*
X11863991Y-9557574D01*
D11*
X11935934Y-9710259D02*
X12083002Y-9306191D01*
X11794980Y-9658956D02*
X11942048Y-9254888D01*
X12083002Y-9306191D02*
G75*
G03*
X11942048Y-9254888I-70477J25652D01*
G01*
X11794980Y-9658956D02*
G75*
G03*
X11935934Y-9710259I70477J-25652D01*
G01*
D12*
X12275000Y-1145000D02*
X12425000Y-1295000D01*
X12425000Y-1145000D02*
X12275000Y-1295000D01*
D11*
X12135000Y-1295000D02*
X12565000Y-1295000D01*
X12135000Y-1145000D02*
X12565000Y-1145000D01*
X12565000Y-1295000D02*
G75*
G03*
X12565000Y-1145000I0J75000D01*
G01*
X12135000Y-1145000D02*
G75*
G03*
X12135000Y-1295000I0J-75000D01*
G01*
D12*
X12275000Y-2505000D02*
X12425000Y-2655000D01*
X12425000Y-2505000D02*
X12275000Y-2655000D01*
D11*
X12135000Y-2655000D02*
X12565000Y-2655000D01*
X12135000Y-2505000D02*
X12565000Y-2505000D01*
X12565000Y-2655000D02*
G75*
G03*
X12565000Y-2505000I0J75000D01*
G01*
X12135000Y-2505000D02*
G75*
G03*
X12135000Y-2655000I0J-75000D01*
G01*
D12*
X12750000Y-3045000D02*
X12900000Y-3195000D01*
X12900000Y-3045000D02*
X12750000Y-3195000D01*
D11*
X12610000Y-3195000D02*
X13040000Y-3195000D01*
X12610000Y-3045000D02*
X13040000Y-3045000D01*
X13040000Y-3195000D02*
G75*
G03*
X13040000Y-3045000I0J75000D01*
G01*
X12610000Y-3045000D02*
G75*
G03*
X12610000Y-3195000I0J-75000D01*
G01*
D12*
X12750000Y-4405000D02*
X12900000Y-4555000D01*
X12900000Y-4405000D02*
X12750000Y-4555000D01*
D11*
X12610000Y-4555000D02*
X13040000Y-4555000D01*
X12610000Y-4405000D02*
X13040000Y-4405000D01*
X13040000Y-4555000D02*
G75*
G03*
X13040000Y-4405000I0J75000D01*
G01*
X12610000Y-4405000D02*
G75*
G03*
X12610000Y-4555000I0J-75000D01*
G01*
D12*
X13225000Y755000D02*
X13375000Y605000D01*
X13375000Y755000D02*
X13225000Y605000D01*
D11*
X13085000Y605000D02*
X13515000Y605000D01*
X13085000Y755000D02*
X13515000Y755000D01*
X13515000Y605000D02*
G75*
G03*
X13515000Y755000I0J75000D01*
G01*
X13085000Y755000D02*
G75*
G03*
X13085000Y605000I0J-75000D01*
G01*
D12*
X13225000Y-605000D02*
X13375000Y-755000D01*
X13375000Y-605000D02*
X13225000Y-755000D01*
D11*
X13085000Y-755000D02*
X13515000Y-755000D01*
X13085000Y-605000D02*
X13515000Y-605000D01*
X13515000Y-755000D02*
G75*
G03*
X13515000Y-605000I0J75000D01*
G01*
X13085000Y-605000D02*
G75*
G03*
X13085000Y-755000I0J-75000D01*
G01*
D12*
X13700000Y-4945000D02*
X13850000Y-5095000D01*
X13850000Y-4945000D02*
X13700000Y-5095000D01*
D11*
X13560000Y-5095000D02*
X13990000Y-5095000D01*
X13560000Y-4945000D02*
X13990000Y-4945000D01*
X13990000Y-5095000D02*
G75*
G03*
X13990000Y-4945000I0J75000D01*
G01*
X13560000Y-4945000D02*
G75*
G03*
X13560000Y-5095000I0J-75000D01*
G01*
D12*
X13700000Y-6305000D02*
X13850000Y-6455000D01*
X13850000Y-6305000D02*
X13700000Y-6455000D01*
D11*
X13560000Y-6455000D02*
X13990000Y-6455000D01*
X13560000Y-6305000D02*
X13990000Y-6305000D01*
X13990000Y-6455000D02*
G75*
G03*
X13990000Y-6305000I0J75000D01*
G01*
X13560000Y-6305000D02*
G75*
G03*
X13560000Y-6455000I0J-75000D01*
G01*
D12*
X13700000Y-6845000D02*
X13850000Y-6995000D01*
X13850000Y-6845000D02*
X13700000Y-6995000D01*
D11*
X13560000Y-6995000D02*
X13990000Y-6995000D01*
X13560000Y-6845000D02*
X13990000Y-6845000D01*
X13990000Y-6995000D02*
G75*
G03*
X13990000Y-6845000I0J75000D01*
G01*
X13560000Y-6845000D02*
G75*
G03*
X13560000Y-6995000I0J-75000D01*
G01*
D12*
X13700000Y-8205000D02*
X13850000Y-8355000D01*
X13850000Y-8205000D02*
X13700000Y-8355000D01*
D11*
X13560000Y-8355000D02*
X13990000Y-8355000D01*
X13560000Y-8205000D02*
X13990000Y-8205000D01*
X13990000Y-8355000D02*
G75*
G03*
X13990000Y-8205000I0J75000D01*
G01*
X13560000Y-8205000D02*
G75*
G03*
X13560000Y-8355000I0J-75000D01*
G01*
D12*
X14175000Y-1145000D02*
X14325000Y-1295000D01*
X14325000Y-1145000D02*
X14175000Y-1295000D01*
D11*
X14035000Y-1295000D02*
X14465000Y-1295000D01*
X14035000Y-1145000D02*
X14465000Y-1145000D01*
X14465000Y-1295000D02*
G75*
G03*
X14465000Y-1145000I0J75000D01*
G01*
X14035000Y-1145000D02*
G75*
G03*
X14035000Y-1295000I0J-75000D01*
G01*
D12*
X14175000Y-2505000D02*
X14325000Y-2655000D01*
X14325000Y-2505000D02*
X14175000Y-2655000D01*
D11*
X14035000Y-2655000D02*
X14465000Y-2655000D01*
X14035000Y-2505000D02*
X14465000Y-2505000D01*
X14465000Y-2655000D02*
G75*
G03*
X14465000Y-2505000I0J75000D01*
G01*
X14035000Y-2505000D02*
G75*
G03*
X14035000Y-2655000I0J-75000D01*
G01*
D12*
X14650000Y-3045000D02*
X14800000Y-3195000D01*
X14800000Y-3045000D02*
X14650000Y-3195000D01*
D11*
X14510000Y-3195000D02*
X14940000Y-3195000D01*
X14510000Y-3045000D02*
X14940000Y-3045000D01*
X14940000Y-3195000D02*
G75*
G03*
X14940000Y-3045000I0J75000D01*
G01*
X14510000Y-3045000D02*
G75*
G03*
X14510000Y-3195000I0J-75000D01*
G01*
D12*
X14650000Y-4405000D02*
X14800000Y-4555000D01*
X14800000Y-4405000D02*
X14650000Y-4555000D01*
D11*
X14510000Y-4555000D02*
X14940000Y-4555000D01*
X14510000Y-4405000D02*
X14940000Y-4405000D01*
X14940000Y-4555000D02*
G75*
G03*
X14940000Y-4405000I0J75000D01*
G01*
X14510000Y-4405000D02*
G75*
G03*
X14510000Y-4555000I0J-75000D01*
G01*
D12*
X15125000Y755000D02*
X15275000Y605000D01*
X15275000Y755000D02*
X15125000Y605000D01*
D11*
X14985000Y605000D02*
X15415000Y605000D01*
X14985000Y755000D02*
X15415000Y755000D01*
X15415000Y605000D02*
G75*
G03*
X15415000Y755000I0J75000D01*
G01*
X14985000Y755000D02*
G75*
G03*
X14985000Y605000I0J-75000D01*
G01*
D12*
X15125000Y-605000D02*
X15275000Y-755000D01*
X15275000Y-605000D02*
X15125000Y-755000D01*
D11*
X14985000Y-755000D02*
X15415000Y-755000D01*
X14985000Y-605000D02*
X15415000Y-605000D01*
X15415000Y-755000D02*
G75*
G03*
X15415000Y-605000I0J75000D01*
G01*
X14985000Y-605000D02*
G75*
G03*
X14985000Y-755000I0J-75000D01*
G01*
D12*
X15536009Y-9407574D02*
X15686009Y-9557574D01*
X15686009Y-9407574D02*
X15536009Y-9557574D01*
D11*
X15755020Y-9658956D02*
X15607952Y-9254888D01*
X15614066Y-9710259D02*
X15466998Y-9306191D01*
X15607952Y-9254888D02*
G75*
G03*
X15466998Y-9306191I-70477J-25652D01*
G01*
X15614066Y-9710259D02*
G75*
G03*
X15755020Y-9658956I70477J25652D01*
G01*
D12*
X15600000Y-4945000D02*
X15750000Y-5095000D01*
X15750000Y-4945000D02*
X15600000Y-5095000D01*
D11*
X15460000Y-5095000D02*
X15890000Y-5095000D01*
X15460000Y-4945000D02*
X15890000Y-4945000D01*
X15890000Y-5095000D02*
G75*
G03*
X15890000Y-4945000I0J75000D01*
G01*
X15460000Y-4945000D02*
G75*
G03*
X15460000Y-5095000I0J-75000D01*
G01*
D12*
X15600000Y-6305000D02*
X15750000Y-6455000D01*
X15750000Y-6305000D02*
X15600000Y-6455000D01*
D11*
X15460000Y-6455000D02*
X15890000Y-6455000D01*
X15460000Y-6305000D02*
X15890000Y-6305000D01*
X15890000Y-6455000D02*
G75*
G03*
X15890000Y-6305000I0J75000D01*
G01*
X15460000Y-6305000D02*
G75*
G03*
X15460000Y-6455000I0J-75000D01*
G01*
D12*
X16075000Y-1145000D02*
X16225000Y-1295000D01*
X16225000Y-1145000D02*
X16075000Y-1295000D01*
D11*
X15935000Y-1295000D02*
X16365000Y-1295000D01*
X15935000Y-1145000D02*
X16365000Y-1145000D01*
X16365000Y-1295000D02*
G75*
G03*
X16365000Y-1145000I0J75000D01*
G01*
X15935000Y-1145000D02*
G75*
G03*
X15935000Y-1295000I0J-75000D01*
G01*
D12*
X16075000Y-2505000D02*
X16225000Y-2655000D01*
X16225000Y-2505000D02*
X16075000Y-2655000D01*
D11*
X15935000Y-2655000D02*
X16365000Y-2655000D01*
X15935000Y-2505000D02*
X16365000Y-2505000D01*
X16365000Y-2655000D02*
G75*
G03*
X16365000Y-2505000I0J75000D01*
G01*
X15935000Y-2505000D02*
G75*
G03*
X15935000Y-2655000I0J-75000D01*
G01*
D12*
X16550000Y-3045000D02*
X16700000Y-3195000D01*
X16700000Y-3045000D02*
X16550000Y-3195000D01*
D11*
X16410000Y-3195000D02*
X16840000Y-3195000D01*
X16410000Y-3045000D02*
X16840000Y-3045000D01*
X16840000Y-3195000D02*
G75*
G03*
X16840000Y-3045000I0J75000D01*
G01*
X16410000Y-3045000D02*
G75*
G03*
X16410000Y-3195000I0J-75000D01*
G01*
D12*
X16550000Y-4405000D02*
X16700000Y-4555000D01*
X16700000Y-4405000D02*
X16550000Y-4555000D01*
D11*
X16410000Y-4555000D02*
X16840000Y-4555000D01*
X16410000Y-4405000D02*
X16840000Y-4405000D01*
X16840000Y-4555000D02*
G75*
G03*
X16840000Y-4405000I0J75000D01*
G01*
X16410000Y-4405000D02*
G75*
G03*
X16410000Y-4555000I0J-75000D01*
G01*
D12*
X16813991Y-8942426D02*
X16963991Y-9092426D01*
X16963991Y-8942426D02*
X16813991Y-9092426D01*
D11*
X17033002Y-9193809D02*
X16885934Y-8789741D01*
X16892048Y-9245112D02*
X16744980Y-8841044D01*
X16885934Y-8789741D02*
G75*
G03*
X16744980Y-8841044I-70477J-25652D01*
G01*
X16892048Y-9245112D02*
G75*
G03*
X17033002Y-9193809I70477J25652D01*
G01*
D12*
X17025000Y755000D02*
X17175000Y605000D01*
X17175000Y755000D02*
X17025000Y605000D01*
D11*
X16885000Y605000D02*
X17315000Y605000D01*
X16885000Y755000D02*
X17315000Y755000D01*
X17315000Y605000D02*
G75*
G03*
X17315000Y755000I0J75000D01*
G01*
X16885000Y755000D02*
G75*
G03*
X16885000Y605000I0J-75000D01*
G01*
D12*
X17025000Y-605000D02*
X17175000Y-755000D01*
X17175000Y-605000D02*
X17025000Y-755000D01*
D11*
X16885000Y-755000D02*
X17315000Y-755000D01*
X16885000Y-605000D02*
X17315000Y-605000D01*
X17315000Y-755000D02*
G75*
G03*
X17315000Y-605000I0J75000D01*
G01*
X16885000Y-605000D02*
G75*
G03*
X16885000Y-755000I0J-75000D01*
G01*
D12*
X17500000Y-4945000D02*
X17650000Y-5095000D01*
X17650000Y-4945000D02*
X17500000Y-5095000D01*
D11*
X17360000Y-5095000D02*
X17790000Y-5095000D01*
X17360000Y-4945000D02*
X17790000Y-4945000D01*
X17790000Y-5095000D02*
G75*
G03*
X17790000Y-4945000I0J75000D01*
G01*
X17360000Y-4945000D02*
G75*
G03*
X17360000Y-5095000I0J-75000D01*
G01*
D12*
X17500000Y-6305000D02*
X17650000Y-6455000D01*
X17650000Y-6305000D02*
X17500000Y-6455000D01*
D11*
X17360000Y-6455000D02*
X17790000Y-6455000D01*
X17360000Y-6305000D02*
X17790000Y-6305000D01*
X17790000Y-6455000D02*
G75*
G03*
X17790000Y-6305000I0J75000D01*
G01*
X17360000Y-6305000D02*
G75*
G03*
X17360000Y-6455000I0J-75000D01*
G01*
D12*
X17647567Y-7371342D02*
X17797567Y-7521342D01*
X17797567Y-7371342D02*
X17647567Y-7521342D01*
D11*
X17536568Y-7577699D02*
X17949911Y-7459175D01*
X17495223Y-7433509D02*
X17908565Y-7314985D01*
X17949911Y-7459175D02*
G75*
G03*
X17908565Y-7314985I-20673J72095D01*
G01*
X17495223Y-7433509D02*
G75*
G03*
X17536568Y-7577699I20673J-72095D01*
G01*
D12*
X17975000Y-1145000D02*
X18125000Y-1295000D01*
X18125000Y-1145000D02*
X17975000Y-1295000D01*
D11*
X17835000Y-1295000D02*
X18265000Y-1295000D01*
X17835000Y-1145000D02*
X18265000Y-1145000D01*
X18265000Y-1295000D02*
G75*
G03*
X18265000Y-1145000I0J75000D01*
G01*
X17835000Y-1145000D02*
G75*
G03*
X17835000Y-1295000I0J-75000D01*
G01*
D12*
X17975000Y-2505000D02*
X18125000Y-2655000D01*
X18125000Y-2505000D02*
X17975000Y-2655000D01*
D11*
X17835000Y-2655000D02*
X18265000Y-2655000D01*
X17835000Y-2505000D02*
X18265000Y-2505000D01*
X18265000Y-2655000D02*
G75*
G03*
X18265000Y-2505000I0J75000D01*
G01*
X17835000Y-2505000D02*
G75*
G03*
X17835000Y-2655000I0J-75000D01*
G01*
D12*
X18022433Y-8678658D02*
X18172433Y-8828658D01*
X18172433Y-8678658D02*
X18022433Y-8828658D01*
D11*
X17911435Y-8885015D02*
X18324778Y-8766491D01*
X17870089Y-8740825D02*
X18283432Y-8622301D01*
X18324778Y-8766491D02*
G75*
G03*
X18283432Y-8622301I-20673J72095D01*
G01*
X17870089Y-8740825D02*
G75*
G03*
X17911435Y-8885015I20673J-72095D01*
G01*
D12*
X18450000Y-3045000D02*
X18600000Y-3195000D01*
X18600000Y-3045000D02*
X18450000Y-3195000D01*
D11*
X18310000Y-3195000D02*
X18740000Y-3195000D01*
X18310000Y-3045000D02*
X18740000Y-3045000D01*
X18740000Y-3195000D02*
G75*
G03*
X18740000Y-3045000I0J75000D01*
G01*
X18310000Y-3045000D02*
G75*
G03*
X18310000Y-3195000I0J-75000D01*
G01*
D12*
X18450000Y-4405000D02*
X18600000Y-4555000D01*
X18600000Y-4405000D02*
X18450000Y-4555000D01*
D11*
X18310000Y-4555000D02*
X18740000Y-4555000D01*
X18310000Y-4405000D02*
X18740000Y-4405000D01*
X18740000Y-4555000D02*
G75*
G03*
X18740000Y-4405000I0J75000D01*
G01*
X18310000Y-4405000D02*
G75*
G03*
X18310000Y-4555000I0J-75000D01*
G01*
D12*
X18925000Y755000D02*
X19075000Y605000D01*
X19075000Y755000D02*
X18925000Y605000D01*
D11*
X18785000Y605000D02*
X19215000Y605000D01*
X18785000Y755000D02*
X19215000Y755000D01*
X19215000Y605000D02*
G75*
G03*
X19215000Y755000I0J75000D01*
G01*
X18785000Y755000D02*
G75*
G03*
X18785000Y605000I0J-75000D01*
G01*
D12*
X18925000Y-605000D02*
X19075000Y-755000D01*
X19075000Y-605000D02*
X18925000Y-755000D01*
D11*
X18785000Y-755000D02*
X19215000Y-755000D01*
X18785000Y-605000D02*
X19215000Y-605000D01*
X19215000Y-755000D02*
G75*
G03*
X19215000Y-605000I0J75000D01*
G01*
X18785000Y-605000D02*
G75*
G03*
X18785000Y-755000I0J-75000D01*
G01*
D12*
X19400000Y-4945000D02*
X19550000Y-5095000D01*
X19550000Y-4945000D02*
X19400000Y-5095000D01*
D11*
X19260000Y-5095000D02*
X19690000Y-5095000D01*
X19260000Y-4945000D02*
X19690000Y-4945000D01*
X19690000Y-5095000D02*
G75*
G03*
X19690000Y-4945000I0J75000D01*
G01*
X19260000Y-4945000D02*
G75*
G03*
X19260000Y-5095000I0J-75000D01*
G01*
D12*
X19400000Y-6305000D02*
X19550000Y-6455000D01*
X19550000Y-6305000D02*
X19400000Y-6455000D01*
D11*
X19260000Y-6455000D02*
X19690000Y-6455000D01*
X19260000Y-6305000D02*
X19690000Y-6305000D01*
X19690000Y-6455000D02*
G75*
G03*
X19690000Y-6305000I0J75000D01*
G01*
X19260000Y-6305000D02*
G75*
G03*
X19260000Y-6455000I0J-75000D01*
G01*
D12*
X19875000Y-1145000D02*
X20025000Y-1295000D01*
X20025000Y-1145000D02*
X19875000Y-1295000D01*
D11*
X19735000Y-1295000D02*
X20165000Y-1295000D01*
X19735000Y-1145000D02*
X20165000Y-1145000D01*
X20165000Y-1295000D02*
G75*
G03*
X20165000Y-1145000I0J75000D01*
G01*
X19735000Y-1145000D02*
G75*
G03*
X19735000Y-1295000I0J-75000D01*
G01*
D12*
X19875000Y-2505000D02*
X20025000Y-2655000D01*
X20025000Y-2505000D02*
X19875000Y-2655000D01*
D11*
X19735000Y-2655000D02*
X20165000Y-2655000D01*
X19735000Y-2505000D02*
X20165000Y-2505000D01*
X20165000Y-2655000D02*
G75*
G03*
X20165000Y-2505000I0J75000D01*
G01*
X19735000Y-2505000D02*
G75*
G03*
X19735000Y-2655000I0J-75000D01*
G01*
D12*
X19875000Y-6845000D02*
X20025000Y-6995000D01*
X20025000Y-6845000D02*
X19875000Y-6995000D01*
D11*
X19735000Y-6995000D02*
X20165000Y-6995000D01*
X19735000Y-6845000D02*
X20165000Y-6845000D01*
X20165000Y-6995000D02*
G75*
G03*
X20165000Y-6845000I0J75000D01*
G01*
X19735000Y-6845000D02*
G75*
G03*
X19735000Y-6995000I0J-75000D01*
G01*
D12*
X19875000Y-8205000D02*
X20025000Y-8355000D01*
X20025000Y-8205000D02*
X19875000Y-8355000D01*
D11*
X19735000Y-8355000D02*
X20165000Y-8355000D01*
X19735000Y-8205000D02*
X20165000Y-8205000D01*
X20165000Y-8355000D02*
G75*
G03*
X20165000Y-8205000I0J75000D01*
G01*
X19735000Y-8205000D02*
G75*
G03*
X19735000Y-8355000I0J-75000D01*
G01*
D12*
X20350000Y-3045000D02*
X20500000Y-3195000D01*
X20500000Y-3045000D02*
X20350000Y-3195000D01*
D11*
X20210000Y-3195000D02*
X20640000Y-3195000D01*
X20210000Y-3045000D02*
X20640000Y-3045000D01*
X20640000Y-3195000D02*
G75*
G03*
X20640000Y-3045000I0J75000D01*
G01*
X20210000Y-3045000D02*
G75*
G03*
X20210000Y-3195000I0J-75000D01*
G01*
D12*
X20350000Y-4405000D02*
X20500000Y-4555000D01*
X20500000Y-4405000D02*
X20350000Y-4555000D01*
D11*
X20210000Y-4555000D02*
X20640000Y-4555000D01*
X20210000Y-4405000D02*
X20640000Y-4405000D01*
X20640000Y-4555000D02*
G75*
G03*
X20640000Y-4405000I0J75000D01*
G01*
X20210000Y-4405000D02*
G75*
G03*
X20210000Y-4555000I0J-75000D01*
G01*
D12*
X20825000Y755000D02*
X20975000Y605000D01*
X20975000Y755000D02*
X20825000Y605000D01*
D11*
X20685000Y605000D02*
X21115000Y605000D01*
X20685000Y755000D02*
X21115000Y755000D01*
X21115000Y605000D02*
G75*
G03*
X21115000Y755000I0J75000D01*
G01*
X20685000Y755000D02*
G75*
G03*
X20685000Y605000I0J-75000D01*
G01*
D12*
X20825000Y-605000D02*
X20975000Y-755000D01*
X20975000Y-605000D02*
X20825000Y-755000D01*
D11*
X20685000Y-755000D02*
X21115000Y-755000D01*
X20685000Y-605000D02*
X21115000Y-605000D01*
X21115000Y-755000D02*
G75*
G03*
X21115000Y-605000I0J75000D01*
G01*
X20685000Y-605000D02*
G75*
G03*
X20685000Y-755000I0J-75000D01*
G01*
D12*
X21300000Y-4945000D02*
X21450000Y-5095000D01*
X21450000Y-4945000D02*
X21300000Y-5095000D01*
D11*
X21160000Y-5095000D02*
X21590000Y-5095000D01*
X21160000Y-4945000D02*
X21590000Y-4945000D01*
X21590000Y-5095000D02*
G75*
G03*
X21590000Y-4945000I0J75000D01*
G01*
X21160000Y-4945000D02*
G75*
G03*
X21160000Y-5095000I0J-75000D01*
G01*
D12*
X21300000Y-6305000D02*
X21450000Y-6455000D01*
X21450000Y-6305000D02*
X21300000Y-6455000D01*
D11*
X21160000Y-6455000D02*
X21590000Y-6455000D01*
X21160000Y-6305000D02*
X21590000Y-6305000D01*
X21590000Y-6455000D02*
G75*
G03*
X21590000Y-6305000I0J75000D01*
G01*
X21160000Y-6305000D02*
G75*
G03*
X21160000Y-6455000I0J-75000D01*
G01*
D12*
X21775000Y-1145000D02*
X21925000Y-1295000D01*
X21925000Y-1145000D02*
X21775000Y-1295000D01*
D11*
X21635000Y-1295000D02*
X22065000Y-1295000D01*
X21635000Y-1145000D02*
X22065000Y-1145000D01*
X22065000Y-1295000D02*
G75*
G03*
X22065000Y-1145000I0J75000D01*
G01*
X21635000Y-1145000D02*
G75*
G03*
X21635000Y-1295000I0J-75000D01*
G01*
D12*
X21775000Y-2505000D02*
X21925000Y-2655000D01*
X21925000Y-2505000D02*
X21775000Y-2655000D01*
D11*
X21635000Y-2655000D02*
X22065000Y-2655000D01*
X21635000Y-2505000D02*
X22065000Y-2505000D01*
X22065000Y-2655000D02*
G75*
G03*
X22065000Y-2505000I0J75000D01*
G01*
X21635000Y-2505000D02*
G75*
G03*
X21635000Y-2655000I0J-75000D01*
G01*
D12*
X21775000Y-6845000D02*
X21925000Y-6995000D01*
X21925000Y-6845000D02*
X21775000Y-6995000D01*
D11*
X21635000Y-6995000D02*
X22065000Y-6995000D01*
X21635000Y-6845000D02*
X22065000Y-6845000D01*
X22065000Y-6995000D02*
G75*
G03*
X22065000Y-6845000I0J75000D01*
G01*
X21635000Y-6845000D02*
G75*
G03*
X21635000Y-6995000I0J-75000D01*
G01*
D12*
X21775000Y-8205000D02*
X21925000Y-8355000D01*
X21925000Y-8205000D02*
X21775000Y-8355000D01*
D11*
X21635000Y-8355000D02*
X22065000Y-8355000D01*
X21635000Y-8205000D02*
X22065000Y-8205000D01*
X22065000Y-8355000D02*
G75*
G03*
X22065000Y-8205000I0J75000D01*
G01*
X21635000Y-8205000D02*
G75*
G03*
X21635000Y-8355000I0J-75000D01*
G01*
D12*
X22250000Y-3045000D02*
X22400000Y-3195000D01*
X22400000Y-3045000D02*
X22250000Y-3195000D01*
D11*
X22110000Y-3195000D02*
X22540000Y-3195000D01*
X22110000Y-3045000D02*
X22540000Y-3045000D01*
X22540000Y-3195000D02*
G75*
G03*
X22540000Y-3045000I0J75000D01*
G01*
X22110000Y-3045000D02*
G75*
G03*
X22110000Y-3195000I0J-75000D01*
G01*
D12*
X22250000Y-4405000D02*
X22400000Y-4555000D01*
X22400000Y-4405000D02*
X22250000Y-4555000D01*
D11*
X22110000Y-4555000D02*
X22540000Y-4555000D01*
X22110000Y-4405000D02*
X22540000Y-4405000D01*
X22540000Y-4555000D02*
G75*
G03*
X22540000Y-4405000I0J75000D01*
G01*
X22110000Y-4405000D02*
G75*
G03*
X22110000Y-4555000I0J-75000D01*
G01*
D12*
X22725000Y755000D02*
X22875000Y605000D01*
X22875000Y755000D02*
X22725000Y605000D01*
D11*
X22585000Y605000D02*
X23015000Y605000D01*
X22585000Y755000D02*
X23015000Y755000D01*
X23015000Y605000D02*
G75*
G03*
X23015000Y755000I0J75000D01*
G01*
X22585000Y755000D02*
G75*
G03*
X22585000Y605000I0J-75000D01*
G01*
D12*
X22725000Y-605000D02*
X22875000Y-755000D01*
X22875000Y-605000D02*
X22725000Y-755000D01*
D11*
X22585000Y-755000D02*
X23015000Y-755000D01*
X22585000Y-605000D02*
X23015000Y-605000D01*
X23015000Y-755000D02*
G75*
G03*
X23015000Y-605000I0J75000D01*
G01*
X22585000Y-605000D02*
G75*
G03*
X22585000Y-755000I0J-75000D01*
G01*
D12*
X23200000Y-4945000D02*
X23350000Y-5095000D01*
X23350000Y-4945000D02*
X23200000Y-5095000D01*
D11*
X23060000Y-5095000D02*
X23490000Y-5095000D01*
X23060000Y-4945000D02*
X23490000Y-4945000D01*
X23490000Y-5095000D02*
G75*
G03*
X23490000Y-4945000I0J75000D01*
G01*
X23060000Y-4945000D02*
G75*
G03*
X23060000Y-5095000I0J-75000D01*
G01*
D12*
X23200000Y-6305000D02*
X23350000Y-6455000D01*
X23350000Y-6305000D02*
X23200000Y-6455000D01*
D11*
X23060000Y-6455000D02*
X23490000Y-6455000D01*
X23060000Y-6305000D02*
X23490000Y-6305000D01*
X23490000Y-6455000D02*
G75*
G03*
X23490000Y-6305000I0J75000D01*
G01*
X23060000Y-6305000D02*
G75*
G03*
X23060000Y-6455000I0J-75000D01*
G01*
D12*
X23675000Y-1145000D02*
X23825000Y-1295000D01*
X23825000Y-1145000D02*
X23675000Y-1295000D01*
D11*
X23535000Y-1295000D02*
X23965000Y-1295000D01*
X23535000Y-1145000D02*
X23965000Y-1145000D01*
X23965000Y-1295000D02*
G75*
G03*
X23965000Y-1145000I0J75000D01*
G01*
X23535000Y-1145000D02*
G75*
G03*
X23535000Y-1295000I0J-75000D01*
G01*
D12*
X23675000Y-2505000D02*
X23825000Y-2655000D01*
X23825000Y-2505000D02*
X23675000Y-2655000D01*
D11*
X23535000Y-2655000D02*
X23965000Y-2655000D01*
X23535000Y-2505000D02*
X23965000Y-2505000D01*
X23965000Y-2655000D02*
G75*
G03*
X23965000Y-2505000I0J75000D01*
G01*
X23535000Y-2505000D02*
G75*
G03*
X23535000Y-2655000I0J-75000D01*
G01*
D12*
X23675000Y-6845000D02*
X23825000Y-6995000D01*
X23825000Y-6845000D02*
X23675000Y-6995000D01*
D11*
X23535000Y-6995000D02*
X23965000Y-6995000D01*
X23535000Y-6845000D02*
X23965000Y-6845000D01*
X23965000Y-6995000D02*
G75*
G03*
X23965000Y-6845000I0J75000D01*
G01*
X23535000Y-6845000D02*
G75*
G03*
X23535000Y-6995000I0J-75000D01*
G01*
D12*
X23675000Y-8205000D02*
X23825000Y-8355000D01*
X23825000Y-8205000D02*
X23675000Y-8355000D01*
D11*
X23535000Y-8355000D02*
X23965000Y-8355000D01*
X23535000Y-8205000D02*
X23965000Y-8205000D01*
X23965000Y-8355000D02*
G75*
G03*
X23965000Y-8205000I0J75000D01*
G01*
X23535000Y-8205000D02*
G75*
G03*
X23535000Y-8355000I0J-75000D01*
G01*
D12*
X24150000Y-3045000D02*
X24300000Y-3195000D01*
X24300000Y-3045000D02*
X24150000Y-3195000D01*
D11*
X24010000Y-3195000D02*
X24440000Y-3195000D01*
X24010000Y-3045000D02*
X24440000Y-3045000D01*
X24440000Y-3195000D02*
G75*
G03*
X24440000Y-3045000I0J75000D01*
G01*
X24010000Y-3045000D02*
G75*
G03*
X24010000Y-3195000I0J-75000D01*
G01*
D12*
X24150000Y-4405000D02*
X24300000Y-4555000D01*
X24300000Y-4405000D02*
X24150000Y-4555000D01*
D11*
X24010000Y-4555000D02*
X24440000Y-4555000D01*
X24010000Y-4405000D02*
X24440000Y-4405000D01*
X24440000Y-4555000D02*
G75*
G03*
X24440000Y-4405000I0J75000D01*
G01*
X24010000Y-4405000D02*
G75*
G03*
X24010000Y-4555000I0J-75000D01*
G01*
D12*
X24625000Y755000D02*
X24775000Y605000D01*
X24775000Y755000D02*
X24625000Y605000D01*
D11*
X24485000Y605000D02*
X24915000Y605000D01*
X24485000Y755000D02*
X24915000Y755000D01*
X24915000Y605000D02*
G75*
G03*
X24915000Y755000I0J75000D01*
G01*
X24485000Y755000D02*
G75*
G03*
X24485000Y605000I0J-75000D01*
G01*
D12*
X24625000Y-605000D02*
X24775000Y-755000D01*
X24775000Y-605000D02*
X24625000Y-755000D01*
D11*
X24485000Y-755000D02*
X24915000Y-755000D01*
X24485000Y-605000D02*
X24915000Y-605000D01*
X24915000Y-755000D02*
G75*
G03*
X24915000Y-605000I0J75000D01*
G01*
X24485000Y-605000D02*
G75*
G03*
X24485000Y-755000I0J-75000D01*
G01*
D12*
X25337500Y-4945000D02*
X25487500Y-5095000D01*
X25487500Y-4945000D02*
X25337500Y-5095000D01*
D11*
X25197500Y-5095000D02*
X25627500Y-5095000D01*
X25197500Y-4945000D02*
X25627500Y-4945000D01*
X25627500Y-5095000D02*
G75*
G03*
X25627500Y-4945000I0J75000D01*
G01*
X25197500Y-4945000D02*
G75*
G03*
X25197500Y-5095000I0J-75000D01*
G01*
D12*
X25337500Y-6305000D02*
X25487500Y-6455000D01*
X25487500Y-6305000D02*
X25337500Y-6455000D01*
D11*
X25197500Y-6455000D02*
X25627500Y-6455000D01*
X25197500Y-6305000D02*
X25627500Y-6305000D01*
X25627500Y-6455000D02*
G75*
G03*
X25627500Y-6305000I0J75000D01*
G01*
X25197500Y-6305000D02*
G75*
G03*
X25197500Y-6455000I0J-75000D01*
G01*
D12*
X25575000Y-1145000D02*
X25725000Y-1295000D01*
X25725000Y-1145000D02*
X25575000Y-1295000D01*
D11*
X25435000Y-1295000D02*
X25865000Y-1295000D01*
X25435000Y-1145000D02*
X25865000Y-1145000D01*
X25865000Y-1295000D02*
G75*
G03*
X25865000Y-1145000I0J75000D01*
G01*
X25435000Y-1145000D02*
G75*
G03*
X25435000Y-1295000I0J-75000D01*
G01*
D12*
X25575000Y-2505000D02*
X25725000Y-2655000D01*
X25725000Y-2505000D02*
X25575000Y-2655000D01*
D11*
X25435000Y-2655000D02*
X25865000Y-2655000D01*
X25435000Y-2505000D02*
X25865000Y-2505000D01*
X25865000Y-2655000D02*
G75*
G03*
X25865000Y-2505000I0J75000D01*
G01*
X25435000Y-2505000D02*
G75*
G03*
X25435000Y-2655000I0J-75000D01*
G01*
D12*
X25575000Y-6845000D02*
X25725000Y-6995000D01*
X25725000Y-6845000D02*
X25575000Y-6995000D01*
D11*
X25435000Y-6995000D02*
X25865000Y-6995000D01*
X25435000Y-6845000D02*
X25865000Y-6845000D01*
X25865000Y-6995000D02*
G75*
G03*
X25865000Y-6845000I0J75000D01*
G01*
X25435000Y-6845000D02*
G75*
G03*
X25435000Y-6995000I0J-75000D01*
G01*
D12*
X25575000Y-8205000D02*
X25725000Y-8355000D01*
X25725000Y-8205000D02*
X25575000Y-8355000D01*
D11*
X25435000Y-8355000D02*
X25865000Y-8355000D01*
X25435000Y-8205000D02*
X25865000Y-8205000D01*
X25865000Y-8355000D02*
G75*
G03*
X25865000Y-8205000I0J75000D01*
G01*
X25435000Y-8205000D02*
G75*
G03*
X25435000Y-8355000I0J-75000D01*
G01*
D12*
X26287500Y-3045000D02*
X26437500Y-3195000D01*
X26437500Y-3045000D02*
X26287500Y-3195000D01*
D11*
X26147500Y-3195000D02*
X26577500Y-3195000D01*
X26147500Y-3045000D02*
X26577500Y-3045000D01*
X26577500Y-3195000D02*
G75*
G03*
X26577500Y-3045000I0J75000D01*
G01*
X26147500Y-3045000D02*
G75*
G03*
X26147500Y-3195000I0J-75000D01*
G01*
D12*
X26287500Y-4405000D02*
X26437500Y-4555000D01*
X26437500Y-4405000D02*
X26287500Y-4555000D01*
D11*
X26147500Y-4555000D02*
X26577500Y-4555000D01*
X26147500Y-4405000D02*
X26577500Y-4405000D01*
X26577500Y-4555000D02*
G75*
G03*
X26577500Y-4405000I0J75000D01*
G01*
X26147500Y-4405000D02*
G75*
G03*
X26147500Y-4555000I0J-75000D01*
G01*
D12*
X26525000Y755000D02*
X26675000Y605000D01*
X26675000Y755000D02*
X26525000Y605000D01*
D11*
X26385000Y605000D02*
X26815000Y605000D01*
X26385000Y755000D02*
X26815000Y755000D01*
X26815000Y605000D02*
G75*
G03*
X26815000Y755000I0J75000D01*
G01*
X26385000Y755000D02*
G75*
G03*
X26385000Y605000I0J-75000D01*
G01*
D12*
X26525000Y-605000D02*
X26675000Y-755000D01*
X26675000Y-605000D02*
X26525000Y-755000D01*
D11*
X26385000Y-755000D02*
X26815000Y-755000D01*
X26385000Y-605000D02*
X26815000Y-605000D01*
X26815000Y-755000D02*
G75*
G03*
X26815000Y-605000I0J75000D01*
G01*
X26385000Y-605000D02*
G75*
G03*
X26385000Y-755000I0J-75000D01*
G01*
D12*
X27475000Y-4945000D02*
X27625000Y-5095000D01*
X27625000Y-4945000D02*
X27475000Y-5095000D01*
D11*
X27335000Y-5095000D02*
X27765000Y-5095000D01*
X27335000Y-4945000D02*
X27765000Y-4945000D01*
X27765000Y-5095000D02*
G75*
G03*
X27765000Y-4945000I0J75000D01*
G01*
X27335000Y-4945000D02*
G75*
G03*
X27335000Y-5095000I0J-75000D01*
G01*
D12*
X27475000Y-6305000D02*
X27625000Y-6455000D01*
X27625000Y-6305000D02*
X27475000Y-6455000D01*
D11*
X27335000Y-6455000D02*
X27765000Y-6455000D01*
X27335000Y-6305000D02*
X27765000Y-6305000D01*
X27765000Y-6455000D02*
G75*
G03*
X27765000Y-6305000I0J75000D01*
G01*
X27335000Y-6305000D02*
G75*
G03*
X27335000Y-6455000I0J-75000D01*
G01*
D12*
X27475000Y-6845000D02*
X27625000Y-6995000D01*
X27625000Y-6845000D02*
X27475000Y-6995000D01*
D11*
X27335000Y-6995000D02*
X27765000Y-6995000D01*
X27335000Y-6845000D02*
X27765000Y-6845000D01*
X27765000Y-6995000D02*
G75*
G03*
X27765000Y-6845000I0J75000D01*
G01*
X27335000Y-6845000D02*
G75*
G03*
X27335000Y-6995000I0J-75000D01*
G01*
D12*
X27475000Y-8205000D02*
X27625000Y-8355000D01*
X27625000Y-8205000D02*
X27475000Y-8355000D01*
D11*
X27335000Y-8355000D02*
X27765000Y-8355000D01*
X27335000Y-8205000D02*
X27765000Y-8205000D01*
X27765000Y-8355000D02*
G75*
G03*
X27765000Y-8205000I0J75000D01*
G01*
X27335000Y-8205000D02*
G75*
G03*
X27335000Y-8355000I0J-75000D01*
G01*
D12*
X27950000Y-1145000D02*
X28100000Y-1295000D01*
X28100000Y-1145000D02*
X27950000Y-1295000D01*
D11*
X27810000Y-1295000D02*
X28240000Y-1295000D01*
X27810000Y-1145000D02*
X28240000Y-1145000D01*
X28240000Y-1295000D02*
G75*
G03*
X28240000Y-1145000I0J75000D01*
G01*
X27810000Y-1145000D02*
G75*
G03*
X27810000Y-1295000I0J-75000D01*
G01*
D12*
X27950000Y-2505000D02*
X28100000Y-2655000D01*
X28100000Y-2505000D02*
X27950000Y-2655000D01*
D11*
X27810000Y-2655000D02*
X28240000Y-2655000D01*
X27810000Y-2505000D02*
X28240000Y-2505000D01*
X28240000Y-2655000D02*
G75*
G03*
X28240000Y-2505000I0J75000D01*
G01*
X27810000Y-2505000D02*
G75*
G03*
X27810000Y-2655000I0J-75000D01*
G01*
D12*
X28425000Y755000D02*
X28575000Y605000D01*
X28575000Y755000D02*
X28425000Y605000D01*
D11*
X28285000Y605000D02*
X28715000Y605000D01*
X28285000Y755000D02*
X28715000Y755000D01*
X28715000Y605000D02*
G75*
G03*
X28715000Y755000I0J75000D01*
G01*
X28285000Y755000D02*
G75*
G03*
X28285000Y605000I0J-75000D01*
G01*
D12*
X28425000Y-605000D02*
X28575000Y-755000D01*
X28575000Y-605000D02*
X28425000Y-755000D01*
D11*
X28285000Y-755000D02*
X28715000Y-755000D01*
X28285000Y-605000D02*
X28715000Y-605000D01*
X28715000Y-755000D02*
G75*
G03*
X28715000Y-605000I0J75000D01*
G01*
X28285000Y-605000D02*
G75*
G03*
X28285000Y-755000I0J-75000D01*
G01*
D12*
X28425000Y-3045000D02*
X28575000Y-3195000D01*
X28575000Y-3045000D02*
X28425000Y-3195000D01*
D11*
X28285000Y-3195000D02*
X28715000Y-3195000D01*
X28285000Y-3045000D02*
X28715000Y-3045000D01*
X28715000Y-3195000D02*
G75*
G03*
X28715000Y-3045000I0J75000D01*
G01*
X28285000Y-3045000D02*
G75*
G03*
X28285000Y-3195000I0J-75000D01*
G01*
D12*
X28425000Y-4405000D02*
X28575000Y-4555000D01*
X28575000Y-4405000D02*
X28425000Y-4555000D01*
D11*
X28285000Y-4555000D02*
X28715000Y-4555000D01*
X28285000Y-4405000D02*
X28715000Y-4405000D01*
X28715000Y-4555000D02*
G75*
G03*
X28715000Y-4405000I0J75000D01*
G01*
X28285000Y-4405000D02*
G75*
G03*
X28285000Y-4555000I0J-75000D01*
G01*
D13*
X1595000Y-3800000D02*
G75*
G03*
X1595000Y-3800000I-170000J0D01*
G01*
X1595000Y-7600000D02*
G75*
G03*
X1595000Y-7600000I-170000J0D01*
G01*
X2070000Y0D02*
G75*
G03*
X2070000Y0I-170000J0D01*
G01*
X2070000Y-5700000D02*
G75*
G03*
X2070000Y-5700000I-170000J0D01*
G01*
X2545000Y-1900000D02*
G75*
G03*
X2545000Y-1900000I-170000J0D01*
G01*
X3495000Y-3800000D02*
G75*
G03*
X3495000Y-3800000I-170000J0D01*
G01*
X3495000Y-7600000D02*
G75*
G03*
X3495000Y-7600000I-170000J0D01*
G01*
X3970000Y0D02*
G75*
G03*
X3970000Y0I-170000J0D01*
G01*
X4445000Y-5700000D02*
G75*
G03*
X4445000Y-5700000I-170000J0D01*
G01*
X4920000Y-1900000D02*
G75*
G03*
X4920000Y-1900000I-170000J0D01*
G01*
X5395000Y-3800000D02*
G75*
G03*
X5395000Y-3800000I-170000J0D01*
G01*
X5395000Y-7600000D02*
G75*
G03*
X5395000Y-7600000I-170000J0D01*
G01*
X5870000Y0D02*
G75*
G03*
X5870000Y0I-170000J0D01*
G01*
X6345000Y-5700000D02*
G75*
G03*
X6345000Y-5700000I-170000J0D01*
G01*
X6820000Y-1900000D02*
G75*
G03*
X6820000Y-1900000I-170000J0D01*
G01*
X7295000Y-3800000D02*
G75*
G03*
X7295000Y-3800000I-170000J0D01*
G01*
X7295000Y-7600000D02*
G75*
G03*
X7295000Y-7600000I-170000J0D01*
G01*
X7770000Y0D02*
G75*
G03*
X7770000Y0I-170000J0D01*
G01*
X8245000Y-5700000D02*
G75*
G03*
X8245000Y-5700000I-170000J0D01*
G01*
X8720000Y-1900000D02*
G75*
G03*
X8720000Y-1900000I-170000J0D01*
G01*
X9195000Y-3800000D02*
G75*
G03*
X9195000Y-3800000I-170000J0D01*
G01*
X9572500Y-8100000D02*
G75*
G03*
X9572500Y-8100000I-170000J0D01*
G01*
X9670000Y0D02*
G75*
G03*
X9670000Y0I-170000J0D01*
G01*
X10145000Y-5700000D02*
G75*
G03*
X10145000Y-5700000I-170000J0D01*
G01*
X10620000Y-1900000D02*
G75*
G03*
X10620000Y-1900000I-170000J0D01*
G01*
X11095000Y-3800000D02*
G75*
G03*
X11095000Y-3800000I-170000J0D01*
G01*
X11470000Y-9250000D02*
G75*
G03*
X11470000Y-9250000I-170000J0D01*
G01*
X11570000Y0D02*
G75*
G03*
X11570000Y0I-170000J0D01*
G01*
X12045000Y-5700000D02*
G75*
G03*
X12045000Y-5700000I-170000J0D01*
G01*
X12520000Y-1900000D02*
G75*
G03*
X12520000Y-1900000I-170000J0D01*
G01*
X12995000Y-3800000D02*
G75*
G03*
X12995000Y-3800000I-170000J0D01*
G01*
X13470000Y0D02*
G75*
G03*
X13470000Y0I-170000J0D01*
G01*
X13945000Y-5700000D02*
G75*
G03*
X13945000Y-5700000I-170000J0D01*
G01*
X13945000Y-7600000D02*
G75*
G03*
X13945000Y-7600000I-170000J0D01*
G01*
X14420000Y-1900000D02*
G75*
G03*
X14420000Y-1900000I-170000J0D01*
G01*
X14895000Y-3800000D02*
G75*
G03*
X14895000Y-3800000I-170000J0D01*
G01*
X15370000Y0D02*
G75*
G03*
X15370000Y0I-170000J0D01*
G01*
X15845000Y-5700000D02*
G75*
G03*
X15845000Y-5700000I-170000J0D01*
G01*
X16320000Y-1900000D02*
G75*
G03*
X16320000Y-1900000I-170000J0D01*
G01*
X16420000Y-9250000D02*
G75*
G03*
X16420000Y-9250000I-170000J0D01*
G01*
X16795000Y-3800000D02*
G75*
G03*
X16795000Y-3800000I-170000J0D01*
G01*
X17270000Y0D02*
G75*
G03*
X17270000Y0I-170000J0D01*
G01*
X17745000Y-5700000D02*
G75*
G03*
X17745000Y-5700000I-170000J0D01*
G01*
X18080000Y-8100000D02*
G75*
G03*
X18080000Y-8100000I-170000J0D01*
G01*
X18220000Y-1900000D02*
G75*
G03*
X18220000Y-1900000I-170000J0D01*
G01*
X18695000Y-3800000D02*
G75*
G03*
X18695000Y-3800000I-170000J0D01*
G01*
X19170000Y0D02*
G75*
G03*
X19170000Y0I-170000J0D01*
G01*
X19645000Y-5700000D02*
G75*
G03*
X19645000Y-5700000I-170000J0D01*
G01*
X20120000Y-1900000D02*
G75*
G03*
X20120000Y-1900000I-170000J0D01*
G01*
X20120000Y-7600000D02*
G75*
G03*
X20120000Y-7600000I-170000J0D01*
G01*
X20595000Y-3800000D02*
G75*
G03*
X20595000Y-3800000I-170000J0D01*
G01*
X21070000Y0D02*
G75*
G03*
X21070000Y0I-170000J0D01*
G01*
X21545000Y-5700000D02*
G75*
G03*
X21545000Y-5700000I-170000J0D01*
G01*
X22020000Y-1900000D02*
G75*
G03*
X22020000Y-1900000I-170000J0D01*
G01*
X22020000Y-7600000D02*
G75*
G03*
X22020000Y-7600000I-170000J0D01*
G01*
X22495000Y-3800000D02*
G75*
G03*
X22495000Y-3800000I-170000J0D01*
G01*
X22970000Y0D02*
G75*
G03*
X22970000Y0I-170000J0D01*
G01*
X23445000Y-5700000D02*
G75*
G03*
X23445000Y-5700000I-170000J0D01*
G01*
X23920000Y-1900000D02*
G75*
G03*
X23920000Y-1900000I-170000J0D01*
G01*
X23920000Y-7600000D02*
G75*
G03*
X23920000Y-7600000I-170000J0D01*
G01*
X24395000Y-3800000D02*
G75*
G03*
X24395000Y-3800000I-170000J0D01*
G01*
X24870000Y0D02*
G75*
G03*
X24870000Y0I-170000J0D01*
G01*
X25582500Y-5700000D02*
G75*
G03*
X25582500Y-5700000I-170000J0D01*
G01*
X25820000Y-1900000D02*
G75*
G03*
X25820000Y-1900000I-170000J0D01*
G01*
X25820000Y-7600000D02*
G75*
G03*
X25820000Y-7600000I-170000J0D01*
G01*
X26532500Y-3800000D02*
G75*
G03*
X26532500Y-3800000I-170000J0D01*
G01*
X26770000Y0D02*
G75*
G03*
X26770000Y0I-170000J0D01*
G01*
X27720000Y-5700000D02*
G75*
G03*
X27720000Y-5700000I-170000J0D01*
G01*
X27720000Y-7600000D02*
G75*
G03*
X27720000Y-7600000I-170000J0D01*
G01*
X28195000Y-1900000D02*
G75*
G03*
X28195000Y-1900000I-170000J0D01*
G01*
X28670000Y0D02*
G75*
G03*
X28670000Y0I-170000J0D01*
G01*
X28670000Y-3800000D02*
G75*
G03*
X28670000Y-3800000I-170000J0D01*
G01*
D14*
X-625000Y-4200000D02*
X-625000Y-4550000D01*
X-800000Y-4375000D02*
X-450000Y-4375000D01*
D11*
X-800000Y-4550000D02*
X-450000Y-4550000D01*
X-800000Y-4200000D02*
X-450000Y-4200000D01*
X-450000Y-4550000D02*
G75*
G03*
X-450000Y-4200000I0J175000D01*
G01*
X-800000Y-4200000D02*
G75*
G03*
X-800000Y-4550000I0J-175000D01*
G01*
X-1422381Y-17565476D02*
X-1422381Y-17365476D01*
X-1374762Y-17365476D01*
X-1346190Y-17375000D01*
X-1327143Y-17394048D01*
X-1317619Y-17413095D01*
X-1308095Y-17451190D01*
X-1308095Y-17479762D01*
X-1317619Y-17517857D01*
X-1327143Y-17536905D01*
X-1346190Y-17555952D01*
X-1374762Y-17565476D01*
X-1422381Y-17565476D01*
X-1222381Y-17565476D02*
X-1222381Y-17432143D01*
X-1222381Y-17470238D02*
X-1212857Y-17451190D01*
X-1203333Y-17441667D01*
X-1184286Y-17432143D01*
X-1165238Y-17432143D01*
X-1098571Y-17565476D02*
X-1098571Y-17432143D01*
X-1098571Y-17365476D02*
X-1108095Y-17375000D01*
X-1098571Y-17384524D01*
X-1089048Y-17375000D01*
X-1098571Y-17365476D01*
X-1098571Y-17384524D01*
X-974762Y-17565476D02*
X-993809Y-17555952D01*
X-1003333Y-17536905D01*
X-1003333Y-17365476D01*
X-870000Y-17565476D02*
X-889048Y-17555952D01*
X-898571Y-17536905D01*
X-898571Y-17365476D01*
X-641429Y-17565476D02*
X-641429Y-17365476D01*
X-574762Y-17508333D01*
X-508095Y-17365476D01*
X-508095Y-17565476D01*
X-327143Y-17565476D02*
X-327143Y-17460714D01*
X-336667Y-17441667D01*
X-355714Y-17432143D01*
X-393809Y-17432143D01*
X-412857Y-17441667D01*
X-327143Y-17555952D02*
X-346190Y-17565476D01*
X-393809Y-17565476D01*
X-412857Y-17555952D01*
X-422381Y-17536905D01*
X-422381Y-17517857D01*
X-412857Y-17498810D01*
X-393809Y-17489286D01*
X-346190Y-17489286D01*
X-327143Y-17479762D01*
X-231905Y-17432143D02*
X-231905Y-17632143D01*
X-231905Y-17441667D02*
X-212857Y-17432143D01*
X-174762Y-17432143D01*
X-155714Y-17441667D01*
X-146190Y-17451190D01*
X-136667Y-17470238D01*
X-136667Y-17527381D01*
X-146190Y-17546429D01*
X-155714Y-17555952D01*
X-174762Y-17565476D01*
X-212857Y-17565476D01*
X-231905Y-17555952D01*
X-50952Y-17546429D02*
X-41429Y-17555952D01*
X-50952Y-17565476D01*
X-60476Y-17555952D01*
X-50952Y-17546429D01*
X-50952Y-17565476D01*
X-50952Y-17441667D02*
X-41429Y-17451190D01*
X-50952Y-17460714D01*
X-60476Y-17451190D01*
X-50952Y-17441667D01*
X-50952Y-17460714D01*
D12*
X-1830000Y-17820000D02*
X-1680000Y-17970000D01*
X-1680000Y-17820000D02*
X-1830000Y-17970000D01*
D11*
X-1317619Y-17985476D02*
X-1431905Y-17985476D01*
X-1374762Y-17985476D02*
X-1374762Y-17785476D01*
X-1393810Y-17814048D01*
X-1412857Y-17833095D01*
X-1431905Y-17842619D01*
X-1231905Y-17966429D02*
X-1222381Y-17975952D01*
X-1231905Y-17985476D01*
X-1241429Y-17975952D01*
X-1231905Y-17966429D01*
X-1231905Y-17985476D01*
X-1041428Y-17785476D02*
X-1136667Y-17785476D01*
X-1146190Y-17880714D01*
X-1136667Y-17871190D01*
X-1117619Y-17861667D01*
X-1070000Y-17861667D01*
X-1050952Y-17871190D01*
X-1041428Y-17880714D01*
X-1031905Y-17899762D01*
X-1031905Y-17947381D01*
X-1041428Y-17966429D01*
X-1050952Y-17975952D01*
X-1070000Y-17985476D01*
X-1117619Y-17985476D01*
X-1136667Y-17975952D01*
X-1146190Y-17966429D01*
X-908095Y-17785476D02*
X-889048Y-17785476D01*
X-870000Y-17795000D01*
X-860476Y-17804524D01*
X-850952Y-17823571D01*
X-841428Y-17861667D01*
X-841428Y-17909286D01*
X-850952Y-17947381D01*
X-860476Y-17966429D01*
X-870000Y-17975952D01*
X-889048Y-17985476D01*
X-908095Y-17985476D01*
X-927143Y-17975952D01*
X-936667Y-17966429D01*
X-946190Y-17947381D01*
X-955714Y-17909286D01*
X-955714Y-17861667D01*
X-946190Y-17823571D01*
X-936667Y-17804524D01*
X-927143Y-17795000D01*
X-908095Y-17785476D01*
X-717619Y-17785476D02*
X-698571Y-17785476D01*
X-679524Y-17795000D01*
X-670000Y-17804524D01*
X-660476Y-17823571D01*
X-650952Y-17861667D01*
X-650952Y-17909286D01*
X-660476Y-17947381D01*
X-670000Y-17966429D01*
X-679524Y-17975952D01*
X-698571Y-17985476D01*
X-717619Y-17985476D01*
X-736667Y-17975952D01*
X-746190Y-17966429D01*
X-755714Y-17947381D01*
X-765238Y-17909286D01*
X-765238Y-17861667D01*
X-755714Y-17823571D01*
X-746190Y-17804524D01*
X-736667Y-17795000D01*
X-717619Y-17785476D01*
X-565238Y-17985476D02*
X-565238Y-17852143D01*
X-565238Y-17871190D02*
X-555714Y-17861667D01*
X-536667Y-17852143D01*
X-508095Y-17852143D01*
X-489048Y-17861667D01*
X-479524Y-17880714D01*
X-479524Y-17985476D01*
X-479524Y-17880714D02*
X-470000Y-17861667D01*
X-450952Y-17852143D01*
X-422381Y-17852143D01*
X-403333Y-17861667D01*
X-393809Y-17880714D01*
X-393809Y-17985476D01*
X-298571Y-17985476D02*
X-298571Y-17852143D01*
X-298571Y-17871190D02*
X-289048Y-17861667D01*
X-270000Y-17852143D01*
X-241428Y-17852143D01*
X-222381Y-17861667D01*
X-212857Y-17880714D01*
X-212857Y-17985476D01*
X-212857Y-17880714D02*
X-203333Y-17861667D01*
X-184286Y-17852143D01*
X-155714Y-17852143D01*
X-136667Y-17861667D01*
X-127143Y-17880714D01*
X-127143Y-17985476D01*
X263333Y-17775952D02*
X91905Y-18033095D01*
X520476Y-17785476D02*
X539524Y-17785476D01*
X558571Y-17795000D01*
X568095Y-17804524D01*
X577619Y-17823571D01*
X587143Y-17861667D01*
X587143Y-17909286D01*
X577619Y-17947381D01*
X568095Y-17966429D01*
X558571Y-17975952D01*
X539524Y-17985476D01*
X520476Y-17985476D01*
X501428Y-17975952D01*
X491905Y-17966429D01*
X482381Y-17947381D01*
X472857Y-17909286D01*
X472857Y-17861667D01*
X482381Y-17823571D01*
X491905Y-17804524D01*
X501428Y-17795000D01*
X520476Y-17785476D01*
X672857Y-17966429D02*
X682381Y-17975952D01*
X672857Y-17985476D01*
X663333Y-17975952D01*
X672857Y-17966429D01*
X672857Y-17985476D01*
X806190Y-17785476D02*
X825238Y-17785476D01*
X844286Y-17795000D01*
X853809Y-17804524D01*
X863333Y-17823571D01*
X872857Y-17861667D01*
X872857Y-17909286D01*
X863333Y-17947381D01*
X853809Y-17966429D01*
X844286Y-17975952D01*
X825238Y-17985476D01*
X806190Y-17985476D01*
X787143Y-17975952D01*
X777619Y-17966429D01*
X768095Y-17947381D01*
X758571Y-17909286D01*
X758571Y-17861667D01*
X768095Y-17823571D01*
X777619Y-17804524D01*
X787143Y-17795000D01*
X806190Y-17785476D01*
X1053810Y-17785476D02*
X958571Y-17785476D01*
X949048Y-17880714D01*
X958571Y-17871190D01*
X977619Y-17861667D01*
X1025238Y-17861667D01*
X1044286Y-17871190D01*
X1053810Y-17880714D01*
X1063333Y-17899762D01*
X1063333Y-17947381D01*
X1053810Y-17966429D01*
X1044286Y-17975952D01*
X1025238Y-17985476D01*
X977619Y-17985476D01*
X958571Y-17975952D01*
X949048Y-17966429D01*
X1158571Y-17985476D02*
X1196667Y-17985476D01*
X1215714Y-17975952D01*
X1225238Y-17966429D01*
X1244286Y-17937857D01*
X1253810Y-17899762D01*
X1253810Y-17823571D01*
X1244286Y-17804524D01*
X1234762Y-17795000D01*
X1215714Y-17785476D01*
X1177619Y-17785476D01*
X1158571Y-17795000D01*
X1149048Y-17804524D01*
X1139524Y-17823571D01*
X1139524Y-17871190D01*
X1149048Y-17890238D01*
X1158571Y-17899762D01*
X1177619Y-17909286D01*
X1215714Y-17909286D01*
X1234762Y-17899762D01*
X1244286Y-17890238D01*
X1253810Y-17871190D01*
X1444286Y-17985476D02*
X1330000Y-17985476D01*
X1387143Y-17985476D02*
X1387143Y-17785476D01*
X1368095Y-17814048D01*
X1349048Y-17833095D01*
X1330000Y-17842619D01*
X1520476Y-17785476D02*
X1520476Y-17823571D01*
X1596667Y-17785476D02*
X1596667Y-17823571D01*
X1891905Y-18061667D02*
X1882381Y-18052143D01*
X1863333Y-18023571D01*
X1853809Y-18004524D01*
X1844286Y-17975952D01*
X1834762Y-17928333D01*
X1834762Y-17890238D01*
X1844286Y-17842619D01*
X1853809Y-17814048D01*
X1863333Y-17795000D01*
X1882381Y-17766429D01*
X1891905Y-17756905D01*
X2006190Y-17785476D02*
X2025238Y-17785476D01*
X2044286Y-17795000D01*
X2053809Y-17804524D01*
X2063333Y-17823571D01*
X2072857Y-17861667D01*
X2072857Y-17909286D01*
X2063333Y-17947381D01*
X2053809Y-17966429D01*
X2044286Y-17975952D01*
X2025238Y-17985476D01*
X2006190Y-17985476D01*
X1987143Y-17975952D01*
X1977619Y-17966429D01*
X1968095Y-17947381D01*
X1958571Y-17909286D01*
X1958571Y-17861667D01*
X1968095Y-17823571D01*
X1977619Y-17804524D01*
X1987143Y-17795000D01*
X2006190Y-17785476D01*
X2310952Y-17985476D02*
X2310952Y-17785476D01*
X2396667Y-17985476D02*
X2396667Y-17880714D01*
X2387143Y-17861667D01*
X2368095Y-17852143D01*
X2339524Y-17852143D01*
X2320476Y-17861667D01*
X2310952Y-17871190D01*
X2520476Y-17985476D02*
X2501429Y-17975952D01*
X2491905Y-17966429D01*
X2482381Y-17947381D01*
X2482381Y-17890238D01*
X2491905Y-17871190D01*
X2501429Y-17861667D01*
X2520476Y-17852143D01*
X2549048Y-17852143D01*
X2568095Y-17861667D01*
X2577619Y-17871190D01*
X2587143Y-17890238D01*
X2587143Y-17947381D01*
X2577619Y-17966429D01*
X2568095Y-17975952D01*
X2549048Y-17985476D01*
X2520476Y-17985476D01*
X2701429Y-17985476D02*
X2682381Y-17975952D01*
X2672857Y-17956905D01*
X2672857Y-17785476D01*
X2853809Y-17975952D02*
X2834762Y-17985476D01*
X2796667Y-17985476D01*
X2777619Y-17975952D01*
X2768095Y-17956905D01*
X2768095Y-17880714D01*
X2777619Y-17861667D01*
X2796667Y-17852143D01*
X2834762Y-17852143D01*
X2853809Y-17861667D01*
X2863333Y-17880714D01*
X2863333Y-17899762D01*
X2768095Y-17918810D01*
X2939524Y-17975952D02*
X2958571Y-17985476D01*
X2996667Y-17985476D01*
X3015714Y-17975952D01*
X3025238Y-17956905D01*
X3025238Y-17947381D01*
X3015714Y-17928333D01*
X2996667Y-17918810D01*
X2968095Y-17918810D01*
X2949048Y-17909286D01*
X2939524Y-17890238D01*
X2939524Y-17880714D01*
X2949048Y-17861667D01*
X2968095Y-17852143D01*
X2996667Y-17852143D01*
X3015714Y-17861667D01*
X3263333Y-17909286D02*
X3415714Y-17909286D01*
X3339524Y-17985476D02*
X3339524Y-17833095D01*
X3768095Y-17985476D02*
X3653809Y-17985476D01*
X3710952Y-17985476D02*
X3710952Y-17785476D01*
X3691905Y-17814048D01*
X3672857Y-17833095D01*
X3653809Y-17842619D01*
X3939524Y-17852143D02*
X3939524Y-17985476D01*
X3891905Y-17775952D02*
X3844286Y-17918810D01*
X3968095Y-17918810D01*
X4130000Y-17852143D02*
X4130000Y-17985476D01*
X4082381Y-17775952D02*
X4034762Y-17918810D01*
X4158571Y-17918810D01*
X4377619Y-17975952D02*
X4396667Y-17985476D01*
X4434762Y-17985476D01*
X4453810Y-17975952D01*
X4463333Y-17956905D01*
X4463333Y-17947381D01*
X4453810Y-17928333D01*
X4434762Y-17918810D01*
X4406190Y-17918810D01*
X4387143Y-17909286D01*
X4377619Y-17890238D01*
X4377619Y-17880714D01*
X4387143Y-17861667D01*
X4406190Y-17852143D01*
X4434762Y-17852143D01*
X4453810Y-17861667D01*
X4577619Y-17985476D02*
X4558571Y-17975952D01*
X4549048Y-17956905D01*
X4549048Y-17785476D01*
X4682381Y-17985476D02*
X4663333Y-17975952D01*
X4653810Y-17966429D01*
X4644286Y-17947381D01*
X4644286Y-17890238D01*
X4653810Y-17871190D01*
X4663333Y-17861667D01*
X4682381Y-17852143D01*
X4710952Y-17852143D01*
X4730000Y-17861667D01*
X4739524Y-17871190D01*
X4749048Y-17890238D01*
X4749048Y-17947381D01*
X4739524Y-17966429D01*
X4730000Y-17975952D01*
X4710952Y-17985476D01*
X4682381Y-17985476D01*
X4806190Y-17852143D02*
X4882381Y-17852143D01*
X4834762Y-17785476D02*
X4834762Y-17956905D01*
X4844286Y-17975952D01*
X4863333Y-17985476D01*
X4882381Y-17985476D01*
X4939524Y-17975952D02*
X4958571Y-17985476D01*
X4996667Y-17985476D01*
X5015714Y-17975952D01*
X5025238Y-17956905D01*
X5025238Y-17947381D01*
X5015714Y-17928333D01*
X4996667Y-17918810D01*
X4968095Y-17918810D01*
X4949048Y-17909286D01*
X4939524Y-17890238D01*
X4939524Y-17880714D01*
X4949048Y-17861667D01*
X4968095Y-17852143D01*
X4996667Y-17852143D01*
X5015714Y-17861667D01*
X5091905Y-18061667D02*
X5101429Y-18052143D01*
X5120476Y-18023571D01*
X5130000Y-18004524D01*
X5139524Y-17975952D01*
X5149048Y-17928333D01*
X5149048Y-17890238D01*
X5139524Y-17842619D01*
X5130000Y-17814048D01*
X5120476Y-17795000D01*
X5101429Y-17766429D01*
X5091905Y-17756905D01*
X5453810Y-18061667D02*
X5444286Y-18052143D01*
X5425238Y-18023571D01*
X5415714Y-18004524D01*
X5406190Y-17975952D01*
X5396667Y-17928333D01*
X5396667Y-17890238D01*
X5406190Y-17842619D01*
X5415714Y-17814048D01*
X5425238Y-17795000D01*
X5444286Y-17766429D01*
X5453810Y-17756905D01*
X5530000Y-17852143D02*
X5530000Y-17985476D01*
X5530000Y-17871190D02*
X5539524Y-17861667D01*
X5558571Y-17852143D01*
X5587143Y-17852143D01*
X5606190Y-17861667D01*
X5615714Y-17880714D01*
X5615714Y-17985476D01*
X5739524Y-17985476D02*
X5720476Y-17975952D01*
X5710952Y-17966429D01*
X5701428Y-17947381D01*
X5701428Y-17890238D01*
X5710952Y-17871190D01*
X5720476Y-17861667D01*
X5739524Y-17852143D01*
X5768095Y-17852143D01*
X5787143Y-17861667D01*
X5796667Y-17871190D01*
X5806190Y-17890238D01*
X5806190Y-17947381D01*
X5796667Y-17966429D01*
X5787143Y-17975952D01*
X5768095Y-17985476D01*
X5739524Y-17985476D01*
X5863333Y-17852143D02*
X5939524Y-17852143D01*
X5891905Y-17785476D02*
X5891905Y-17956905D01*
X5901428Y-17975952D01*
X5920476Y-17985476D01*
X5939524Y-17985476D01*
X6158571Y-17852143D02*
X6158571Y-18052143D01*
X6158571Y-17861667D02*
X6177619Y-17852143D01*
X6215714Y-17852143D01*
X6234762Y-17861667D01*
X6244286Y-17871190D01*
X6253809Y-17890238D01*
X6253809Y-17947381D01*
X6244286Y-17966429D01*
X6234762Y-17975952D01*
X6215714Y-17985476D01*
X6177619Y-17985476D01*
X6158571Y-17975952D01*
X6368095Y-17985476D02*
X6349048Y-17975952D01*
X6339524Y-17956905D01*
X6339524Y-17785476D01*
X6530000Y-17985476D02*
X6530000Y-17880714D01*
X6520476Y-17861667D01*
X6501428Y-17852143D01*
X6463333Y-17852143D01*
X6444286Y-17861667D01*
X6530000Y-17975952D02*
X6510952Y-17985476D01*
X6463333Y-17985476D01*
X6444286Y-17975952D01*
X6434762Y-17956905D01*
X6434762Y-17937857D01*
X6444286Y-17918810D01*
X6463333Y-17909286D01*
X6510952Y-17909286D01*
X6530000Y-17899762D01*
X6596667Y-17852143D02*
X6672857Y-17852143D01*
X6625238Y-17785476D02*
X6625238Y-17956905D01*
X6634762Y-17975952D01*
X6653809Y-17985476D01*
X6672857Y-17985476D01*
X6815714Y-17975952D02*
X6796667Y-17985476D01*
X6758571Y-17985476D01*
X6739524Y-17975952D01*
X6730000Y-17956905D01*
X6730000Y-17880714D01*
X6739524Y-17861667D01*
X6758571Y-17852143D01*
X6796667Y-17852143D01*
X6815714Y-17861667D01*
X6825238Y-17880714D01*
X6825238Y-17899762D01*
X6730000Y-17918810D01*
X6996667Y-17985476D02*
X6996667Y-17785476D01*
X6996667Y-17975952D02*
X6977619Y-17985476D01*
X6939524Y-17985476D01*
X6920476Y-17975952D01*
X6910952Y-17966429D01*
X6901428Y-17947381D01*
X6901428Y-17890238D01*
X6910952Y-17871190D01*
X6920476Y-17861667D01*
X6939524Y-17852143D01*
X6977619Y-17852143D01*
X6996667Y-17861667D01*
X7072857Y-18061667D02*
X7082381Y-18052143D01*
X7101428Y-18023571D01*
X7110952Y-18004524D01*
X7120476Y-17975952D01*
X7130000Y-17928333D01*
X7130000Y-17890238D01*
X7120476Y-17842619D01*
X7110952Y-17814048D01*
X7101428Y-17795000D01*
X7082381Y-17766429D01*
X7072857Y-17756905D01*
X-1680000Y-18165000D02*
G75*
G03*
X-1680000Y-18165000I-100000J0D01*
G01*
X-1441428Y-18055476D02*
X-1317619Y-18055476D01*
X-1384286Y-18131667D01*
X-1355714Y-18131667D01*
X-1336667Y-18141190D01*
X-1327143Y-18150714D01*
X-1317619Y-18169762D01*
X-1317619Y-18217381D01*
X-1327143Y-18236429D01*
X-1336667Y-18245952D01*
X-1355714Y-18255476D01*
X-1412857Y-18255476D01*
X-1431905Y-18245952D01*
X-1441428Y-18236429D01*
X-1231905Y-18236429D02*
X-1222381Y-18245952D01*
X-1231905Y-18255476D01*
X-1241429Y-18245952D01*
X-1231905Y-18236429D01*
X-1231905Y-18255476D01*
X-1050952Y-18122143D02*
X-1050952Y-18255476D01*
X-1098571Y-18045952D02*
X-1146190Y-18188810D01*
X-1022381Y-18188810D01*
X-908095Y-18055476D02*
X-889048Y-18055476D01*
X-870000Y-18065000D01*
X-860476Y-18074524D01*
X-850952Y-18093571D01*
X-841428Y-18131667D01*
X-841428Y-18179286D01*
X-850952Y-18217381D01*
X-860476Y-18236429D01*
X-870000Y-18245952D01*
X-889048Y-18255476D01*
X-908095Y-18255476D01*
X-927143Y-18245952D01*
X-936667Y-18236429D01*
X-946190Y-18217381D01*
X-955714Y-18179286D01*
X-955714Y-18131667D01*
X-946190Y-18093571D01*
X-936667Y-18074524D01*
X-927143Y-18065000D01*
X-908095Y-18055476D01*
X-717619Y-18055476D02*
X-698571Y-18055476D01*
X-679524Y-18065000D01*
X-670000Y-18074524D01*
X-660476Y-18093571D01*
X-650952Y-18131667D01*
X-650952Y-18179286D01*
X-660476Y-18217381D01*
X-670000Y-18236429D01*
X-679524Y-18245952D01*
X-698571Y-18255476D01*
X-717619Y-18255476D01*
X-736667Y-18245952D01*
X-746190Y-18236429D01*
X-755714Y-18217381D01*
X-765238Y-18179286D01*
X-765238Y-18131667D01*
X-755714Y-18093571D01*
X-746190Y-18074524D01*
X-736667Y-18065000D01*
X-717619Y-18055476D01*
X-565238Y-18255476D02*
X-565238Y-18122143D01*
X-565238Y-18141190D02*
X-555714Y-18131667D01*
X-536667Y-18122143D01*
X-508095Y-18122143D01*
X-489048Y-18131667D01*
X-479524Y-18150714D01*
X-479524Y-18255476D01*
X-479524Y-18150714D02*
X-470000Y-18131667D01*
X-450952Y-18122143D01*
X-422381Y-18122143D01*
X-403333Y-18131667D01*
X-393809Y-18150714D01*
X-393809Y-18255476D01*
X-298571Y-18255476D02*
X-298571Y-18122143D01*
X-298571Y-18141190D02*
X-289048Y-18131667D01*
X-270000Y-18122143D01*
X-241428Y-18122143D01*
X-222381Y-18131667D01*
X-212857Y-18150714D01*
X-212857Y-18255476D01*
X-212857Y-18150714D02*
X-203333Y-18131667D01*
X-184286Y-18122143D01*
X-155714Y-18122143D01*
X-136667Y-18131667D01*
X-127143Y-18150714D01*
X-127143Y-18255476D01*
X263333Y-18045952D02*
X91905Y-18303095D01*
X520476Y-18055476D02*
X539524Y-18055476D01*
X558571Y-18065000D01*
X568095Y-18074524D01*
X577619Y-18093571D01*
X587143Y-18131667D01*
X587143Y-18179286D01*
X577619Y-18217381D01*
X568095Y-18236429D01*
X558571Y-18245952D01*
X539524Y-18255476D01*
X520476Y-18255476D01*
X501428Y-18245952D01*
X491905Y-18236429D01*
X482381Y-18217381D01*
X472857Y-18179286D01*
X472857Y-18131667D01*
X482381Y-18093571D01*
X491905Y-18074524D01*
X501428Y-18065000D01*
X520476Y-18055476D01*
X672857Y-18236429D02*
X682381Y-18245952D01*
X672857Y-18255476D01*
X663333Y-18245952D01*
X672857Y-18236429D01*
X672857Y-18255476D01*
X872857Y-18255476D02*
X758571Y-18255476D01*
X815714Y-18255476D02*
X815714Y-18055476D01*
X796667Y-18084048D01*
X777619Y-18103095D01*
X758571Y-18112619D01*
X939524Y-18055476D02*
X1063333Y-18055476D01*
X996667Y-18131667D01*
X1025238Y-18131667D01*
X1044286Y-18141190D01*
X1053810Y-18150714D01*
X1063333Y-18169762D01*
X1063333Y-18217381D01*
X1053810Y-18236429D01*
X1044286Y-18245952D01*
X1025238Y-18255476D01*
X968095Y-18255476D01*
X949048Y-18245952D01*
X939524Y-18236429D01*
X1130000Y-18055476D02*
X1253810Y-18055476D01*
X1187143Y-18131667D01*
X1215714Y-18131667D01*
X1234762Y-18141190D01*
X1244286Y-18150714D01*
X1253810Y-18169762D01*
X1253810Y-18217381D01*
X1244286Y-18236429D01*
X1234762Y-18245952D01*
X1215714Y-18255476D01*
X1158571Y-18255476D01*
X1139524Y-18245952D01*
X1130000Y-18236429D01*
X1349048Y-18255476D02*
X1387143Y-18255476D01*
X1406190Y-18245952D01*
X1415714Y-18236429D01*
X1434762Y-18207857D01*
X1444286Y-18169762D01*
X1444286Y-18093571D01*
X1434762Y-18074524D01*
X1425238Y-18065000D01*
X1406190Y-18055476D01*
X1368095Y-18055476D01*
X1349048Y-18065000D01*
X1339524Y-18074524D01*
X1330000Y-18093571D01*
X1330000Y-18141190D01*
X1339524Y-18160238D01*
X1349048Y-18169762D01*
X1368095Y-18179286D01*
X1406190Y-18179286D01*
X1425238Y-18169762D01*
X1434762Y-18160238D01*
X1444286Y-18141190D01*
X1520476Y-18055476D02*
X1520476Y-18093571D01*
X1596667Y-18055476D02*
X1596667Y-18093571D01*
X1891905Y-18331667D02*
X1882381Y-18322143D01*
X1863333Y-18293571D01*
X1853809Y-18274524D01*
X1844286Y-18245952D01*
X1834762Y-18198333D01*
X1834762Y-18160238D01*
X1844286Y-18112619D01*
X1853809Y-18084048D01*
X1863333Y-18065000D01*
X1882381Y-18036429D01*
X1891905Y-18026905D01*
X1949048Y-18055476D02*
X2082381Y-18055476D01*
X1996667Y-18255476D01*
X2149048Y-18074524D02*
X2158571Y-18065000D01*
X2177619Y-18055476D01*
X2225238Y-18055476D01*
X2244286Y-18065000D01*
X2253810Y-18074524D01*
X2263333Y-18093571D01*
X2263333Y-18112619D01*
X2253810Y-18141190D01*
X2139524Y-18255476D01*
X2263333Y-18255476D01*
X2501429Y-18255476D02*
X2501429Y-18055476D01*
X2587143Y-18255476D02*
X2587143Y-18150714D01*
X2577619Y-18131667D01*
X2558571Y-18122143D01*
X2530000Y-18122143D01*
X2510952Y-18131667D01*
X2501429Y-18141190D01*
X2710952Y-18255476D02*
X2691905Y-18245952D01*
X2682381Y-18236429D01*
X2672857Y-18217381D01*
X2672857Y-18160238D01*
X2682381Y-18141190D01*
X2691905Y-18131667D01*
X2710952Y-18122143D01*
X2739524Y-18122143D01*
X2758571Y-18131667D01*
X2768095Y-18141190D01*
X2777619Y-18160238D01*
X2777619Y-18217381D01*
X2768095Y-18236429D01*
X2758571Y-18245952D01*
X2739524Y-18255476D01*
X2710952Y-18255476D01*
X2891905Y-18255476D02*
X2872857Y-18245952D01*
X2863333Y-18226905D01*
X2863333Y-18055476D01*
X3044286Y-18245952D02*
X3025238Y-18255476D01*
X2987143Y-18255476D01*
X2968095Y-18245952D01*
X2958571Y-18226905D01*
X2958571Y-18150714D01*
X2968095Y-18131667D01*
X2987143Y-18122143D01*
X3025238Y-18122143D01*
X3044286Y-18131667D01*
X3053809Y-18150714D01*
X3053809Y-18169762D01*
X2958571Y-18188810D01*
X3130000Y-18245952D02*
X3149048Y-18255476D01*
X3187143Y-18255476D01*
X3206190Y-18245952D01*
X3215714Y-18226905D01*
X3215714Y-18217381D01*
X3206190Y-18198333D01*
X3187143Y-18188810D01*
X3158571Y-18188810D01*
X3139524Y-18179286D01*
X3130000Y-18160238D01*
X3130000Y-18150714D01*
X3139524Y-18131667D01*
X3158571Y-18122143D01*
X3187143Y-18122143D01*
X3206190Y-18131667D01*
X3282381Y-18331667D02*
X3291905Y-18322143D01*
X3310952Y-18293571D01*
X3320476Y-18274524D01*
X3330000Y-18245952D01*
X3339524Y-18198333D01*
X3339524Y-18160238D01*
X3330000Y-18112619D01*
X3320476Y-18084048D01*
X3310952Y-18065000D01*
X3291905Y-18036429D01*
X3282381Y-18026905D01*
X3644286Y-18331667D02*
X3634762Y-18322143D01*
X3615714Y-18293571D01*
X3606190Y-18274524D01*
X3596667Y-18245952D01*
X3587143Y-18198333D01*
X3587143Y-18160238D01*
X3596667Y-18112619D01*
X3606190Y-18084048D01*
X3615714Y-18065000D01*
X3634762Y-18036429D01*
X3644286Y-18026905D01*
X3720476Y-18122143D02*
X3720476Y-18255476D01*
X3720476Y-18141190D02*
X3730000Y-18131667D01*
X3749048Y-18122143D01*
X3777619Y-18122143D01*
X3796667Y-18131667D01*
X3806190Y-18150714D01*
X3806190Y-18255476D01*
X3930000Y-18255476D02*
X3910952Y-18245952D01*
X3901428Y-18236429D01*
X3891905Y-18217381D01*
X3891905Y-18160238D01*
X3901428Y-18141190D01*
X3910952Y-18131667D01*
X3930000Y-18122143D01*
X3958571Y-18122143D01*
X3977619Y-18131667D01*
X3987143Y-18141190D01*
X3996667Y-18160238D01*
X3996667Y-18217381D01*
X3987143Y-18236429D01*
X3977619Y-18245952D01*
X3958571Y-18255476D01*
X3930000Y-18255476D01*
X4053809Y-18122143D02*
X4130000Y-18122143D01*
X4082381Y-18055476D02*
X4082381Y-18226905D01*
X4091905Y-18245952D01*
X4110952Y-18255476D01*
X4130000Y-18255476D01*
X4349048Y-18122143D02*
X4349048Y-18322143D01*
X4349048Y-18131667D02*
X4368095Y-18122143D01*
X4406190Y-18122143D01*
X4425238Y-18131667D01*
X4434762Y-18141190D01*
X4444286Y-18160238D01*
X4444286Y-18217381D01*
X4434762Y-18236429D01*
X4425238Y-18245952D01*
X4406190Y-18255476D01*
X4368095Y-18255476D01*
X4349048Y-18245952D01*
X4558571Y-18255476D02*
X4539524Y-18245952D01*
X4530000Y-18226905D01*
X4530000Y-18055476D01*
X4720476Y-18255476D02*
X4720476Y-18150714D01*
X4710952Y-18131667D01*
X4691905Y-18122143D01*
X4653810Y-18122143D01*
X4634762Y-18131667D01*
X4720476Y-18245952D02*
X4701429Y-18255476D01*
X4653810Y-18255476D01*
X4634762Y-18245952D01*
X4625238Y-18226905D01*
X4625238Y-18207857D01*
X4634762Y-18188810D01*
X4653810Y-18179286D01*
X4701429Y-18179286D01*
X4720476Y-18169762D01*
X4787143Y-18122143D02*
X4863333Y-18122143D01*
X4815714Y-18055476D02*
X4815714Y-18226905D01*
X4825238Y-18245952D01*
X4844286Y-18255476D01*
X4863333Y-18255476D01*
X5006190Y-18245952D02*
X4987143Y-18255476D01*
X4949048Y-18255476D01*
X4930000Y-18245952D01*
X4920476Y-18226905D01*
X4920476Y-18150714D01*
X4930000Y-18131667D01*
X4949048Y-18122143D01*
X4987143Y-18122143D01*
X5006190Y-18131667D01*
X5015714Y-18150714D01*
X5015714Y-18169762D01*
X4920476Y-18188810D01*
X5187143Y-18255476D02*
X5187143Y-18055476D01*
X5187143Y-18245952D02*
X5168095Y-18255476D01*
X5130000Y-18255476D01*
X5110952Y-18245952D01*
X5101429Y-18236429D01*
X5091905Y-18217381D01*
X5091905Y-18160238D01*
X5101429Y-18141190D01*
X5110952Y-18131667D01*
X5130000Y-18122143D01*
X5168095Y-18122143D01*
X5187143Y-18131667D01*
X5263333Y-18331667D02*
X5272857Y-18322143D01*
X5291905Y-18293571D01*
X5301429Y-18274524D01*
X5310952Y-18245952D01*
X5320476Y-18198333D01*
X5320476Y-18160238D01*
X5310952Y-18112619D01*
X5301429Y-18084048D01*
X5291905Y-18065000D01*
X5272857Y-18036429D01*
X5263333Y-18026905D01*
X-1780000Y-18385000D02*
X-1780000Y-18585000D01*
X-1880000Y-18485000D02*
X-1680000Y-18485000D01*
X-1441428Y-18375476D02*
X-1317619Y-18375476D01*
X-1384286Y-18451667D01*
X-1355714Y-18451667D01*
X-1336667Y-18461190D01*
X-1327143Y-18470714D01*
X-1317619Y-18489762D01*
X-1317619Y-18537381D01*
X-1327143Y-18556429D01*
X-1336667Y-18565952D01*
X-1355714Y-18575476D01*
X-1412857Y-18575476D01*
X-1431905Y-18565952D01*
X-1441428Y-18556429D01*
X-1231905Y-18556429D02*
X-1222381Y-18565952D01*
X-1231905Y-18575476D01*
X-1241429Y-18565952D01*
X-1231905Y-18556429D01*
X-1231905Y-18575476D01*
X-1041428Y-18375476D02*
X-1136667Y-18375476D01*
X-1146190Y-18470714D01*
X-1136667Y-18461190D01*
X-1117619Y-18451667D01*
X-1070000Y-18451667D01*
X-1050952Y-18461190D01*
X-1041428Y-18470714D01*
X-1031905Y-18489762D01*
X-1031905Y-18537381D01*
X-1041428Y-18556429D01*
X-1050952Y-18565952D01*
X-1070000Y-18575476D01*
X-1117619Y-18575476D01*
X-1136667Y-18565952D01*
X-1146190Y-18556429D01*
X-908095Y-18375476D02*
X-889048Y-18375476D01*
X-870000Y-18385000D01*
X-860476Y-18394524D01*
X-850952Y-18413571D01*
X-841428Y-18451667D01*
X-841428Y-18499286D01*
X-850952Y-18537381D01*
X-860476Y-18556429D01*
X-870000Y-18565952D01*
X-889048Y-18575476D01*
X-908095Y-18575476D01*
X-927143Y-18565952D01*
X-936667Y-18556429D01*
X-946190Y-18537381D01*
X-955714Y-18499286D01*
X-955714Y-18451667D01*
X-946190Y-18413571D01*
X-936667Y-18394524D01*
X-927143Y-18385000D01*
X-908095Y-18375476D01*
X-717619Y-18375476D02*
X-698571Y-18375476D01*
X-679524Y-18385000D01*
X-670000Y-18394524D01*
X-660476Y-18413571D01*
X-650952Y-18451667D01*
X-650952Y-18499286D01*
X-660476Y-18537381D01*
X-670000Y-18556429D01*
X-679524Y-18565952D01*
X-698571Y-18575476D01*
X-717619Y-18575476D01*
X-736667Y-18565952D01*
X-746190Y-18556429D01*
X-755714Y-18537381D01*
X-765238Y-18499286D01*
X-765238Y-18451667D01*
X-755714Y-18413571D01*
X-746190Y-18394524D01*
X-736667Y-18385000D01*
X-717619Y-18375476D01*
X-565238Y-18575476D02*
X-565238Y-18442143D01*
X-565238Y-18461190D02*
X-555714Y-18451667D01*
X-536667Y-18442143D01*
X-508095Y-18442143D01*
X-489048Y-18451667D01*
X-479524Y-18470714D01*
X-479524Y-18575476D01*
X-479524Y-18470714D02*
X-470000Y-18451667D01*
X-450952Y-18442143D01*
X-422381Y-18442143D01*
X-403333Y-18451667D01*
X-393809Y-18470714D01*
X-393809Y-18575476D01*
X-298571Y-18575476D02*
X-298571Y-18442143D01*
X-298571Y-18461190D02*
X-289048Y-18451667D01*
X-270000Y-18442143D01*
X-241428Y-18442143D01*
X-222381Y-18451667D01*
X-212857Y-18470714D01*
X-212857Y-18575476D01*
X-212857Y-18470714D02*
X-203333Y-18451667D01*
X-184286Y-18442143D01*
X-155714Y-18442143D01*
X-136667Y-18451667D01*
X-127143Y-18470714D01*
X-127143Y-18575476D01*
X263333Y-18365952D02*
X91905Y-18623095D01*
X520476Y-18375476D02*
X539524Y-18375476D01*
X558571Y-18385000D01*
X568095Y-18394524D01*
X577619Y-18413571D01*
X587143Y-18451667D01*
X587143Y-18499286D01*
X577619Y-18537381D01*
X568095Y-18556429D01*
X558571Y-18565952D01*
X539524Y-18575476D01*
X520476Y-18575476D01*
X501428Y-18565952D01*
X491905Y-18556429D01*
X482381Y-18537381D01*
X472857Y-18499286D01*
X472857Y-18451667D01*
X482381Y-18413571D01*
X491905Y-18394524D01*
X501428Y-18385000D01*
X520476Y-18375476D01*
X672857Y-18556429D02*
X682381Y-18565952D01*
X672857Y-18575476D01*
X663333Y-18565952D01*
X672857Y-18556429D01*
X672857Y-18575476D01*
X872857Y-18575476D02*
X758571Y-18575476D01*
X815714Y-18575476D02*
X815714Y-18375476D01*
X796667Y-18404048D01*
X777619Y-18423095D01*
X758571Y-18432619D01*
X939524Y-18375476D02*
X1063333Y-18375476D01*
X996667Y-18451667D01*
X1025238Y-18451667D01*
X1044286Y-18461190D01*
X1053810Y-18470714D01*
X1063333Y-18489762D01*
X1063333Y-18537381D01*
X1053810Y-18556429D01*
X1044286Y-18565952D01*
X1025238Y-18575476D01*
X968095Y-18575476D01*
X949048Y-18565952D01*
X939524Y-18556429D01*
X1130000Y-18375476D02*
X1263333Y-18375476D01*
X1177619Y-18575476D01*
X1368095Y-18461190D02*
X1349048Y-18451667D01*
X1339524Y-18442143D01*
X1330000Y-18423095D01*
X1330000Y-18413571D01*
X1339524Y-18394524D01*
X1349048Y-18385000D01*
X1368095Y-18375476D01*
X1406190Y-18375476D01*
X1425238Y-18385000D01*
X1434762Y-18394524D01*
X1444286Y-18413571D01*
X1444286Y-18423095D01*
X1434762Y-18442143D01*
X1425238Y-18451667D01*
X1406190Y-18461190D01*
X1368095Y-18461190D01*
X1349048Y-18470714D01*
X1339524Y-18480238D01*
X1330000Y-18499286D01*
X1330000Y-18537381D01*
X1339524Y-18556429D01*
X1349048Y-18565952D01*
X1368095Y-18575476D01*
X1406190Y-18575476D01*
X1425238Y-18565952D01*
X1434762Y-18556429D01*
X1444286Y-18537381D01*
X1444286Y-18499286D01*
X1434762Y-18480238D01*
X1425238Y-18470714D01*
X1406190Y-18461190D01*
X1520476Y-18375476D02*
X1520476Y-18413571D01*
X1596667Y-18375476D02*
X1596667Y-18413571D01*
X1891905Y-18651667D02*
X1882381Y-18642143D01*
X1863333Y-18613571D01*
X1853809Y-18594524D01*
X1844286Y-18565952D01*
X1834762Y-18518333D01*
X1834762Y-18480238D01*
X1844286Y-18432619D01*
X1853809Y-18404048D01*
X1863333Y-18385000D01*
X1882381Y-18356429D01*
X1891905Y-18346905D01*
X2072857Y-18575476D02*
X1958571Y-18575476D01*
X2015714Y-18575476D02*
X2015714Y-18375476D01*
X1996667Y-18404048D01*
X1977619Y-18423095D01*
X1958571Y-18432619D01*
X2301429Y-18565952D02*
X2320476Y-18575476D01*
X2358571Y-18575476D01*
X2377619Y-18565952D01*
X2387143Y-18546905D01*
X2387143Y-18537381D01*
X2377619Y-18518333D01*
X2358571Y-18508810D01*
X2330000Y-18508810D01*
X2310952Y-18499286D01*
X2301429Y-18480238D01*
X2301429Y-18470714D01*
X2310952Y-18451667D01*
X2330000Y-18442143D01*
X2358571Y-18442143D01*
X2377619Y-18451667D01*
X2501429Y-18575476D02*
X2482381Y-18565952D01*
X2472857Y-18546905D01*
X2472857Y-18375476D01*
X2606190Y-18575476D02*
X2587143Y-18565952D01*
X2577619Y-18556429D01*
X2568095Y-18537381D01*
X2568095Y-18480238D01*
X2577619Y-18461190D01*
X2587143Y-18451667D01*
X2606190Y-18442143D01*
X2634762Y-18442143D01*
X2653810Y-18451667D01*
X2663333Y-18461190D01*
X2672857Y-18480238D01*
X2672857Y-18537381D01*
X2663333Y-18556429D01*
X2653810Y-18565952D01*
X2634762Y-18575476D01*
X2606190Y-18575476D01*
X2730000Y-18442143D02*
X2806190Y-18442143D01*
X2758571Y-18375476D02*
X2758571Y-18546905D01*
X2768095Y-18565952D01*
X2787143Y-18575476D01*
X2806190Y-18575476D01*
X2853809Y-18651667D02*
X2863333Y-18642143D01*
X2882381Y-18613571D01*
X2891905Y-18594524D01*
X2901428Y-18565952D01*
X2910952Y-18518333D01*
X2910952Y-18480238D01*
X2901428Y-18432619D01*
X2891905Y-18404048D01*
X2882381Y-18385000D01*
X2863333Y-18356429D01*
X2853809Y-18346905D01*
X3215714Y-18651667D02*
X3206190Y-18642143D01*
X3187143Y-18613571D01*
X3177619Y-18594524D01*
X3168095Y-18565952D01*
X3158571Y-18518333D01*
X3158571Y-18480238D01*
X3168095Y-18432619D01*
X3177619Y-18404048D01*
X3187143Y-18385000D01*
X3206190Y-18356429D01*
X3215714Y-18346905D01*
X3291905Y-18442143D02*
X3291905Y-18575476D01*
X3291905Y-18461190D02*
X3301428Y-18451667D01*
X3320476Y-18442143D01*
X3349048Y-18442143D01*
X3368095Y-18451667D01*
X3377619Y-18470714D01*
X3377619Y-18575476D01*
X3501428Y-18575476D02*
X3482381Y-18565952D01*
X3472857Y-18556429D01*
X3463333Y-18537381D01*
X3463333Y-18480238D01*
X3472857Y-18461190D01*
X3482381Y-18451667D01*
X3501428Y-18442143D01*
X3530000Y-18442143D01*
X3549048Y-18451667D01*
X3558571Y-18461190D01*
X3568095Y-18480238D01*
X3568095Y-18537381D01*
X3558571Y-18556429D01*
X3549048Y-18565952D01*
X3530000Y-18575476D01*
X3501428Y-18575476D01*
X3625238Y-18442143D02*
X3701428Y-18442143D01*
X3653809Y-18375476D02*
X3653809Y-18546905D01*
X3663333Y-18565952D01*
X3682381Y-18575476D01*
X3701428Y-18575476D01*
X3920476Y-18442143D02*
X3920476Y-18642143D01*
X3920476Y-18451667D02*
X3939524Y-18442143D01*
X3977619Y-18442143D01*
X3996667Y-18451667D01*
X4006190Y-18461190D01*
X4015714Y-18480238D01*
X4015714Y-18537381D01*
X4006190Y-18556429D01*
X3996667Y-18565952D01*
X3977619Y-18575476D01*
X3939524Y-18575476D01*
X3920476Y-18565952D01*
X4130000Y-18575476D02*
X4110952Y-18565952D01*
X4101428Y-18546905D01*
X4101428Y-18375476D01*
X4291905Y-18575476D02*
X4291905Y-18470714D01*
X4282381Y-18451667D01*
X4263333Y-18442143D01*
X4225238Y-18442143D01*
X4206190Y-18451667D01*
X4291905Y-18565952D02*
X4272857Y-18575476D01*
X4225238Y-18575476D01*
X4206190Y-18565952D01*
X4196667Y-18546905D01*
X4196667Y-18527857D01*
X4206190Y-18508810D01*
X4225238Y-18499286D01*
X4272857Y-18499286D01*
X4291905Y-18489762D01*
X4358571Y-18442143D02*
X4434762Y-18442143D01*
X4387143Y-18375476D02*
X4387143Y-18546905D01*
X4396667Y-18565952D01*
X4415714Y-18575476D01*
X4434762Y-18575476D01*
X4577619Y-18565952D02*
X4558571Y-18575476D01*
X4520476Y-18575476D01*
X4501429Y-18565952D01*
X4491905Y-18546905D01*
X4491905Y-18470714D01*
X4501429Y-18451667D01*
X4520476Y-18442143D01*
X4558571Y-18442143D01*
X4577619Y-18451667D01*
X4587143Y-18470714D01*
X4587143Y-18489762D01*
X4491905Y-18508810D01*
X4758571Y-18575476D02*
X4758571Y-18375476D01*
X4758571Y-18565952D02*
X4739524Y-18575476D01*
X4701429Y-18575476D01*
X4682381Y-18565952D01*
X4672857Y-18556429D01*
X4663333Y-18537381D01*
X4663333Y-18480238D01*
X4672857Y-18461190D01*
X4682381Y-18451667D01*
X4701429Y-18442143D01*
X4739524Y-18442143D01*
X4758571Y-18451667D01*
X4834762Y-18651667D02*
X4844286Y-18642143D01*
X4863333Y-18613571D01*
X4872857Y-18594524D01*
X4882381Y-18565952D01*
X4891905Y-18518333D01*
X4891905Y-18480238D01*
X4882381Y-18432619D01*
X4872857Y-18404048D01*
X4863333Y-18385000D01*
X4844286Y-18356429D01*
X4834762Y-18346905D01*
M02*
