M48
; DRILL file {KiCad (6.0.7-1)-1} date Tuesday, August 16, 2022 at 07:54:14 PM
; FORMAT={-:-/ absolute / metric / decimal}
; #@! TF.CreationDate,2022-08-16T19:54:14+02:00
; #@! TF.GenerationSoftware,Kicad,Pcbnew,(6.0.7-1)-1
; #@! TF.FileFunction,NonPlated,1,2,NPTH
FMAT,2
METRIC
; #@! TA.AperFunction,NonPlated,NPTH,ComponentDrill
T1C1.500
; #@! TA.AperFunction,NonPlated,NPTH,ComponentDrill
T2C3.400
; #@! TA.AperFunction,NonPlated,NPTH,ComponentDrill
T3C3.500
%
G90
G05
T2
X14.25Y-38.0
X14.25Y-76.0
X19.0Y0.0
X19.0Y-57.0
X23.75Y-19.0
X33.25Y-38.0
X33.25Y-76.0
X38.0Y0.0
X42.75Y-57.0
X47.5Y-19.0
X52.25Y-38.0
X52.25Y-76.0
X57.0Y0.0
X61.75Y-57.0
X66.5Y-19.0
X71.25Y-38.0
X71.25Y-76.0
X76.0Y0.0
X80.75Y-57.0
X85.5Y-19.0
X90.25Y-38.0
X94.025Y-81.0
X95.0Y0.0
X99.75Y-57.0
X104.5Y-19.0
X109.25Y-38.0
X113.0Y-92.5
X114.0Y0.0
X118.75Y-57.0
X123.5Y-19.0
X128.25Y-38.0
X133.0Y0.0
X137.75Y-57.0
X137.75Y-76.0
X142.5Y-19.0
X147.25Y-38.0
X152.0Y0.0
X156.75Y-57.0
X161.5Y-19.0
X162.5Y-92.5
X166.25Y-38.0
X171.0Y0.0
X175.75Y-57.0
X179.1Y-81.0
X180.5Y-19.0
X185.25Y-38.0
X190.0Y0.0
X194.75Y-57.0
X199.5Y-19.0
X199.5Y-76.0
X204.25Y-38.0
X209.0Y0.0
X213.75Y-57.0
X218.5Y-19.0
X218.5Y-76.0
X223.25Y-38.0
X228.0Y0.0
X232.75Y-57.0
X237.5Y-19.0
X237.5Y-76.0
X242.25Y-38.0
X247.0Y0.0
X254.125Y-57.0
X256.5Y-19.0
X256.5Y-76.0
X263.625Y-38.0
X266.0Y0.0
X275.5Y-57.0
X275.5Y-76.0
X280.25Y-19.0
X285.0Y0.0
X285.0Y-38.0
T1
X12.1Y-31.2G85X16.4Y-31.2
G05
X12.1Y-44.8G85X16.4Y-44.8
G05
X12.1Y-69.2G85X16.4Y-69.2
G05
X12.1Y-82.8G85X16.4Y-82.8
G05
X16.85Y6.8G85X21.15Y6.8
G05
X16.85Y-6.8G85X21.15Y-6.8
G05
X16.85Y-50.2G85X21.15Y-50.2
G05
X16.85Y-63.8G85X21.15Y-63.8
G05
X21.6Y-12.2G85X25.9Y-12.2
G05
X21.6Y-25.8G85X25.9Y-25.8
G05
X31.1Y-31.2G85X35.4Y-31.2
G05
X31.1Y-44.8G85X35.4Y-44.8
G05
X31.1Y-69.2G85X35.4Y-69.2
G05
X31.1Y-82.8G85X35.4Y-82.8
G05
X35.85Y6.8G85X40.15Y6.8
G05
X35.85Y-6.8G85X40.15Y-6.8
G05
X40.6Y-50.2G85X44.9Y-50.2
G05
X40.6Y-63.8G85X44.9Y-63.8
G05
X45.35Y-12.2G85X49.65Y-12.2
G05
X45.35Y-25.8G85X49.65Y-25.8
G05
X50.1Y-31.2G85X54.4Y-31.2
G05
X50.1Y-44.8G85X54.4Y-44.8
G05
X50.1Y-69.2G85X54.4Y-69.2
G05
X50.1Y-82.8G85X54.4Y-82.8
G05
X54.85Y6.8G85X59.15Y6.8
G05
X54.85Y-6.8G85X59.15Y-6.8
G05
X59.6Y-50.2G85X63.9Y-50.2
G05
X59.6Y-63.8G85X63.9Y-63.8
G05
X64.35Y-12.2G85X68.65Y-12.2
G05
X64.35Y-25.8G85X68.65Y-25.8
G05
X69.1Y-31.2G85X73.4Y-31.2
G05
X69.1Y-44.8G85X73.4Y-44.8
G05
X69.1Y-69.2G85X73.4Y-69.2
G05
X69.1Y-82.8G85X73.4Y-82.8
G05
X73.85Y6.8G85X78.15Y6.8
G05
X73.85Y-6.8G85X78.15Y-6.8
G05
X78.6Y-50.2G85X82.9Y-50.2
G05
X78.6Y-63.8G85X82.9Y-63.8
G05
X83.35Y-12.2G85X87.65Y-12.2
G05
X83.35Y-25.8G85X87.65Y-25.8
G05
X88.1Y-31.2G85X92.4Y-31.2
G05
X88.1Y-44.8G85X92.4Y-44.8
G05
X90.084Y-86.944G85X94.217Y-88.129
G05
X92.85Y6.8G85X97.15Y6.8
G05
X92.85Y-6.8G85X97.15Y-6.8
G05
X93.833Y-73.871G85X97.966Y-75.056
G05
X97.6Y-50.2G85X101.9Y-50.2
G05
X97.6Y-63.8G85X101.9Y-63.8
G05
X102.35Y-12.2G85X106.65Y-12.2
G05
X102.35Y-25.8G85X106.65Y-25.8
G05
X105.875Y-92.195G85X107.345Y-88.154
G05
X107.1Y-31.2G85X111.4Y-31.2
G05
X107.1Y-44.8G85X111.4Y-44.8
G05
X111.85Y6.8G85X116.15Y6.8
G05
X111.85Y-6.8G85X116.15Y-6.8
G05
X116.6Y-50.2G85X120.9Y-50.2
G05
X116.6Y-63.8G85X120.9Y-63.8
G05
X118.655Y-96.846G85X120.125Y-92.805
G05
X121.35Y-12.2G85X125.65Y-12.2
G05
X121.35Y-25.8G85X125.65Y-25.8
G05
X126.1Y-31.2G85X130.4Y-31.2
G05
X126.1Y-44.8G85X130.4Y-44.8
G05
X130.85Y6.8G85X135.15Y6.8
G05
X130.85Y-6.8G85X135.15Y-6.8
G05
X135.6Y-50.2G85X139.9Y-50.2
G05
X135.6Y-63.8G85X139.9Y-63.8
G05
X135.6Y-69.2G85X139.9Y-69.2
G05
X135.6Y-82.8G85X139.9Y-82.8
G05
X140.35Y-12.2G85X144.65Y-12.2
G05
X140.35Y-25.8G85X144.65Y-25.8
G05
X145.1Y-31.2G85X149.4Y-31.2
G05
X145.1Y-44.8G85X149.4Y-44.8
G05
X149.85Y6.8G85X154.15Y6.8
G05
X149.85Y-6.8G85X154.15Y-6.8
G05
X156.845Y-96.846G85X155.375Y-92.805
G05
X154.6Y-50.2G85X158.9Y-50.2
G05
X154.6Y-63.8G85X158.9Y-63.8
G05
X159.35Y-12.2G85X163.65Y-12.2
G05
X159.35Y-25.8G85X163.65Y-25.8
G05
X164.1Y-31.2G85X168.4Y-31.2
G05
X164.1Y-44.8G85X168.4Y-44.8
G05
X169.625Y-92.195G85X168.155Y-88.154
G05
X168.85Y6.8G85X173.15Y6.8
G05
X168.85Y-6.8G85X173.15Y-6.8
G05
X173.6Y-50.2G85X177.9Y-50.2
G05
X173.6Y-63.8G85X177.9Y-63.8
G05
X175.159Y-75.056G85X179.292Y-73.871
G05
X178.35Y-12.2G85X182.65Y-12.2
G05
X178.35Y-25.8G85X182.65Y-25.8
G05
X178.908Y-88.129G85X183.041Y-86.944
G05
X183.1Y-31.2G85X187.4Y-31.2
G05
X183.1Y-44.8G85X187.4Y-44.8
G05
X187.85Y6.8G85X192.15Y6.8
G05
X187.85Y-6.8G85X192.15Y-6.8
G05
X192.6Y-50.2G85X196.9Y-50.2
G05
X192.6Y-63.8G85X196.9Y-63.8
G05
X197.35Y-12.2G85X201.65Y-12.2
G05
X197.35Y-25.8G85X201.65Y-25.8
G05
X197.35Y-69.2G85X201.65Y-69.2
G05
X197.35Y-82.8G85X201.65Y-82.8
G05
X202.1Y-31.2G85X206.4Y-31.2
G05
X202.1Y-44.8G85X206.4Y-44.8
G05
X206.85Y6.8G85X211.15Y6.8
G05
X206.85Y-6.8G85X211.15Y-6.8
G05
X211.6Y-50.2G85X215.9Y-50.2
G05
X211.6Y-63.8G85X215.9Y-63.8
G05
X216.35Y-12.2G85X220.65Y-12.2
G05
X216.35Y-25.8G85X220.65Y-25.8
G05
X216.35Y-69.2G85X220.65Y-69.2
G05
X216.35Y-82.8G85X220.65Y-82.8
G05
X221.1Y-31.2G85X225.4Y-31.2
G05
X221.1Y-44.8G85X225.4Y-44.8
G05
X225.85Y6.8G85X230.15Y6.8
G05
X225.85Y-6.8G85X230.15Y-6.8
G05
X230.6Y-50.2G85X234.9Y-50.2
G05
X230.6Y-63.8G85X234.9Y-63.8
G05
X235.35Y-12.2G85X239.65Y-12.2
G05
X235.35Y-25.8G85X239.65Y-25.8
G05
X235.35Y-69.2G85X239.65Y-69.2
G05
X235.35Y-82.8G85X239.65Y-82.8
G05
X240.1Y-31.2G85X244.4Y-31.2
G05
X240.1Y-44.8G85X244.4Y-44.8
G05
X244.85Y6.8G85X249.15Y6.8
G05
X244.85Y-6.8G85X249.15Y-6.8
G05
X251.975Y-50.2G85X256.275Y-50.2
G05
X251.975Y-63.8G85X256.275Y-63.8
G05
X254.35Y-12.2G85X258.65Y-12.2
G05
X254.35Y-25.8G85X258.65Y-25.8
G05
X254.35Y-69.2G85X258.65Y-69.2
G05
X254.35Y-82.8G85X258.65Y-82.8
G05
X261.475Y-31.2G85X265.775Y-31.2
G05
X261.475Y-44.8G85X265.775Y-44.8
G05
X263.85Y6.8G85X268.15Y6.8
G05
X263.85Y-6.8G85X268.15Y-6.8
G05
X273.35Y-50.2G85X277.65Y-50.2
G05
X273.35Y-63.8G85X277.65Y-63.8
G05
X273.35Y-69.2G85X277.65Y-69.2
G05
X273.35Y-82.8G85X277.65Y-82.8
G05
X278.1Y-12.2G85X282.4Y-12.2
G05
X278.1Y-25.8G85X282.4Y-25.8
G05
X282.85Y6.8G85X287.15Y6.8
G05
X282.85Y-6.8G85X287.15Y-6.8
G05
X282.85Y-31.2G85X287.15Y-31.2
G05
X282.85Y-44.8G85X287.15Y-44.8
G05
T3
X-8.0Y-43.75G85X-4.5Y-43.75
G05
T0
M30
