G04 #@! TF.GenerationSoftware,KiCad,Pcbnew,(6.0.7-1)-1*
G04 #@! TF.CreationDate,2022-08-16T19:54:09+02:00*
G04 #@! TF.ProjectId,keychron-optical-keyboard,6b657963-6872-46f6-9e2d-6f7074696361,rev?*
G04 #@! TF.SameCoordinates,Original*
G04 #@! TF.FileFunction,Profile,NP*
%FSLAX46Y46*%
G04 Gerber Fmt 4.6, Leading zero omitted, Abs format (unit mm)*
G04 Created by KiCad (PCBNEW (6.0.7-1)-1) date 2022-08-16 19:54:09*
%MOMM*%
%LPD*%
G01*
G04 APERTURE LIST*
G04 #@! TA.AperFunction,Profile*
%ADD10C,0.100000*%
G04 #@! TD*
G04 APERTURE END LIST*
D10*
X295500000Y-172500000D02*
G75*
G03*
X298500000Y-169500000I0J3000000D01*
G01*
X201750000Y-93500000D02*
X201750000Y-113500000D01*
X73750000Y-169500000D02*
X73750000Y-116500000D01*
X177796325Y-103826361D02*
G75*
G03*
X179589359Y-99981269I-1026025J2819061D01*
G01*
X201750000Y-113500000D02*
X201750000Y-116500000D01*
X7750000Y13500000D02*
X295500000Y13500000D01*
X-16750000Y-169500000D02*
G75*
G03*
X-13750000Y-172500000I3000001J1D01*
G01*
X90303895Y-93977032D02*
X94260494Y-95131732D01*
X77576912Y-90616215D02*
X78888913Y-90703839D01*
X97703657Y-103826408D02*
X117437202Y-111008831D01*
X-16750000Y-113500000D02*
X-16750000Y-116500000D01*
X154217641Y-109215820D02*
G75*
G03*
X158062797Y-111008831I2819059J1026020D01*
G01*
X201750000Y-169500000D02*
G75*
G03*
X204750000Y-172500000I3000000J0D01*
G01*
X148061276Y-92301354D02*
G75*
G03*
X145242218Y-90327407I-2819076J-1026046D01*
G01*
X130257781Y-90327407D02*
X145242218Y-90327407D01*
X201750000Y-93500000D02*
G75*
G03*
X197923088Y-90616215I-3000000J0D01*
G01*
X130257781Y-90327385D02*
G75*
G03*
X127438703Y-92301347I19J-3000015D01*
G01*
X191953090Y-91358478D02*
X197923088Y-90616215D01*
X77576912Y-90616215D02*
G75*
G03*
X73750000Y-93500000I-826912J-2883785D01*
G01*
X154217658Y-109215814D02*
X148061296Y-92301347D01*
X70750000Y-172500000D02*
G75*
G03*
X73750000Y-169500000I0J3000000D01*
G01*
X-13750000Y-172500000D02*
X70750000Y-172500000D01*
X204750000Y-172500000D02*
X295500000Y-172500000D01*
X78888913Y-90703839D02*
X90303895Y-93977032D01*
X177796342Y-103826408D02*
X158062797Y-111008831D01*
X298500000Y-116500000D02*
X298500000Y-113500000D01*
X1750000Y-28500000D02*
G75*
G03*
X4750000Y-25500000I0J3000000D01*
G01*
X179589359Y-99981270D02*
X179076329Y-98571731D01*
X73750000Y-113500000D02*
X73750000Y-93500000D01*
X298500000Y10500000D02*
G75*
G03*
X295500000Y13500000I-3000000J0D01*
G01*
X-16750000Y-28500000D02*
X-16750000Y-113500000D01*
X-16750000Y-116500000D02*
X-16750000Y-169500000D01*
X181068495Y-94661886D02*
X182821104Y-93977032D01*
X73750000Y-116500000D02*
X73750000Y-113500000D01*
X298500000Y-169500000D02*
X298500000Y-116500000D01*
X95910594Y-99981252D02*
G75*
G03*
X97703657Y-103826408I2819106J-1026048D01*
G01*
X201750000Y-116500000D02*
X201750000Y-169500000D01*
X121282341Y-109215814D02*
X127438703Y-92301347D01*
X117437209Y-111008812D02*
G75*
G03*
X121282341Y-109215814I1026091J2819012D01*
G01*
X182821104Y-93977032D02*
X191953090Y-91358478D01*
X181068507Y-94661927D02*
G75*
G03*
X179076329Y-98571731I826893J-2883773D01*
G01*
X4750000Y10500000D02*
X4750000Y-25500000D01*
X1750000Y-28500000D02*
X-16750000Y-28500000D01*
X7750000Y13500000D02*
G75*
G03*
X4750000Y10500000I0J-3000000D01*
G01*
X96252651Y-99041574D02*
G75*
G03*
X94260494Y-95131732I-2819051J1026074D01*
G01*
X298500000Y-113500000D02*
X298500000Y10500000D01*
X95910640Y-99981270D02*
X96252660Y-99041577D01*
M02*
