G04 #@! TF.GenerationSoftware,KiCad,Pcbnew,(6.0.7-1)-1*
G04 #@! TF.CreationDate,2022-08-16T19:54:09+02:00*
G04 #@! TF.ProjectId,keychron-optical-keyboard,6b657963-6872-46f6-9e2d-6f7074696361,rev?*
G04 #@! TF.SameCoordinates,Original*
G04 #@! TF.FileFunction,Soldermask,Bot*
G04 #@! TF.FilePolarity,Negative*
%FSLAX46Y46*%
G04 Gerber Fmt 4.6, Leading zero omitted, Abs format (unit mm)*
G04 Created by KiCad (PCBNEW (6.0.7-1)-1) date 2022-08-16 19:54:09*
%MOMM*%
%LPD*%
G01*
G04 APERTURE LIST*
G04 Aperture macros list*
%AMRoundRect*
0 Rectangle with rounded corners*
0 $1 Rounding radius*
0 $2 $3 $4 $5 $6 $7 $8 $9 X,Y pos of 4 corners*
0 Add a 4 corners polygon primitive as box body*
4,1,4,$2,$3,$4,$5,$6,$7,$8,$9,$2,$3,0*
0 Add four circle primitives for the rounded corners*
1,1,$1+$1,$2,$3*
1,1,$1+$1,$4,$5*
1,1,$1+$1,$6,$7*
1,1,$1+$1,$8,$9*
0 Add four rect primitives between the rounded corners*
20,1,$1+$1,$2,$3,$4,$5,0*
20,1,$1+$1,$4,$5,$6,$7,0*
20,1,$1+$1,$6,$7,$8,$9,0*
20,1,$1+$1,$8,$9,$2,$3,0*%
%AMHorizOval*
0 Thick line with rounded ends*
0 $1 width*
0 $2 $3 position (X,Y) of the first rounded end (center of the circle)*
0 $4 $5 position (X,Y) of the second rounded end (center of the circle)*
0 Add line between two ends*
20,1,$1,$2,$3,$4,$5,0*
0 Add two circle primitives to create the rounded ends*
1,1,$1,$2,$3*
1,1,$1,$4,$5*%
G04 Aperture macros list end*
%ADD10C,4.200000*%
%ADD11C,6.200000*%
%ADD12O,5.800000X1.500000*%
%ADD13C,3.500000*%
%ADD14HorizOval,1.500000X0.735343X2.020339X-0.735343X-2.020339X0*%
%ADD15HorizOval,1.500000X-0.735343X2.020339X0.735343X-2.020339X0*%
%ADD16HorizOval,1.500000X2.066713X0.592620X-2.066713X-0.592620X0*%
%ADD17HorizOval,1.500000X2.066713X-0.592620X-2.066713X0.592620X0*%
%ADD18O,7.000000X3.500000*%
%ADD19C,2.082800*%
%ADD20RoundRect,0.101600X0.500000X-0.500000X0.500000X0.500000X-0.500000X0.500000X-0.500000X-0.500000X0*%
%ADD21C,1.203200*%
G04 APERTURE END LIST*
D10*
X9500000Y9500000D03*
D11*
X-12750000Y-168500000D03*
D12*
X266000000Y-6800000D03*
D13*
X266000000Y0D03*
D12*
X266000000Y6800000D03*
D10*
X294500000Y9500000D03*
X9500000Y-24350000D03*
D11*
X205750000Y-117500000D03*
D13*
X14250000Y-38000000D03*
D12*
X14250000Y-44800000D03*
X14250000Y-31200000D03*
D13*
X275500000Y-76000000D03*
D12*
X275500000Y-82800000D03*
X275500000Y-69200000D03*
X90250000Y-31200000D03*
X90250000Y-44800000D03*
D13*
X90250000Y-38000000D03*
X137750000Y-57000000D03*
D12*
X137750000Y-63800000D03*
X137750000Y-50200000D03*
D13*
X133000000Y0D03*
D12*
X133000000Y6800000D03*
X133000000Y-6800000D03*
X71250000Y-82800000D03*
X71250000Y-69200000D03*
D13*
X71250000Y-76000000D03*
D10*
X199500000Y9500000D03*
D12*
X199500000Y-69200000D03*
X199500000Y-82800000D03*
D13*
X199500000Y-76000000D03*
D12*
X280250000Y-12200000D03*
X280250000Y-25800000D03*
D13*
X280250000Y-19000000D03*
D11*
X294500000Y-168500000D03*
D13*
X185250000Y-38000000D03*
D12*
X185250000Y-44800000D03*
X185250000Y-31200000D03*
D13*
X128250000Y-38000000D03*
D12*
X128250000Y-44800000D03*
X128250000Y-31200000D03*
X152000000Y-6800000D03*
D13*
X152000000Y0D03*
D12*
X152000000Y6800000D03*
D14*
X119389910Y-94825737D03*
D13*
X113000000Y-92500000D03*
D14*
X106610090Y-90174263D03*
D12*
X285000000Y6800000D03*
X285000000Y-6800000D03*
D13*
X285000000Y0D03*
D12*
X85500000Y-25800000D03*
D13*
X85500000Y-19000000D03*
D12*
X85500000Y-12200000D03*
X218500000Y-69200000D03*
D13*
X218500000Y-76000000D03*
D12*
X218500000Y-82800000D03*
D13*
X247000000Y0D03*
D12*
X247000000Y6800000D03*
X247000000Y-6800000D03*
D13*
X99750000Y-57000000D03*
D12*
X99750000Y-63800000D03*
X99750000Y-50200000D03*
X285000000Y-31200000D03*
X285000000Y-44800000D03*
D13*
X285000000Y-38000000D03*
X275500000Y-57000000D03*
D12*
X275500000Y-63800000D03*
X275500000Y-50200000D03*
D10*
X137750000Y-86500000D03*
D12*
X104500000Y-25800000D03*
X104500000Y-12200000D03*
D13*
X104500000Y-19000000D03*
D10*
X61750000Y-85500000D03*
D13*
X218500000Y-19000000D03*
D12*
X218500000Y-12200000D03*
X218500000Y-25800000D03*
X237500000Y-25800000D03*
D13*
X237500000Y-19000000D03*
D12*
X237500000Y-12200000D03*
D10*
X71250000Y-48100000D03*
D13*
X242250000Y-38000000D03*
D12*
X242250000Y-31200000D03*
X242250000Y-44800000D03*
D10*
X223250000Y-48100000D03*
D12*
X38000000Y6800000D03*
D13*
X38000000Y0D03*
D12*
X38000000Y-6800000D03*
X61750000Y-50200000D03*
X61750000Y-63800000D03*
D13*
X61750000Y-57000000D03*
D12*
X147250000Y-31200000D03*
X147250000Y-44800000D03*
D13*
X147250000Y-38000000D03*
D12*
X114000000Y-6800000D03*
X114000000Y6800000D03*
D13*
X114000000Y0D03*
X256500000Y-19000000D03*
D12*
X256500000Y-25800000D03*
X256500000Y-12200000D03*
X161500000Y-25800000D03*
X161500000Y-12200000D03*
D13*
X161500000Y-19000000D03*
D12*
X137750000Y-69200000D03*
X137750000Y-82800000D03*
D13*
X137750000Y-76000000D03*
D12*
X171000000Y-6800000D03*
D13*
X171000000Y0D03*
D12*
X171000000Y6800000D03*
D13*
X42750000Y-57000000D03*
D12*
X42750000Y-63800000D03*
X42750000Y-50200000D03*
D13*
X199500000Y-19000000D03*
D12*
X199500000Y-25800000D03*
X199500000Y-12200000D03*
X52250000Y-31200000D03*
D13*
X52250000Y-38000000D03*
D12*
X52250000Y-44800000D03*
D11*
X-12750000Y-117500000D03*
D12*
X166250000Y-44800000D03*
D13*
X166250000Y-38000000D03*
D12*
X166250000Y-31200000D03*
X66500000Y-12200000D03*
D13*
X66500000Y-19000000D03*
D12*
X66500000Y-25800000D03*
X194750000Y-63800000D03*
D13*
X194750000Y-57000000D03*
D12*
X194750000Y-50200000D03*
D13*
X209000000Y0D03*
D12*
X209000000Y-6800000D03*
X209000000Y6800000D03*
X213750000Y-63800000D03*
X213750000Y-50200000D03*
D13*
X213750000Y-57000000D03*
D15*
X156110090Y-94825737D03*
D13*
X162500000Y-92500000D03*
D15*
X168889910Y-90174263D03*
D13*
X71250000Y-38000000D03*
D12*
X71250000Y-31200000D03*
X71250000Y-44800000D03*
X118750000Y-63800000D03*
D13*
X118750000Y-57000000D03*
D12*
X118750000Y-50200000D03*
X228000000Y-6800000D03*
D13*
X228000000Y0D03*
D12*
X228000000Y6800000D03*
D13*
X180500000Y-19000000D03*
D12*
X180500000Y-12200000D03*
X180500000Y-25800000D03*
D10*
X57000000Y-10100000D03*
D12*
X223250000Y-44800000D03*
X223250000Y-31200000D03*
D13*
X223250000Y-38000000D03*
D10*
X294500000Y-85500000D03*
X147250000Y-48100000D03*
D11*
X69750000Y-117500000D03*
D13*
X57000000Y0D03*
D12*
X57000000Y-6800000D03*
X57000000Y6800000D03*
D13*
X80750000Y-57000000D03*
D12*
X80750000Y-63800000D03*
X80750000Y-50200000D03*
X19000000Y-6800000D03*
X19000000Y6800000D03*
D13*
X19000000Y0D03*
D12*
X76000000Y6800000D03*
D13*
X76000000Y0D03*
D12*
X76000000Y-6800000D03*
D13*
X19000000Y-57000000D03*
D12*
X19000000Y-63800000D03*
X19000000Y-50200000D03*
X33250000Y-31200000D03*
X33250000Y-44800000D03*
D13*
X33250000Y-38000000D03*
D10*
X152000000Y-10100000D03*
D12*
X204250000Y-44800000D03*
X204250000Y-31200000D03*
D13*
X204250000Y-38000000D03*
D10*
X104500000Y9500000D03*
D12*
X52250000Y-69200000D03*
X52250000Y-82800000D03*
D13*
X52250000Y-76000000D03*
D12*
X190000000Y-6800000D03*
X190000000Y6800000D03*
D13*
X190000000Y0D03*
D12*
X23750000Y-25800000D03*
D13*
X23750000Y-19000000D03*
D12*
X23750000Y-12200000D03*
D13*
X237500000Y-76000000D03*
D12*
X237500000Y-69200000D03*
X237500000Y-82800000D03*
D13*
X33250000Y-76000000D03*
D12*
X33250000Y-69200000D03*
X33250000Y-82800000D03*
D10*
X23750000Y-85500000D03*
X294500000Y-48100000D03*
D13*
X254125000Y-57000000D03*
D12*
X254125000Y-63800000D03*
X254125000Y-50200000D03*
X256500000Y-82800000D03*
D13*
X256500000Y-76000000D03*
D12*
X256500000Y-69200000D03*
D13*
X47500000Y-19000000D03*
D12*
X47500000Y-12200000D03*
X47500000Y-25800000D03*
D10*
X247000000Y-10100000D03*
D12*
X175750000Y-50200000D03*
D13*
X175750000Y-57000000D03*
D12*
X175750000Y-63800000D03*
D11*
X294500000Y-117500000D03*
D16*
X177225666Y-74463420D03*
X180974334Y-87536580D03*
D13*
X179100000Y-81000000D03*
D10*
X228000000Y-85500000D03*
D12*
X14250000Y-82800000D03*
D13*
X14250000Y-76000000D03*
D12*
X14250000Y-69200000D03*
X156750000Y-63800000D03*
D13*
X156750000Y-57000000D03*
D12*
X156750000Y-50200000D03*
D11*
X69750000Y-168500000D03*
D13*
X94025000Y-81000000D03*
D17*
X95899334Y-74463420D03*
X92150666Y-87536580D03*
D11*
X205750000Y-168500000D03*
D12*
X123500000Y-12200000D03*
X123500000Y-25800000D03*
D13*
X123500000Y-19000000D03*
D18*
X-6250000Y-43750000D03*
D19*
X1150000Y-29900000D03*
X1497000Y-32440000D03*
X1243000Y-34980000D03*
X1497000Y-37520000D03*
X1243000Y-40060000D03*
X1497000Y-42600000D03*
X1243000Y-45140000D03*
X1497000Y-47680000D03*
X1243000Y-50220000D03*
X1497000Y-52760000D03*
X1243000Y-55300000D03*
X1497000Y-57840000D03*
X1243000Y-60380000D03*
X1497000Y-62920000D03*
X1243000Y-65460000D03*
X1497000Y-68000000D03*
X1243000Y-70540000D03*
X1497000Y-73080000D03*
X1243000Y-75620000D03*
X1497000Y-78160000D03*
X-13997000Y-78160000D03*
X-13743000Y-75620000D03*
X-13997000Y-73080000D03*
X-13743000Y-70540000D03*
X-13997000Y-68000000D03*
X-13743000Y-65460000D03*
X-13997000Y-62920000D03*
X-13743000Y-60380000D03*
X-13997000Y-57840000D03*
X-13743000Y-55300000D03*
X-13997000Y-52760000D03*
X-13743000Y-50220000D03*
X-13997000Y-47680000D03*
X-13743000Y-45140000D03*
X-13997000Y-42600000D03*
X-13743000Y-40060000D03*
X-13997000Y-37520000D03*
X-13743000Y-34980000D03*
X-13997000Y-32440000D03*
X-13750000Y-29900000D03*
D20*
X-8950000Y-77200000D03*
D21*
X-8780000Y-78880000D03*
X-6850000Y-77100000D03*
X-6800000Y-78770000D03*
D13*
X142500000Y-19000000D03*
D12*
X142500000Y-12200000D03*
X142500000Y-25800000D03*
X263625000Y-31200000D03*
X263625000Y-44800000D03*
D13*
X263625000Y-38000000D03*
D12*
X232750000Y-50200000D03*
X232750000Y-63800000D03*
D13*
X232750000Y-57000000D03*
D12*
X95000000Y-6800000D03*
D13*
X95000000Y0D03*
D12*
X95000000Y6800000D03*
X109250000Y-44800000D03*
D13*
X109250000Y-38000000D03*
D12*
X109250000Y-31200000D03*
M02*
