%TF.GenerationSoftware,KiCad,Pcbnew,(6.0.7-1)-1*%
%TF.CreationDate,2022-08-16T19:54:16+02:00*%
%TF.ProjectId,keychron-optical-keyboard,6b657963-6872-46f6-9e2d-6f7074696361,rev?*%
%TF.SameCoordinates,Original*%
%TF.FileFunction,Drillmap*%
%TF.FilePolarity,Positive*%
%FSLAX45Y45*%
G04 Gerber Fmt 4.5, Leading zero omitted, Abs format (unit mm)*
G04 Created by KiCad (PCBNEW (6.0.7-1)-1) date 2022-08-16 19:54:16*
%MOMM*%
%LPD*%
G01*
G04 APERTURE LIST*
%ADD10C,0.100000*%
%ADD11C,0.200000*%
%ADD12C,0.040000*%
%ADD13C,0.101600*%
%ADD14C,0.250000*%
%ADD15C,0.373000*%
G04 APERTURE END LIST*
D10*
X29550000Y-17250000D02*
G75*
G03*
X29850000Y-16950000I0J300000D01*
G01*
X20175000Y-9350000D02*
X20175000Y-11350000D01*
X7375000Y-16950000D02*
X7375000Y-11650000D01*
X17779633Y-10382636D02*
G75*
G03*
X17958936Y-9998127I-102603J281906D01*
G01*
X20175000Y-11350000D02*
X20175000Y-11650000D01*
X775000Y1350000D02*
X29550000Y1350000D01*
X-1675000Y-16950000D02*
G75*
G03*
X-1375000Y-17250000I300000J0D01*
G01*
X9030390Y-9397703D02*
X9426049Y-9513173D01*
X7757691Y-9061622D02*
X7888891Y-9070384D01*
X9770366Y-10382641D02*
X11743720Y-11100883D01*
X-1675000Y-11350000D02*
X-1675000Y-11650000D01*
X15421764Y-10921582D02*
G75*
G03*
X15806280Y-11100883I281906J102602D01*
G01*
X20175000Y-16950000D02*
G75*
G03*
X20475000Y-17250000I300000J0D01*
G01*
X14806128Y-9230135D02*
G75*
G03*
X14524222Y-9032741I-281908J-102605D01*
G01*
X13025778Y-9032741D02*
X14524222Y-9032741D01*
X20175000Y-9350000D02*
G75*
G03*
X19792309Y-9061622I-300000J0D01*
G01*
X13025778Y-9032739D02*
G75*
G03*
X12743870Y-9230135I2J-300002D01*
G01*
X19195309Y-9135848D02*
X19792309Y-9061622D01*
X7757691Y-9061622D02*
G75*
G03*
X7375000Y-9350000I-82691J-288379D01*
G01*
X15421766Y-10921581D02*
X14806130Y-9230135D01*
X7075000Y-17250000D02*
G75*
G03*
X7375000Y-16950000I0J300000D01*
G01*
X-1375000Y-17250000D02*
X7075000Y-17250000D01*
X20475000Y-17250000D02*
X29550000Y-17250000D01*
X7888891Y-9070384D02*
X9030390Y-9397703D01*
X17779634Y-10382641D02*
X15806280Y-11100883D01*
X29850000Y-11650000D02*
X29850000Y-11350000D01*
X175000Y-2850000D02*
G75*
G03*
X475000Y-2550000I0J300000D01*
G01*
X17958936Y-9998127D02*
X17907633Y-9857173D01*
X7375000Y-11350000D02*
X7375000Y-9350000D01*
X29850000Y1050000D02*
G75*
G03*
X29550000Y1350000I-300000J0D01*
G01*
X-1675000Y-2850000D02*
X-1675000Y-11350000D01*
X-1675000Y-11650000D02*
X-1675000Y-16950000D01*
X18106850Y-9466189D02*
X18282110Y-9397703D01*
X7375000Y-11650000D02*
X7375000Y-11350000D01*
X29850000Y-16950000D02*
X29850000Y-11650000D01*
X9591059Y-9998125D02*
G75*
G03*
X9770366Y-10382641I281911J-102605D01*
G01*
X20175000Y-11650000D02*
X20175000Y-16950000D01*
X12128234Y-10921581D02*
X12743870Y-9230135D01*
X11743721Y-11100881D02*
G75*
G03*
X12128234Y-10921581I102609J281901D01*
G01*
X18282110Y-9397703D02*
X19195309Y-9135848D01*
X18106851Y-9466193D02*
G75*
G03*
X17907633Y-9857173I82689J-288377D01*
G01*
X475000Y1050000D02*
X475000Y-2550000D01*
X175000Y-2850000D02*
X-1675000Y-2850000D01*
X775000Y1350000D02*
G75*
G03*
X475000Y1050000I0J-300000D01*
G01*
X9625265Y-9904157D02*
G75*
G03*
X9426049Y-9513173I-281905J102607D01*
G01*
X29850000Y-11350000D02*
X29850000Y1050000D01*
X9591064Y-9998127D02*
X9625266Y-9904158D01*
D11*
D12*
X417000Y-7663000D02*
X457000Y-7703000D01*
X457000Y-7663000D02*
X417000Y-7703000D01*
X513000Y-3792000D02*
X553000Y-3832000D01*
X553000Y-3792000D02*
X513000Y-3832000D01*
X657000Y-7323000D02*
X697000Y-7363000D01*
X697000Y-7323000D02*
X657000Y-7363000D01*
X743000Y-5057000D02*
X783000Y-5097000D01*
X783000Y-5057000D02*
X743000Y-5097000D01*
X975000Y-4075000D02*
X1015000Y-4115000D01*
X1015000Y-4075000D02*
X975000Y-4115000D01*
X975000Y-4255000D02*
X1015000Y-4295000D01*
X1015000Y-4255000D02*
X975000Y-4295000D01*
X975000Y-7875000D02*
X1015000Y-7915000D01*
X1015000Y-7875000D02*
X975000Y-7915000D01*
X975000Y-8055000D02*
X1015000Y-8095000D01*
X1015000Y-8055000D02*
X975000Y-8095000D01*
X1056500Y-5236000D02*
X1096500Y-5276000D01*
X1096500Y-5236000D02*
X1056500Y-5276000D01*
X1450000Y-275000D02*
X1490000Y-315000D01*
X1490000Y-275000D02*
X1450000Y-315000D01*
X1450000Y-455000D02*
X1490000Y-495000D01*
X1490000Y-455000D02*
X1450000Y-495000D01*
X1450000Y-5975000D02*
X1490000Y-6015000D01*
X1490000Y-5975000D02*
X1450000Y-6015000D01*
X1450000Y-6155000D02*
X1490000Y-6195000D01*
X1490000Y-6155000D02*
X1450000Y-6195000D01*
X1715000Y-4255000D02*
X1755000Y-4295000D01*
X1755000Y-4255000D02*
X1715000Y-4295000D01*
X1715000Y-8055000D02*
X1755000Y-8095000D01*
X1755000Y-8055000D02*
X1715000Y-8095000D01*
X1925000Y-2175000D02*
X1965000Y-2215000D01*
X1965000Y-2175000D02*
X1925000Y-2215000D01*
X1925000Y-2355000D02*
X1965000Y-2395000D01*
X1965000Y-2355000D02*
X1925000Y-2395000D01*
X2190000Y-455000D02*
X2230000Y-495000D01*
X2230000Y-455000D02*
X2190000Y-495000D01*
X2190000Y-6155000D02*
X2230000Y-6195000D01*
X2230000Y-6155000D02*
X2190000Y-6195000D01*
X2239000Y-4749000D02*
X2279000Y-4789000D01*
X2279000Y-4749000D02*
X2239000Y-4789000D01*
X2353704Y-4531836D02*
X2393704Y-4571836D01*
X2393704Y-4531836D02*
X2353704Y-4571836D01*
X2665000Y-2355000D02*
X2705000Y-2395000D01*
X2705000Y-2355000D02*
X2665000Y-2395000D01*
X2875000Y-4075000D02*
X2915000Y-4115000D01*
X2915000Y-4075000D02*
X2875000Y-4115000D01*
X2875000Y-4255000D02*
X2915000Y-4295000D01*
X2915000Y-4255000D02*
X2875000Y-4295000D01*
X2875000Y-7875000D02*
X2915000Y-7915000D01*
X2915000Y-7875000D02*
X2875000Y-7915000D01*
X2875000Y-8055000D02*
X2915000Y-8095000D01*
X2915000Y-8055000D02*
X2875000Y-8095000D01*
X2983000Y60000D02*
X3023000Y20000D01*
X3023000Y60000D02*
X2983000Y20000D01*
X3258000Y-5170000D02*
X3298000Y-5210000D01*
X3298000Y-5170000D02*
X3258000Y-5210000D01*
X3350000Y-275000D02*
X3390000Y-315000D01*
X3390000Y-275000D02*
X3350000Y-315000D01*
X3350000Y-455000D02*
X3390000Y-495000D01*
X3390000Y-455000D02*
X3350000Y-495000D01*
X3375000Y-1899000D02*
X3415000Y-1939000D01*
X3415000Y-1899000D02*
X3375000Y-1939000D01*
X3615000Y-4255000D02*
X3655000Y-4295000D01*
X3655000Y-4255000D02*
X3615000Y-4295000D01*
X3615000Y-8055000D02*
X3655000Y-8095000D01*
X3655000Y-8055000D02*
X3615000Y-8095000D01*
X3825000Y-5975000D02*
X3865000Y-6015000D01*
X3865000Y-5975000D02*
X3825000Y-6015000D01*
X3825000Y-6155000D02*
X3865000Y-6195000D01*
X3865000Y-6155000D02*
X3825000Y-6195000D01*
X4090000Y-455000D02*
X4130000Y-495000D01*
X4130000Y-455000D02*
X4090000Y-495000D01*
X4300000Y-2175000D02*
X4340000Y-2215000D01*
X4340000Y-2175000D02*
X4300000Y-2215000D01*
X4300000Y-2355000D02*
X4340000Y-2395000D01*
X4340000Y-2355000D02*
X4300000Y-2395000D01*
X4565000Y-6155000D02*
X4605000Y-6195000D01*
X4605000Y-6155000D02*
X4565000Y-6195000D01*
X4775000Y-4075000D02*
X4815000Y-4115000D01*
X4815000Y-4075000D02*
X4775000Y-4115000D01*
X4775000Y-4255000D02*
X4815000Y-4295000D01*
X4815000Y-4255000D02*
X4775000Y-4295000D01*
X4775000Y-7875000D02*
X4815000Y-7915000D01*
X4815000Y-7875000D02*
X4775000Y-7915000D01*
X4775000Y-8055000D02*
X4815000Y-8095000D01*
X4815000Y-8055000D02*
X4775000Y-8095000D01*
X5040000Y-2355000D02*
X5080000Y-2395000D01*
X5080000Y-2355000D02*
X5040000Y-2395000D01*
X5250000Y-275000D02*
X5290000Y-315000D01*
X5290000Y-275000D02*
X5250000Y-315000D01*
X5250000Y-455000D02*
X5290000Y-495000D01*
X5290000Y-455000D02*
X5250000Y-495000D01*
X5329000Y-5232000D02*
X5369000Y-5272000D01*
X5369000Y-5232000D02*
X5329000Y-5272000D01*
X5515000Y-4255000D02*
X5555000Y-4295000D01*
X5555000Y-4255000D02*
X5515000Y-4295000D01*
X5515000Y-8055000D02*
X5555000Y-8095000D01*
X5555000Y-8055000D02*
X5515000Y-8095000D01*
X5725000Y-5975000D02*
X5765000Y-6015000D01*
X5765000Y-5975000D02*
X5725000Y-6015000D01*
X5725000Y-6155000D02*
X5765000Y-6195000D01*
X5765000Y-6155000D02*
X5725000Y-6195000D01*
X5990000Y-455000D02*
X6030000Y-495000D01*
X6030000Y-455000D02*
X5990000Y-495000D01*
X6200000Y-2175000D02*
X6240000Y-2215000D01*
X6240000Y-2175000D02*
X6200000Y-2215000D01*
X6200000Y-2355000D02*
X6240000Y-2395000D01*
X6240000Y-2355000D02*
X6200000Y-2395000D01*
X6465000Y-6155000D02*
X6505000Y-6195000D01*
X6505000Y-6155000D02*
X6465000Y-6195000D01*
X6675000Y-4075000D02*
X6715000Y-4115000D01*
X6715000Y-4075000D02*
X6675000Y-4115000D01*
X6675000Y-4255000D02*
X6715000Y-4295000D01*
X6715000Y-4255000D02*
X6675000Y-4295000D01*
X6675000Y-7875000D02*
X6715000Y-7915000D01*
X6715000Y-7875000D02*
X6675000Y-7915000D01*
X6675000Y-8055000D02*
X6715000Y-8095000D01*
X6715000Y-8055000D02*
X6675000Y-8095000D01*
X6899000Y-5292000D02*
X6939000Y-5332000D01*
X6939000Y-5292000D02*
X6899000Y-5332000D01*
X6940000Y-2355000D02*
X6980000Y-2395000D01*
X6980000Y-2355000D02*
X6940000Y-2395000D01*
X7150000Y-275000D02*
X7190000Y-315000D01*
X7190000Y-275000D02*
X7150000Y-315000D01*
X7150000Y-455000D02*
X7190000Y-495000D01*
X7190000Y-455000D02*
X7150000Y-495000D01*
X7220000Y-5501000D02*
X7260000Y-5541000D01*
X7260000Y-5501000D02*
X7220000Y-5541000D01*
X7415000Y-4255000D02*
X7455000Y-4295000D01*
X7455000Y-4255000D02*
X7415000Y-4295000D01*
X7415000Y-8055000D02*
X7455000Y-8095000D01*
X7455000Y-8055000D02*
X7415000Y-8095000D01*
X7625000Y-5975000D02*
X7665000Y-6015000D01*
X7665000Y-5975000D02*
X7625000Y-6015000D01*
X7625000Y-6155000D02*
X7665000Y-6195000D01*
X7665000Y-6155000D02*
X7625000Y-6195000D01*
X7890000Y-455000D02*
X7930000Y-495000D01*
X7930000Y-455000D02*
X7890000Y-495000D01*
X8100000Y-2175000D02*
X8140000Y-2215000D01*
X8140000Y-2175000D02*
X8100000Y-2215000D01*
X8100000Y-2355000D02*
X8140000Y-2395000D01*
X8140000Y-2355000D02*
X8100000Y-2395000D01*
X8166000Y-7067000D02*
X8206000Y-7107000D01*
X8206000Y-7067000D02*
X8166000Y-7107000D01*
X8309000Y-7018000D02*
X8349000Y-7058000D01*
X8349000Y-7018000D02*
X8309000Y-7058000D01*
X8365000Y-6155000D02*
X8405000Y-6195000D01*
X8405000Y-6155000D02*
X8365000Y-6195000D01*
X8463000Y-6990000D02*
X8503000Y-7030000D01*
X8503000Y-6990000D02*
X8463000Y-7030000D01*
X8575000Y-4075000D02*
X8615000Y-4115000D01*
X8615000Y-4075000D02*
X8575000Y-4115000D01*
X8575000Y-4255000D02*
X8615000Y-4295000D01*
X8615000Y-4255000D02*
X8575000Y-4295000D01*
X8607000Y-6954000D02*
X8647000Y-6994000D01*
X8647000Y-6954000D02*
X8607000Y-6994000D01*
X8736000Y-7333000D02*
X8776000Y-7373000D01*
X8776000Y-7333000D02*
X8736000Y-7373000D01*
X8834356Y-8445639D02*
X8874356Y-8485639D01*
X8874356Y-8445639D02*
X8834356Y-8485639D01*
X8840000Y-2355000D02*
X8880000Y-2395000D01*
X8880000Y-2355000D02*
X8840000Y-2395000D01*
X8994000Y-8116000D02*
X9034000Y-8156000D01*
X9034000Y-8116000D02*
X8994000Y-8156000D01*
X9050000Y-275000D02*
X9090000Y-315000D01*
X9090000Y-275000D02*
X9050000Y-315000D01*
X9050000Y-455000D02*
X9090000Y-495000D01*
X9090000Y-455000D02*
X9050000Y-495000D01*
X9118000Y-5243000D02*
X9158000Y-5283000D01*
X9158000Y-5243000D02*
X9118000Y-5283000D01*
X9315000Y-4255000D02*
X9355000Y-4295000D01*
X9355000Y-4255000D02*
X9315000Y-4295000D01*
X9525000Y-5975000D02*
X9565000Y-6015000D01*
X9565000Y-5975000D02*
X9525000Y-6015000D01*
X9525000Y-6155000D02*
X9565000Y-6195000D01*
X9565000Y-6155000D02*
X9525000Y-6195000D01*
X9621000Y-8606000D02*
X9661000Y-8646000D01*
X9661000Y-8606000D02*
X9621000Y-8646000D01*
X9790000Y-455000D02*
X9830000Y-495000D01*
X9830000Y-455000D02*
X9790000Y-495000D01*
X10000000Y-2175000D02*
X10040000Y-2215000D01*
X10040000Y-2175000D02*
X10000000Y-2215000D01*
X10000000Y-2355000D02*
X10040000Y-2395000D01*
X10040000Y-2355000D02*
X10000000Y-2395000D01*
X10265000Y-6155000D02*
X10305000Y-6195000D01*
X10305000Y-6155000D02*
X10265000Y-6195000D01*
X10475000Y-4075000D02*
X10515000Y-4115000D01*
X10515000Y-4075000D02*
X10475000Y-4115000D01*
X10475000Y-4255000D02*
X10515000Y-4295000D01*
X10515000Y-4255000D02*
X10475000Y-4295000D01*
X10740000Y-2355000D02*
X10780000Y-2395000D01*
X10780000Y-2355000D02*
X10740000Y-2395000D01*
X10950000Y-275000D02*
X10990000Y-315000D01*
X10990000Y-275000D02*
X10950000Y-315000D01*
X10950000Y-455000D02*
X10990000Y-495000D01*
X10990000Y-455000D02*
X10950000Y-495000D01*
X11022000Y-5194000D02*
X11062000Y-5234000D01*
X11062000Y-5194000D02*
X11022000Y-5234000D01*
X11036000Y-8599000D02*
X11076000Y-8639000D01*
X11076000Y-8599000D02*
X11036000Y-8639000D01*
X11215000Y-4255000D02*
X11255000Y-4295000D01*
X11255000Y-4255000D02*
X11215000Y-4295000D01*
X11291000Y-9621000D02*
X11331000Y-9661000D01*
X11331000Y-9621000D02*
X11291000Y-9661000D01*
X11425000Y-5975000D02*
X11465000Y-6015000D01*
X11465000Y-5975000D02*
X11425000Y-6015000D01*
X11425000Y-6155000D02*
X11465000Y-6195000D01*
X11465000Y-6155000D02*
X11425000Y-6195000D01*
X11614000Y-5200000D02*
X11654000Y-5240000D01*
X11654000Y-5200000D02*
X11614000Y-5240000D01*
X11690000Y-455000D02*
X11730000Y-495000D01*
X11730000Y-455000D02*
X11690000Y-495000D01*
X11884000Y-9043000D02*
X11924000Y-9083000D01*
X11924000Y-9043000D02*
X11884000Y-9083000D01*
X11900000Y-2175000D02*
X11940000Y-2215000D01*
X11940000Y-2175000D02*
X11900000Y-2215000D01*
X11900000Y-2355000D02*
X11940000Y-2395000D01*
X11940000Y-2355000D02*
X11900000Y-2395000D01*
X12006000Y-6853000D02*
X12046000Y-6893000D01*
X12046000Y-6853000D02*
X12006000Y-6893000D01*
X12165000Y-6155000D02*
X12205000Y-6195000D01*
X12205000Y-6155000D02*
X12165000Y-6195000D01*
X12219000Y-5339000D02*
X12259000Y-5379000D01*
X12259000Y-5339000D02*
X12219000Y-5379000D01*
X12375000Y-4075000D02*
X12415000Y-4115000D01*
X12415000Y-4075000D02*
X12375000Y-4115000D01*
X12375000Y-4255000D02*
X12415000Y-4295000D01*
X12415000Y-4255000D02*
X12375000Y-4295000D01*
X12453000Y-6401000D02*
X12493000Y-6441000D01*
X12493000Y-6401000D02*
X12453000Y-6441000D01*
X12529000Y-6071000D02*
X12569000Y-6111000D01*
X12569000Y-6071000D02*
X12529000Y-6111000D01*
X12640000Y-2355000D02*
X12680000Y-2395000D01*
X12680000Y-2355000D02*
X12640000Y-2395000D01*
X12850000Y-275000D02*
X12890000Y-315000D01*
X12890000Y-275000D02*
X12850000Y-315000D01*
X12850000Y-455000D02*
X12890000Y-495000D01*
X12890000Y-455000D02*
X12850000Y-495000D01*
X12924000Y-5218000D02*
X12964000Y-5258000D01*
X12964000Y-5218000D02*
X12924000Y-5258000D01*
X13115000Y-4255000D02*
X13155000Y-4295000D01*
X13155000Y-4255000D02*
X13115000Y-4295000D01*
X13175000Y-8055000D02*
X13215000Y-8095000D01*
X13215000Y-8055000D02*
X13175000Y-8095000D01*
X13325000Y-5975000D02*
X13365000Y-6015000D01*
X13365000Y-5975000D02*
X13325000Y-6015000D01*
X13325000Y-6155000D02*
X13365000Y-6195000D01*
X13365000Y-6155000D02*
X13325000Y-6195000D01*
X13325000Y-7875000D02*
X13365000Y-7915000D01*
X13365000Y-7875000D02*
X13325000Y-7915000D01*
X13590000Y-455000D02*
X13630000Y-495000D01*
X13630000Y-455000D02*
X13590000Y-495000D01*
X13800000Y-2175000D02*
X13840000Y-2215000D01*
X13840000Y-2175000D02*
X13800000Y-2215000D01*
X13800000Y-2355000D02*
X13840000Y-2395000D01*
X13840000Y-2355000D02*
X13800000Y-2395000D01*
X14065000Y-6155000D02*
X14105000Y-6195000D01*
X14105000Y-6155000D02*
X14065000Y-6195000D01*
X14065000Y-8055000D02*
X14105000Y-8095000D01*
X14105000Y-8055000D02*
X14065000Y-8095000D01*
X14275000Y-4075000D02*
X14315000Y-4115000D01*
X14315000Y-4075000D02*
X14275000Y-4115000D01*
X14275000Y-4255000D02*
X14315000Y-4295000D01*
X14315000Y-4255000D02*
X14275000Y-4295000D01*
X14412230Y-6615770D02*
X14452230Y-6655770D01*
X14452230Y-6615770D02*
X14412230Y-6655770D01*
X14494000Y-5291000D02*
X14534000Y-5331000D01*
X14534000Y-5291000D02*
X14494000Y-5331000D01*
X14540000Y-2355000D02*
X14580000Y-2395000D01*
X14580000Y-2355000D02*
X14540000Y-2395000D01*
X14750000Y-275000D02*
X14790000Y-315000D01*
X14790000Y-275000D02*
X14750000Y-315000D01*
X14750000Y-455000D02*
X14790000Y-495000D01*
X14790000Y-455000D02*
X14750000Y-495000D01*
X14825000Y-5514000D02*
X14865000Y-5554000D01*
X14865000Y-5514000D02*
X14825000Y-5554000D01*
X15015000Y-4255000D02*
X15055000Y-4295000D01*
X15055000Y-4255000D02*
X15015000Y-4295000D01*
X15225000Y-5975000D02*
X15265000Y-6015000D01*
X15265000Y-5975000D02*
X15225000Y-6015000D01*
X15225000Y-6155000D02*
X15265000Y-6195000D01*
X15265000Y-6155000D02*
X15225000Y-6195000D01*
X15490000Y-455000D02*
X15530000Y-495000D01*
X15530000Y-455000D02*
X15490000Y-495000D01*
X15700000Y-2175000D02*
X15740000Y-2215000D01*
X15740000Y-2175000D02*
X15700000Y-2215000D01*
X15700000Y-2355000D02*
X15740000Y-2395000D01*
X15740000Y-2355000D02*
X15700000Y-2395000D01*
X15805000Y-8833000D02*
X15845000Y-8873000D01*
X15845000Y-8833000D02*
X15805000Y-8873000D01*
X15965000Y-6155000D02*
X16005000Y-6195000D01*
X16005000Y-6155000D02*
X15965000Y-6195000D01*
X16043000Y-6652000D02*
X16083000Y-6692000D01*
X16083000Y-6652000D02*
X16043000Y-6692000D01*
X16175000Y-4075000D02*
X16215000Y-4115000D01*
X16215000Y-4075000D02*
X16175000Y-4115000D01*
X16175000Y-4255000D02*
X16215000Y-4295000D01*
X16215000Y-4255000D02*
X16175000Y-4295000D01*
X16440000Y-2355000D02*
X16480000Y-2395000D01*
X16480000Y-2355000D02*
X16440000Y-2395000D01*
X16541000Y-8683000D02*
X16581000Y-8723000D01*
X16581000Y-8683000D02*
X16541000Y-8723000D01*
X16650000Y-275000D02*
X16690000Y-315000D01*
X16690000Y-275000D02*
X16650000Y-315000D01*
X16650000Y-455000D02*
X16690000Y-495000D01*
X16690000Y-455000D02*
X16650000Y-495000D01*
X16684000Y-9597000D02*
X16724000Y-9637000D01*
X16724000Y-9597000D02*
X16684000Y-9637000D01*
X16721000Y-5209000D02*
X16761000Y-5249000D01*
X16761000Y-5209000D02*
X16721000Y-5249000D01*
X16915000Y-4255000D02*
X16955000Y-4295000D01*
X16955000Y-4255000D02*
X16915000Y-4295000D01*
X17125000Y-5975000D02*
X17165000Y-6015000D01*
X17165000Y-5975000D02*
X17125000Y-6015000D01*
X17125000Y-6155000D02*
X17165000Y-6195000D01*
X17165000Y-6155000D02*
X17125000Y-6195000D01*
X17390000Y-455000D02*
X17430000Y-495000D01*
X17430000Y-455000D02*
X17390000Y-495000D01*
X17600000Y-2175000D02*
X17640000Y-2215000D01*
X17640000Y-2175000D02*
X17600000Y-2215000D01*
X17600000Y-2355000D02*
X17640000Y-2395000D01*
X17640000Y-2355000D02*
X17600000Y-2395000D01*
X17603711Y-8627560D02*
X17643711Y-8667560D01*
X17643711Y-8627560D02*
X17603711Y-8667560D01*
X17605000Y-8298000D02*
X17645000Y-8338000D01*
X17645000Y-8298000D02*
X17605000Y-8338000D01*
X17865000Y-6155000D02*
X17905000Y-6195000D01*
X17905000Y-6155000D02*
X17865000Y-6195000D01*
X17904000Y-6726000D02*
X17944000Y-6766000D01*
X17944000Y-6726000D02*
X17904000Y-6766000D01*
X18075000Y-4075000D02*
X18115000Y-4115000D01*
X18115000Y-4075000D02*
X18075000Y-4115000D01*
X18075000Y-4255000D02*
X18115000Y-4295000D01*
X18115000Y-4255000D02*
X18075000Y-4295000D01*
X18340000Y-2355000D02*
X18380000Y-2395000D01*
X18380000Y-2355000D02*
X18340000Y-2395000D01*
X18390000Y-8397000D02*
X18430000Y-8437000D01*
X18430000Y-8397000D02*
X18390000Y-8437000D01*
X18550000Y-275000D02*
X18590000Y-315000D01*
X18590000Y-275000D02*
X18550000Y-315000D01*
X18550000Y-455000D02*
X18590000Y-495000D01*
X18590000Y-455000D02*
X18550000Y-495000D01*
X18622000Y-5211000D02*
X18662000Y-5251000D01*
X18662000Y-5211000D02*
X18622000Y-5251000D01*
X18815000Y-4255000D02*
X18855000Y-4295000D01*
X18855000Y-4255000D02*
X18815000Y-4295000D01*
X19025000Y-5975000D02*
X19065000Y-6015000D01*
X19065000Y-5975000D02*
X19025000Y-6015000D01*
X19025000Y-6155000D02*
X19065000Y-6195000D01*
X19065000Y-6155000D02*
X19025000Y-6195000D01*
X19290000Y-455000D02*
X19330000Y-495000D01*
X19330000Y-455000D02*
X19290000Y-495000D01*
X19500000Y-2175000D02*
X19540000Y-2215000D01*
X19540000Y-2175000D02*
X19500000Y-2215000D01*
X19500000Y-2355000D02*
X19540000Y-2395000D01*
X19540000Y-2355000D02*
X19500000Y-2395000D01*
X19500000Y-7875000D02*
X19540000Y-7915000D01*
X19540000Y-7875000D02*
X19500000Y-7915000D01*
X19500000Y-8055000D02*
X19540000Y-8095000D01*
X19540000Y-8055000D02*
X19500000Y-8095000D01*
X19523000Y-6696000D02*
X19563000Y-6736000D01*
X19563000Y-6696000D02*
X19523000Y-6736000D01*
X19765000Y-6155000D02*
X19805000Y-6195000D01*
X19805000Y-6155000D02*
X19765000Y-6195000D01*
X19975000Y-4075000D02*
X20015000Y-4115000D01*
X20015000Y-4075000D02*
X19975000Y-4115000D01*
X19975000Y-4255000D02*
X20015000Y-4295000D01*
X20015000Y-4255000D02*
X19975000Y-4295000D01*
X20240000Y-2355000D02*
X20280000Y-2395000D01*
X20280000Y-2355000D02*
X20240000Y-2395000D01*
X20240000Y-8055000D02*
X20280000Y-8095000D01*
X20280000Y-8055000D02*
X20240000Y-8095000D01*
X20450000Y-275000D02*
X20490000Y-315000D01*
X20490000Y-275000D02*
X20450000Y-315000D01*
X20450000Y-455000D02*
X20490000Y-495000D01*
X20490000Y-455000D02*
X20450000Y-495000D01*
X20527000Y-5227000D02*
X20567000Y-5267000D01*
X20567000Y-5227000D02*
X20527000Y-5267000D01*
X20715000Y-4255000D02*
X20755000Y-4295000D01*
X20755000Y-4255000D02*
X20715000Y-4295000D01*
X20925000Y-5975000D02*
X20965000Y-6015000D01*
X20965000Y-5975000D02*
X20925000Y-6015000D01*
X20925000Y-6155000D02*
X20965000Y-6195000D01*
X20965000Y-6155000D02*
X20925000Y-6195000D01*
X21190000Y-455000D02*
X21230000Y-495000D01*
X21230000Y-455000D02*
X21190000Y-495000D01*
X21400000Y-2175000D02*
X21440000Y-2215000D01*
X21440000Y-2175000D02*
X21400000Y-2215000D01*
X21400000Y-2355000D02*
X21440000Y-2395000D01*
X21440000Y-2355000D02*
X21400000Y-2395000D01*
X21400000Y-7875000D02*
X21440000Y-7915000D01*
X21440000Y-7875000D02*
X21400000Y-7915000D01*
X21400000Y-8055000D02*
X21440000Y-8095000D01*
X21440000Y-8055000D02*
X21400000Y-8095000D01*
X21423000Y-7069000D02*
X21463000Y-7109000D01*
X21463000Y-7069000D02*
X21423000Y-7109000D01*
X21665000Y-6155000D02*
X21705000Y-6195000D01*
X21705000Y-6155000D02*
X21665000Y-6195000D01*
X21875000Y-4075000D02*
X21915000Y-4115000D01*
X21915000Y-4075000D02*
X21875000Y-4115000D01*
X21875000Y-4255000D02*
X21915000Y-4295000D01*
X21915000Y-4255000D02*
X21875000Y-4295000D01*
X22061000Y-5297000D02*
X22101000Y-5337000D01*
X22101000Y-5297000D02*
X22061000Y-5337000D01*
X22140000Y-2355000D02*
X22180000Y-2395000D01*
X22180000Y-2355000D02*
X22140000Y-2395000D01*
X22140000Y-8055000D02*
X22180000Y-8095000D01*
X22180000Y-8055000D02*
X22140000Y-8095000D01*
X22350000Y-275000D02*
X22390000Y-315000D01*
X22390000Y-275000D02*
X22350000Y-315000D01*
X22350000Y-455000D02*
X22390000Y-495000D01*
X22390000Y-455000D02*
X22350000Y-495000D01*
X22426000Y-5528000D02*
X22466000Y-5568000D01*
X22466000Y-5528000D02*
X22426000Y-5568000D01*
X22615000Y-4255000D02*
X22655000Y-4295000D01*
X22655000Y-4255000D02*
X22615000Y-4295000D01*
X22825000Y-5975000D02*
X22865000Y-6015000D01*
X22865000Y-5975000D02*
X22825000Y-6015000D01*
X22825000Y-6155000D02*
X22865000Y-6195000D01*
X22865000Y-6155000D02*
X22825000Y-6195000D01*
X23090000Y-455000D02*
X23130000Y-495000D01*
X23130000Y-455000D02*
X23090000Y-495000D01*
X23300000Y-2175000D02*
X23340000Y-2215000D01*
X23340000Y-2175000D02*
X23300000Y-2215000D01*
X23300000Y-2355000D02*
X23340000Y-2395000D01*
X23340000Y-2355000D02*
X23300000Y-2395000D01*
X23300000Y-7875000D02*
X23340000Y-7915000D01*
X23340000Y-7875000D02*
X23300000Y-7915000D01*
X23300000Y-8055000D02*
X23340000Y-8095000D01*
X23340000Y-8055000D02*
X23300000Y-8095000D01*
X23565000Y-6155000D02*
X23605000Y-6195000D01*
X23605000Y-6155000D02*
X23565000Y-6195000D01*
X23775000Y-4075000D02*
X23815000Y-4115000D01*
X23815000Y-4075000D02*
X23775000Y-4115000D01*
X23775000Y-4255000D02*
X23815000Y-4295000D01*
X23815000Y-4255000D02*
X23775000Y-4295000D01*
X24040000Y-2355000D02*
X24080000Y-2395000D01*
X24080000Y-2355000D02*
X24040000Y-2395000D01*
X24040000Y-8055000D02*
X24080000Y-8095000D01*
X24080000Y-8055000D02*
X24040000Y-8095000D01*
X24250000Y-275000D02*
X24290000Y-315000D01*
X24290000Y-275000D02*
X24250000Y-315000D01*
X24250000Y-455000D02*
X24290000Y-495000D01*
X24290000Y-455000D02*
X24250000Y-495000D01*
X24515000Y-4255000D02*
X24555000Y-4295000D01*
X24555000Y-4255000D02*
X24515000Y-4295000D01*
X24566000Y-5242000D02*
X24606000Y-5282000D01*
X24606000Y-5242000D02*
X24566000Y-5282000D01*
X24962500Y-5975000D02*
X25002500Y-6015000D01*
X25002500Y-5975000D02*
X24962500Y-6015000D01*
X24962500Y-6155000D02*
X25002500Y-6195000D01*
X25002500Y-6155000D02*
X24962500Y-6195000D01*
X24990000Y-455000D02*
X25030000Y-495000D01*
X25030000Y-455000D02*
X24990000Y-495000D01*
X25200000Y-2175000D02*
X25240000Y-2215000D01*
X25240000Y-2175000D02*
X25200000Y-2215000D01*
X25200000Y-2355000D02*
X25240000Y-2395000D01*
X25240000Y-2355000D02*
X25200000Y-2395000D01*
X25200000Y-7875000D02*
X25240000Y-7915000D01*
X25240000Y-7875000D02*
X25200000Y-7915000D01*
X25200000Y-8055000D02*
X25240000Y-8095000D01*
X25240000Y-8055000D02*
X25200000Y-8095000D01*
X25702500Y-6155000D02*
X25742500Y-6195000D01*
X25742500Y-6155000D02*
X25702500Y-6195000D01*
X25912500Y-4075000D02*
X25952500Y-4115000D01*
X25952500Y-4075000D02*
X25912500Y-4115000D01*
X25912500Y-4255000D02*
X25952500Y-4295000D01*
X25952500Y-4255000D02*
X25912500Y-4295000D01*
X25940000Y-2355000D02*
X25980000Y-2395000D01*
X25980000Y-2355000D02*
X25940000Y-2395000D01*
X25940000Y-8055000D02*
X25980000Y-8095000D01*
X25980000Y-8055000D02*
X25940000Y-8095000D01*
X26066000Y-6666000D02*
X26106000Y-6706000D01*
X26106000Y-6666000D02*
X26066000Y-6706000D01*
X26150000Y-275000D02*
X26190000Y-315000D01*
X26190000Y-275000D02*
X26150000Y-315000D01*
X26150000Y-455000D02*
X26190000Y-495000D01*
X26190000Y-455000D02*
X26150000Y-495000D01*
X26652500Y-4255000D02*
X26692500Y-4295000D01*
X26692500Y-4255000D02*
X26652500Y-4295000D01*
X26699000Y-5236000D02*
X26739000Y-5276000D01*
X26739000Y-5236000D02*
X26699000Y-5276000D01*
X26890000Y-455000D02*
X26930000Y-495000D01*
X26930000Y-455000D02*
X26890000Y-495000D01*
X26950000Y-8055000D02*
X26990000Y-8095000D01*
X26990000Y-8055000D02*
X26950000Y-8095000D01*
X27100000Y-5975000D02*
X27140000Y-6015000D01*
X27140000Y-5975000D02*
X27100000Y-6015000D01*
X27100000Y-6155000D02*
X27140000Y-6195000D01*
X27140000Y-6155000D02*
X27100000Y-6195000D01*
X27100000Y-7875000D02*
X27140000Y-7915000D01*
X27140000Y-7875000D02*
X27100000Y-7915000D01*
X27575000Y-2175000D02*
X27615000Y-2215000D01*
X27615000Y-2175000D02*
X27575000Y-2215000D01*
X27575000Y-2355000D02*
X27615000Y-2395000D01*
X27615000Y-2355000D02*
X27575000Y-2395000D01*
X27653000Y-2768000D02*
X27693000Y-2808000D01*
X27693000Y-2768000D02*
X27653000Y-2808000D01*
X27840000Y-6155000D02*
X27880000Y-6195000D01*
X27880000Y-6155000D02*
X27840000Y-6195000D01*
X27840000Y-8055000D02*
X27880000Y-8095000D01*
X27880000Y-8055000D02*
X27840000Y-8095000D01*
X28050000Y-275000D02*
X28090000Y-315000D01*
X28090000Y-275000D02*
X28050000Y-315000D01*
X28050000Y-455000D02*
X28090000Y-495000D01*
X28090000Y-455000D02*
X28050000Y-495000D01*
X28050000Y-4075000D02*
X28090000Y-4115000D01*
X28090000Y-4075000D02*
X28050000Y-4115000D01*
X28050000Y-4255000D02*
X28090000Y-4295000D01*
X28090000Y-4255000D02*
X28050000Y-4295000D01*
X28315000Y-2355000D02*
X28355000Y-2395000D01*
X28355000Y-2355000D02*
X28315000Y-2395000D01*
X28572000Y-5229000D02*
X28612000Y-5269000D01*
X28612000Y-5229000D02*
X28572000Y-5269000D01*
X28790000Y-455000D02*
X28830000Y-495000D01*
X28830000Y-455000D02*
X28790000Y-495000D01*
X28790000Y-4255000D02*
X28830000Y-4295000D01*
X28830000Y-4255000D02*
X28790000Y-4295000D01*
D13*
X-1348900Y-3244000D02*
G75*
G03*
X-1348900Y-3244000I-50800J0D01*
G01*
X-1348900Y-3752000D02*
G75*
G03*
X-1348900Y-3752000I-50800J0D01*
G01*
X-1348900Y-4260000D02*
G75*
G03*
X-1348900Y-4260000I-50800J0D01*
G01*
X-1348900Y-4768000D02*
G75*
G03*
X-1348900Y-4768000I-50800J0D01*
G01*
X-1348900Y-5276000D02*
G75*
G03*
X-1348900Y-5276000I-50800J0D01*
G01*
X-1348900Y-5784000D02*
G75*
G03*
X-1348900Y-5784000I-50800J0D01*
G01*
X-1348900Y-6292000D02*
G75*
G03*
X-1348900Y-6292000I-50800J0D01*
G01*
X-1348900Y-6800000D02*
G75*
G03*
X-1348900Y-6800000I-50800J0D01*
G01*
X-1348900Y-7308000D02*
G75*
G03*
X-1348900Y-7308000I-50800J0D01*
G01*
X-1348900Y-7816000D02*
G75*
G03*
X-1348900Y-7816000I-50800J0D01*
G01*
X-1324200Y-2990000D02*
G75*
G03*
X-1324200Y-2990000I-50800J0D01*
G01*
X-1323500Y-3498000D02*
G75*
G03*
X-1323500Y-3498000I-50800J0D01*
G01*
X-1323500Y-4006000D02*
G75*
G03*
X-1323500Y-4006000I-50800J0D01*
G01*
X-1323500Y-4514000D02*
G75*
G03*
X-1323500Y-4514000I-50800J0D01*
G01*
X-1323500Y-5022000D02*
G75*
G03*
X-1323500Y-5022000I-50800J0D01*
G01*
X-1323500Y-5530000D02*
G75*
G03*
X-1323500Y-5530000I-50800J0D01*
G01*
X-1323500Y-6038000D02*
G75*
G03*
X-1323500Y-6038000I-50800J0D01*
G01*
X-1323500Y-6546000D02*
G75*
G03*
X-1323500Y-6546000I-50800J0D01*
G01*
X-1323500Y-7054000D02*
G75*
G03*
X-1323500Y-7054000I-50800J0D01*
G01*
X-1323500Y-7562000D02*
G75*
G03*
X-1323500Y-7562000I-50800J0D01*
G01*
X165800Y-2990000D02*
G75*
G03*
X165800Y-2990000I-50800J0D01*
G01*
X175100Y-3498000D02*
G75*
G03*
X175100Y-3498000I-50800J0D01*
G01*
X175100Y-4006000D02*
G75*
G03*
X175100Y-4006000I-50800J0D01*
G01*
X175100Y-4514000D02*
G75*
G03*
X175100Y-4514000I-50800J0D01*
G01*
X175100Y-5022000D02*
G75*
G03*
X175100Y-5022000I-50800J0D01*
G01*
X175100Y-5530000D02*
G75*
G03*
X175100Y-5530000I-50800J0D01*
G01*
X175100Y-6038000D02*
G75*
G03*
X175100Y-6038000I-50800J0D01*
G01*
X175100Y-6546000D02*
G75*
G03*
X175100Y-6546000I-50800J0D01*
G01*
X175100Y-7054000D02*
G75*
G03*
X175100Y-7054000I-50800J0D01*
G01*
X175100Y-7562000D02*
G75*
G03*
X175100Y-7562000I-50800J0D01*
G01*
X200500Y-3244000D02*
G75*
G03*
X200500Y-3244000I-50800J0D01*
G01*
X200500Y-3752000D02*
G75*
G03*
X200500Y-3752000I-50800J0D01*
G01*
X200500Y-4260000D02*
G75*
G03*
X200500Y-4260000I-50800J0D01*
G01*
X200500Y-4768000D02*
G75*
G03*
X200500Y-4768000I-50800J0D01*
G01*
X200500Y-5276000D02*
G75*
G03*
X200500Y-5276000I-50800J0D01*
G01*
X200500Y-5784000D02*
G75*
G03*
X200500Y-5784000I-50800J0D01*
G01*
X200500Y-6292000D02*
G75*
G03*
X200500Y-6292000I-50800J0D01*
G01*
X200500Y-6800000D02*
G75*
G03*
X200500Y-6800000I-50800J0D01*
G01*
X200500Y-7308000D02*
G75*
G03*
X200500Y-7308000I-50800J0D01*
G01*
X200500Y-7816000D02*
G75*
G03*
X200500Y-7816000I-50800J0D01*
G01*
D14*
X950000Y1075000D02*
X950000Y825000D01*
X825000Y950000D02*
X1075000Y950000D01*
X950000Y-2310000D02*
X950000Y-2560000D01*
X825000Y-2435000D02*
X1075000Y-2435000D01*
X2375000Y-8425000D02*
X2375000Y-8675000D01*
X2250000Y-8550000D02*
X2500000Y-8550000D01*
X5700000Y-885000D02*
X5700000Y-1135000D01*
X5575000Y-1010000D02*
X5825000Y-1010000D01*
X6175000Y-8425000D02*
X6175000Y-8675000D01*
X6050000Y-8550000D02*
X6300000Y-8550000D01*
X7125000Y-4685000D02*
X7125000Y-4935000D01*
X7000000Y-4810000D02*
X7250000Y-4810000D01*
X10450000Y1075000D02*
X10450000Y825000D01*
X10325000Y950000D02*
X10575000Y950000D01*
X13775000Y-8525000D02*
X13775000Y-8775000D01*
X13650000Y-8650000D02*
X13900000Y-8650000D01*
X14725000Y-4685000D02*
X14725000Y-4935000D01*
X14600000Y-4810000D02*
X14850000Y-4810000D01*
X15200000Y-885000D02*
X15200000Y-1135000D01*
X15075000Y-1010000D02*
X15325000Y-1010000D01*
X19950000Y1075000D02*
X19950000Y825000D01*
X19825000Y950000D02*
X20075000Y950000D01*
X22325000Y-4685000D02*
X22325000Y-4935000D01*
X22200000Y-4810000D02*
X22450000Y-4810000D01*
X22800000Y-8425000D02*
X22800000Y-8675000D01*
X22675000Y-8550000D02*
X22925000Y-8550000D01*
X24700000Y-885000D02*
X24700000Y-1135000D01*
X24575000Y-1010000D02*
X24825000Y-1010000D01*
X29450000Y1075000D02*
X29450000Y825000D01*
X29325000Y950000D02*
X29575000Y950000D01*
X29450000Y-4685000D02*
X29450000Y-4935000D01*
X29325000Y-4810000D02*
X29575000Y-4810000D01*
X29450000Y-8425000D02*
X29450000Y-8675000D01*
X29325000Y-8550000D02*
X29575000Y-8550000D01*
D15*
X-1143123Y-11881877D02*
X-1143123Y-11618123D01*
X-1406877Y-11618123D01*
X-1406877Y-11881877D01*
X-1143123Y-11881877D01*
X-1143123Y-16981877D02*
X-1143123Y-16718123D01*
X-1406877Y-16718123D01*
X-1406877Y-16981877D01*
X-1143123Y-16981877D01*
X7106877Y-11881877D02*
X7106877Y-11618123D01*
X6843123Y-11618123D01*
X6843123Y-11881877D01*
X7106877Y-11881877D01*
X7106877Y-16981877D02*
X7106877Y-16718123D01*
X6843123Y-16718123D01*
X6843123Y-16981877D01*
X7106877Y-16981877D01*
X20706877Y-11881877D02*
X20706877Y-11618123D01*
X20443123Y-11618123D01*
X20443123Y-11881877D01*
X20706877Y-11881877D01*
X20706877Y-16981877D02*
X20706877Y-16718123D01*
X20443123Y-16718123D01*
X20443123Y-16981877D01*
X20706877Y-16981877D01*
X29581877Y-11881877D02*
X29581877Y-11618123D01*
X29318123Y-11618123D01*
X29318123Y-11881877D01*
X29581877Y-11881877D01*
X29581877Y-16981877D02*
X29581877Y-16718123D01*
X29318123Y-16718123D01*
X29318123Y-16981877D01*
X29581877Y-16981877D01*
D11*
X-1422381Y-17565476D02*
X-1422381Y-17365476D01*
X-1374762Y-17365476D01*
X-1346190Y-17375000D01*
X-1327143Y-17394048D01*
X-1317619Y-17413095D01*
X-1308095Y-17451190D01*
X-1308095Y-17479762D01*
X-1317619Y-17517857D01*
X-1327143Y-17536905D01*
X-1346190Y-17555952D01*
X-1374762Y-17565476D01*
X-1422381Y-17565476D01*
X-1222381Y-17565476D02*
X-1222381Y-17432143D01*
X-1222381Y-17470238D02*
X-1212857Y-17451190D01*
X-1203333Y-17441667D01*
X-1184286Y-17432143D01*
X-1165238Y-17432143D01*
X-1098571Y-17565476D02*
X-1098571Y-17432143D01*
X-1098571Y-17365476D02*
X-1108095Y-17375000D01*
X-1098571Y-17384524D01*
X-1089048Y-17375000D01*
X-1098571Y-17365476D01*
X-1098571Y-17384524D01*
X-974762Y-17565476D02*
X-993809Y-17555952D01*
X-1003333Y-17536905D01*
X-1003333Y-17365476D01*
X-870000Y-17565476D02*
X-889048Y-17555952D01*
X-898571Y-17536905D01*
X-898571Y-17365476D01*
X-641429Y-17565476D02*
X-641429Y-17365476D01*
X-574762Y-17508333D01*
X-508095Y-17365476D01*
X-508095Y-17565476D01*
X-327143Y-17565476D02*
X-327143Y-17460714D01*
X-336667Y-17441667D01*
X-355714Y-17432143D01*
X-393809Y-17432143D01*
X-412857Y-17441667D01*
X-327143Y-17555952D02*
X-346190Y-17565476D01*
X-393809Y-17565476D01*
X-412857Y-17555952D01*
X-422381Y-17536905D01*
X-422381Y-17517857D01*
X-412857Y-17498810D01*
X-393809Y-17489286D01*
X-346190Y-17489286D01*
X-327143Y-17479762D01*
X-231905Y-17432143D02*
X-231905Y-17632143D01*
X-231905Y-17441667D02*
X-212857Y-17432143D01*
X-174762Y-17432143D01*
X-155714Y-17441667D01*
X-146190Y-17451190D01*
X-136667Y-17470238D01*
X-136667Y-17527381D01*
X-146190Y-17546429D01*
X-155714Y-17555952D01*
X-174762Y-17565476D01*
X-212857Y-17565476D01*
X-231905Y-17555952D01*
X-50952Y-17546429D02*
X-41429Y-17555952D01*
X-50952Y-17565476D01*
X-60476Y-17555952D01*
X-50952Y-17546429D01*
X-50952Y-17565476D01*
X-50952Y-17441667D02*
X-41429Y-17451190D01*
X-50952Y-17460714D01*
X-60476Y-17451190D01*
X-50952Y-17441667D01*
X-50952Y-17460714D01*
D12*
X-1720000Y-17875000D02*
X-1680000Y-17915000D01*
X-1680000Y-17875000D02*
X-1720000Y-17915000D01*
D11*
X-1384286Y-17785476D02*
X-1365238Y-17785476D01*
X-1346190Y-17795000D01*
X-1336667Y-17804524D01*
X-1327143Y-17823571D01*
X-1317619Y-17861667D01*
X-1317619Y-17909286D01*
X-1327143Y-17947381D01*
X-1336667Y-17966429D01*
X-1346190Y-17975952D01*
X-1365238Y-17985476D01*
X-1384286Y-17985476D01*
X-1403333Y-17975952D01*
X-1412857Y-17966429D01*
X-1422381Y-17947381D01*
X-1431905Y-17909286D01*
X-1431905Y-17861667D01*
X-1422381Y-17823571D01*
X-1412857Y-17804524D01*
X-1403333Y-17795000D01*
X-1384286Y-17785476D01*
X-1231905Y-17966429D02*
X-1222381Y-17975952D01*
X-1231905Y-17985476D01*
X-1241429Y-17975952D01*
X-1231905Y-17966429D01*
X-1231905Y-17985476D01*
X-1050952Y-17852143D02*
X-1050952Y-17985476D01*
X-1098571Y-17775952D02*
X-1146190Y-17918810D01*
X-1022381Y-17918810D01*
X-908095Y-17785476D02*
X-889048Y-17785476D01*
X-870000Y-17795000D01*
X-860476Y-17804524D01*
X-850952Y-17823571D01*
X-841428Y-17861667D01*
X-841428Y-17909286D01*
X-850952Y-17947381D01*
X-860476Y-17966429D01*
X-870000Y-17975952D01*
X-889048Y-17985476D01*
X-908095Y-17985476D01*
X-927143Y-17975952D01*
X-936667Y-17966429D01*
X-946190Y-17947381D01*
X-955714Y-17909286D01*
X-955714Y-17861667D01*
X-946190Y-17823571D01*
X-936667Y-17804524D01*
X-927143Y-17795000D01*
X-908095Y-17785476D01*
X-717619Y-17785476D02*
X-698571Y-17785476D01*
X-679524Y-17795000D01*
X-670000Y-17804524D01*
X-660476Y-17823571D01*
X-650952Y-17861667D01*
X-650952Y-17909286D01*
X-660476Y-17947381D01*
X-670000Y-17966429D01*
X-679524Y-17975952D01*
X-698571Y-17985476D01*
X-717619Y-17985476D01*
X-736667Y-17975952D01*
X-746190Y-17966429D01*
X-755714Y-17947381D01*
X-765238Y-17909286D01*
X-765238Y-17861667D01*
X-755714Y-17823571D01*
X-746190Y-17804524D01*
X-736667Y-17795000D01*
X-717619Y-17785476D01*
X-565238Y-17985476D02*
X-565238Y-17852143D01*
X-565238Y-17871190D02*
X-555714Y-17861667D01*
X-536667Y-17852143D01*
X-508095Y-17852143D01*
X-489048Y-17861667D01*
X-479524Y-17880714D01*
X-479524Y-17985476D01*
X-479524Y-17880714D02*
X-470000Y-17861667D01*
X-450952Y-17852143D01*
X-422381Y-17852143D01*
X-403333Y-17861667D01*
X-393809Y-17880714D01*
X-393809Y-17985476D01*
X-298571Y-17985476D02*
X-298571Y-17852143D01*
X-298571Y-17871190D02*
X-289048Y-17861667D01*
X-270000Y-17852143D01*
X-241428Y-17852143D01*
X-222381Y-17861667D01*
X-212857Y-17880714D01*
X-212857Y-17985476D01*
X-212857Y-17880714D02*
X-203333Y-17861667D01*
X-184286Y-17852143D01*
X-155714Y-17852143D01*
X-136667Y-17861667D01*
X-127143Y-17880714D01*
X-127143Y-17985476D01*
X263333Y-17775952D02*
X91905Y-18033095D01*
X520476Y-17785476D02*
X539524Y-17785476D01*
X558571Y-17795000D01*
X568095Y-17804524D01*
X577619Y-17823571D01*
X587143Y-17861667D01*
X587143Y-17909286D01*
X577619Y-17947381D01*
X568095Y-17966429D01*
X558571Y-17975952D01*
X539524Y-17985476D01*
X520476Y-17985476D01*
X501428Y-17975952D01*
X491905Y-17966429D01*
X482381Y-17947381D01*
X472857Y-17909286D01*
X472857Y-17861667D01*
X482381Y-17823571D01*
X491905Y-17804524D01*
X501428Y-17795000D01*
X520476Y-17785476D01*
X672857Y-17966429D02*
X682381Y-17975952D01*
X672857Y-17985476D01*
X663333Y-17975952D01*
X672857Y-17966429D01*
X672857Y-17985476D01*
X806190Y-17785476D02*
X825238Y-17785476D01*
X844286Y-17795000D01*
X853809Y-17804524D01*
X863333Y-17823571D01*
X872857Y-17861667D01*
X872857Y-17909286D01*
X863333Y-17947381D01*
X853809Y-17966429D01*
X844286Y-17975952D01*
X825238Y-17985476D01*
X806190Y-17985476D01*
X787143Y-17975952D01*
X777619Y-17966429D01*
X768095Y-17947381D01*
X758571Y-17909286D01*
X758571Y-17861667D01*
X768095Y-17823571D01*
X777619Y-17804524D01*
X787143Y-17795000D01*
X806190Y-17785476D01*
X1063333Y-17985476D02*
X949048Y-17985476D01*
X1006190Y-17985476D02*
X1006190Y-17785476D01*
X987143Y-17814048D01*
X968095Y-17833095D01*
X949048Y-17842619D01*
X1244286Y-17785476D02*
X1149048Y-17785476D01*
X1139524Y-17880714D01*
X1149048Y-17871190D01*
X1168095Y-17861667D01*
X1215714Y-17861667D01*
X1234762Y-17871190D01*
X1244286Y-17880714D01*
X1253810Y-17899762D01*
X1253810Y-17947381D01*
X1244286Y-17966429D01*
X1234762Y-17975952D01*
X1215714Y-17985476D01*
X1168095Y-17985476D01*
X1149048Y-17975952D01*
X1139524Y-17966429D01*
X1320476Y-17785476D02*
X1453809Y-17785476D01*
X1368095Y-17985476D01*
X1520476Y-17785476D02*
X1520476Y-17823571D01*
X1596667Y-17785476D02*
X1596667Y-17823571D01*
X1891905Y-18061667D02*
X1882381Y-18052143D01*
X1863333Y-18023571D01*
X1853809Y-18004524D01*
X1844286Y-17975952D01*
X1834762Y-17928333D01*
X1834762Y-17890238D01*
X1844286Y-17842619D01*
X1853809Y-17814048D01*
X1863333Y-17795000D01*
X1882381Y-17766429D01*
X1891905Y-17756905D01*
X1958571Y-17804524D02*
X1968095Y-17795000D01*
X1987143Y-17785476D01*
X2034762Y-17785476D01*
X2053809Y-17795000D01*
X2063333Y-17804524D01*
X2072857Y-17823571D01*
X2072857Y-17842619D01*
X2063333Y-17871190D01*
X1949048Y-17985476D01*
X2072857Y-17985476D01*
X2253810Y-17785476D02*
X2158571Y-17785476D01*
X2149048Y-17880714D01*
X2158571Y-17871190D01*
X2177619Y-17861667D01*
X2225238Y-17861667D01*
X2244286Y-17871190D01*
X2253810Y-17880714D01*
X2263333Y-17899762D01*
X2263333Y-17947381D01*
X2253810Y-17966429D01*
X2244286Y-17975952D01*
X2225238Y-17985476D01*
X2177619Y-17985476D01*
X2158571Y-17975952D01*
X2149048Y-17966429D01*
X2358571Y-17985476D02*
X2396667Y-17985476D01*
X2415714Y-17975952D01*
X2425238Y-17966429D01*
X2444286Y-17937857D01*
X2453810Y-17899762D01*
X2453810Y-17823571D01*
X2444286Y-17804524D01*
X2434762Y-17795000D01*
X2415714Y-17785476D01*
X2377619Y-17785476D01*
X2358571Y-17795000D01*
X2349048Y-17804524D01*
X2339524Y-17823571D01*
X2339524Y-17871190D01*
X2349048Y-17890238D01*
X2358571Y-17899762D01*
X2377619Y-17909286D01*
X2415714Y-17909286D01*
X2434762Y-17899762D01*
X2444286Y-17890238D01*
X2453810Y-17871190D01*
X2691905Y-17985476D02*
X2691905Y-17785476D01*
X2777619Y-17985476D02*
X2777619Y-17880714D01*
X2768095Y-17861667D01*
X2749048Y-17852143D01*
X2720476Y-17852143D01*
X2701429Y-17861667D01*
X2691905Y-17871190D01*
X2901428Y-17985476D02*
X2882381Y-17975952D01*
X2872857Y-17966429D01*
X2863333Y-17947381D01*
X2863333Y-17890238D01*
X2872857Y-17871190D01*
X2882381Y-17861667D01*
X2901428Y-17852143D01*
X2930000Y-17852143D01*
X2949048Y-17861667D01*
X2958571Y-17871190D01*
X2968095Y-17890238D01*
X2968095Y-17947381D01*
X2958571Y-17966429D01*
X2949048Y-17975952D01*
X2930000Y-17985476D01*
X2901428Y-17985476D01*
X3082381Y-17985476D02*
X3063333Y-17975952D01*
X3053809Y-17956905D01*
X3053809Y-17785476D01*
X3234762Y-17975952D02*
X3215714Y-17985476D01*
X3177619Y-17985476D01*
X3158571Y-17975952D01*
X3149048Y-17956905D01*
X3149048Y-17880714D01*
X3158571Y-17861667D01*
X3177619Y-17852143D01*
X3215714Y-17852143D01*
X3234762Y-17861667D01*
X3244286Y-17880714D01*
X3244286Y-17899762D01*
X3149048Y-17918810D01*
X3320476Y-17975952D02*
X3339524Y-17985476D01*
X3377619Y-17985476D01*
X3396667Y-17975952D01*
X3406190Y-17956905D01*
X3406190Y-17947381D01*
X3396667Y-17928333D01*
X3377619Y-17918810D01*
X3349048Y-17918810D01*
X3330000Y-17909286D01*
X3320476Y-17890238D01*
X3320476Y-17880714D01*
X3330000Y-17861667D01*
X3349048Y-17852143D01*
X3377619Y-17852143D01*
X3396667Y-17861667D01*
X3472857Y-18061667D02*
X3482381Y-18052143D01*
X3501428Y-18023571D01*
X3510952Y-18004524D01*
X3520476Y-17975952D01*
X3530000Y-17928333D01*
X3530000Y-17890238D01*
X3520476Y-17842619D01*
X3510952Y-17814048D01*
X3501428Y-17795000D01*
X3482381Y-17766429D01*
X3472857Y-17756905D01*
D13*
X-1680000Y-18159000D02*
G75*
G03*
X-1680000Y-18159000I-50800J0D01*
G01*
D11*
X-1317619Y-18249476D02*
X-1431905Y-18249476D01*
X-1374762Y-18249476D02*
X-1374762Y-18049476D01*
X-1393810Y-18078048D01*
X-1412857Y-18097095D01*
X-1431905Y-18106619D01*
X-1231905Y-18230429D02*
X-1222381Y-18239952D01*
X-1231905Y-18249476D01*
X-1241429Y-18239952D01*
X-1231905Y-18230429D01*
X-1231905Y-18249476D01*
X-1098571Y-18049476D02*
X-1079524Y-18049476D01*
X-1060476Y-18059000D01*
X-1050952Y-18068524D01*
X-1041428Y-18087571D01*
X-1031905Y-18125667D01*
X-1031905Y-18173286D01*
X-1041428Y-18211381D01*
X-1050952Y-18230429D01*
X-1060476Y-18239952D01*
X-1079524Y-18249476D01*
X-1098571Y-18249476D01*
X-1117619Y-18239952D01*
X-1127143Y-18230429D01*
X-1136667Y-18211381D01*
X-1146190Y-18173286D01*
X-1146190Y-18125667D01*
X-1136667Y-18087571D01*
X-1127143Y-18068524D01*
X-1117619Y-18059000D01*
X-1098571Y-18049476D01*
X-841428Y-18249476D02*
X-955714Y-18249476D01*
X-898571Y-18249476D02*
X-898571Y-18049476D01*
X-917619Y-18078048D01*
X-936667Y-18097095D01*
X-955714Y-18106619D01*
X-670000Y-18049476D02*
X-708095Y-18049476D01*
X-727143Y-18059000D01*
X-736667Y-18068524D01*
X-755714Y-18097095D01*
X-765238Y-18135190D01*
X-765238Y-18211381D01*
X-755714Y-18230429D01*
X-746190Y-18239952D01*
X-727143Y-18249476D01*
X-689048Y-18249476D01*
X-670000Y-18239952D01*
X-660476Y-18230429D01*
X-650952Y-18211381D01*
X-650952Y-18163762D01*
X-660476Y-18144714D01*
X-670000Y-18135190D01*
X-689048Y-18125667D01*
X-727143Y-18125667D01*
X-746190Y-18135190D01*
X-755714Y-18144714D01*
X-765238Y-18163762D01*
X-565238Y-18249476D02*
X-565238Y-18116143D01*
X-565238Y-18135190D02*
X-555714Y-18125667D01*
X-536667Y-18116143D01*
X-508095Y-18116143D01*
X-489048Y-18125667D01*
X-479524Y-18144714D01*
X-479524Y-18249476D01*
X-479524Y-18144714D02*
X-470000Y-18125667D01*
X-450952Y-18116143D01*
X-422381Y-18116143D01*
X-403333Y-18125667D01*
X-393809Y-18144714D01*
X-393809Y-18249476D01*
X-298571Y-18249476D02*
X-298571Y-18116143D01*
X-298571Y-18135190D02*
X-289048Y-18125667D01*
X-270000Y-18116143D01*
X-241428Y-18116143D01*
X-222381Y-18125667D01*
X-212857Y-18144714D01*
X-212857Y-18249476D01*
X-212857Y-18144714D02*
X-203333Y-18125667D01*
X-184286Y-18116143D01*
X-155714Y-18116143D01*
X-136667Y-18125667D01*
X-127143Y-18144714D01*
X-127143Y-18249476D01*
X263333Y-18039952D02*
X91905Y-18297095D01*
X520476Y-18049476D02*
X539524Y-18049476D01*
X558571Y-18059000D01*
X568095Y-18068524D01*
X577619Y-18087571D01*
X587143Y-18125667D01*
X587143Y-18173286D01*
X577619Y-18211381D01*
X568095Y-18230429D01*
X558571Y-18239952D01*
X539524Y-18249476D01*
X520476Y-18249476D01*
X501428Y-18239952D01*
X491905Y-18230429D01*
X482381Y-18211381D01*
X472857Y-18173286D01*
X472857Y-18125667D01*
X482381Y-18087571D01*
X491905Y-18068524D01*
X501428Y-18059000D01*
X520476Y-18049476D01*
X672857Y-18230429D02*
X682381Y-18239952D01*
X672857Y-18249476D01*
X663333Y-18239952D01*
X672857Y-18230429D01*
X672857Y-18249476D01*
X806190Y-18049476D02*
X825238Y-18049476D01*
X844286Y-18059000D01*
X853809Y-18068524D01*
X863333Y-18087571D01*
X872857Y-18125667D01*
X872857Y-18173286D01*
X863333Y-18211381D01*
X853809Y-18230429D01*
X844286Y-18239952D01*
X825238Y-18249476D01*
X806190Y-18249476D01*
X787143Y-18239952D01*
X777619Y-18230429D01*
X768095Y-18211381D01*
X758571Y-18173286D01*
X758571Y-18125667D01*
X768095Y-18087571D01*
X777619Y-18068524D01*
X787143Y-18059000D01*
X806190Y-18049476D01*
X1044286Y-18116143D02*
X1044286Y-18249476D01*
X996667Y-18039952D02*
X949048Y-18182810D01*
X1072857Y-18182810D01*
X1187143Y-18049476D02*
X1206190Y-18049476D01*
X1225238Y-18059000D01*
X1234762Y-18068524D01*
X1244286Y-18087571D01*
X1253810Y-18125667D01*
X1253810Y-18173286D01*
X1244286Y-18211381D01*
X1234762Y-18230429D01*
X1225238Y-18239952D01*
X1206190Y-18249476D01*
X1187143Y-18249476D01*
X1168095Y-18239952D01*
X1158571Y-18230429D01*
X1149048Y-18211381D01*
X1139524Y-18173286D01*
X1139524Y-18125667D01*
X1149048Y-18087571D01*
X1158571Y-18068524D01*
X1168095Y-18059000D01*
X1187143Y-18049476D01*
X1377619Y-18049476D02*
X1396667Y-18049476D01*
X1415714Y-18059000D01*
X1425238Y-18068524D01*
X1434762Y-18087571D01*
X1444286Y-18125667D01*
X1444286Y-18173286D01*
X1434762Y-18211381D01*
X1425238Y-18230429D01*
X1415714Y-18239952D01*
X1396667Y-18249476D01*
X1377619Y-18249476D01*
X1358571Y-18239952D01*
X1349048Y-18230429D01*
X1339524Y-18211381D01*
X1330000Y-18173286D01*
X1330000Y-18125667D01*
X1339524Y-18087571D01*
X1349048Y-18068524D01*
X1358571Y-18059000D01*
X1377619Y-18049476D01*
X1520476Y-18049476D02*
X1520476Y-18087571D01*
X1596667Y-18049476D02*
X1596667Y-18087571D01*
X1891905Y-18325667D02*
X1882381Y-18316143D01*
X1863333Y-18287571D01*
X1853809Y-18268524D01*
X1844286Y-18239952D01*
X1834762Y-18192333D01*
X1834762Y-18154238D01*
X1844286Y-18106619D01*
X1853809Y-18078048D01*
X1863333Y-18059000D01*
X1882381Y-18030429D01*
X1891905Y-18020905D01*
X2053809Y-18116143D02*
X2053809Y-18249476D01*
X2006190Y-18039952D02*
X1958571Y-18182810D01*
X2082381Y-18182810D01*
X2196667Y-18049476D02*
X2215714Y-18049476D01*
X2234762Y-18059000D01*
X2244286Y-18068524D01*
X2253810Y-18087571D01*
X2263333Y-18125667D01*
X2263333Y-18173286D01*
X2253810Y-18211381D01*
X2244286Y-18230429D01*
X2234762Y-18239952D01*
X2215714Y-18249476D01*
X2196667Y-18249476D01*
X2177619Y-18239952D01*
X2168095Y-18230429D01*
X2158571Y-18211381D01*
X2149048Y-18173286D01*
X2149048Y-18125667D01*
X2158571Y-18087571D01*
X2168095Y-18068524D01*
X2177619Y-18059000D01*
X2196667Y-18049476D01*
X2501429Y-18249476D02*
X2501429Y-18049476D01*
X2587143Y-18249476D02*
X2587143Y-18144714D01*
X2577619Y-18125667D01*
X2558571Y-18116143D01*
X2530000Y-18116143D01*
X2510952Y-18125667D01*
X2501429Y-18135190D01*
X2710952Y-18249476D02*
X2691905Y-18239952D01*
X2682381Y-18230429D01*
X2672857Y-18211381D01*
X2672857Y-18154238D01*
X2682381Y-18135190D01*
X2691905Y-18125667D01*
X2710952Y-18116143D01*
X2739524Y-18116143D01*
X2758571Y-18125667D01*
X2768095Y-18135190D01*
X2777619Y-18154238D01*
X2777619Y-18211381D01*
X2768095Y-18230429D01*
X2758571Y-18239952D01*
X2739524Y-18249476D01*
X2710952Y-18249476D01*
X2891905Y-18249476D02*
X2872857Y-18239952D01*
X2863333Y-18220905D01*
X2863333Y-18049476D01*
X3044286Y-18239952D02*
X3025238Y-18249476D01*
X2987143Y-18249476D01*
X2968095Y-18239952D01*
X2958571Y-18220905D01*
X2958571Y-18144714D01*
X2968095Y-18125667D01*
X2987143Y-18116143D01*
X3025238Y-18116143D01*
X3044286Y-18125667D01*
X3053809Y-18144714D01*
X3053809Y-18163762D01*
X2958571Y-18182810D01*
X3130000Y-18239952D02*
X3149048Y-18249476D01*
X3187143Y-18249476D01*
X3206190Y-18239952D01*
X3215714Y-18220905D01*
X3215714Y-18211381D01*
X3206190Y-18192333D01*
X3187143Y-18182810D01*
X3158571Y-18182810D01*
X3139524Y-18173286D01*
X3130000Y-18154238D01*
X3130000Y-18144714D01*
X3139524Y-18125667D01*
X3158571Y-18116143D01*
X3187143Y-18116143D01*
X3206190Y-18125667D01*
X3282381Y-18325667D02*
X3291905Y-18316143D01*
X3310952Y-18287571D01*
X3320476Y-18268524D01*
X3330000Y-18239952D01*
X3339524Y-18192333D01*
X3339524Y-18154238D01*
X3330000Y-18106619D01*
X3320476Y-18078048D01*
X3310952Y-18059000D01*
X3291905Y-18030429D01*
X3282381Y-18020905D01*
X-1780000Y-18323000D02*
X-1780000Y-18523000D01*
X-1880000Y-18423000D02*
X-1680000Y-18423000D01*
X-1431905Y-18332524D02*
X-1422381Y-18323000D01*
X-1403333Y-18313476D01*
X-1355714Y-18313476D01*
X-1336667Y-18323000D01*
X-1327143Y-18332524D01*
X-1317619Y-18351571D01*
X-1317619Y-18370619D01*
X-1327143Y-18399190D01*
X-1441428Y-18513476D01*
X-1317619Y-18513476D01*
X-1231905Y-18494429D02*
X-1222381Y-18503952D01*
X-1231905Y-18513476D01*
X-1241429Y-18503952D01*
X-1231905Y-18494429D01*
X-1231905Y-18513476D01*
X-1041428Y-18313476D02*
X-1136667Y-18313476D01*
X-1146190Y-18408714D01*
X-1136667Y-18399190D01*
X-1117619Y-18389667D01*
X-1070000Y-18389667D01*
X-1050952Y-18399190D01*
X-1041428Y-18408714D01*
X-1031905Y-18427762D01*
X-1031905Y-18475381D01*
X-1041428Y-18494429D01*
X-1050952Y-18503952D01*
X-1070000Y-18513476D01*
X-1117619Y-18513476D01*
X-1136667Y-18503952D01*
X-1146190Y-18494429D01*
X-908095Y-18313476D02*
X-889048Y-18313476D01*
X-870000Y-18323000D01*
X-860476Y-18332524D01*
X-850952Y-18351571D01*
X-841428Y-18389667D01*
X-841428Y-18437286D01*
X-850952Y-18475381D01*
X-860476Y-18494429D01*
X-870000Y-18503952D01*
X-889048Y-18513476D01*
X-908095Y-18513476D01*
X-927143Y-18503952D01*
X-936667Y-18494429D01*
X-946190Y-18475381D01*
X-955714Y-18437286D01*
X-955714Y-18389667D01*
X-946190Y-18351571D01*
X-936667Y-18332524D01*
X-927143Y-18323000D01*
X-908095Y-18313476D01*
X-717619Y-18313476D02*
X-698571Y-18313476D01*
X-679524Y-18323000D01*
X-670000Y-18332524D01*
X-660476Y-18351571D01*
X-650952Y-18389667D01*
X-650952Y-18437286D01*
X-660476Y-18475381D01*
X-670000Y-18494429D01*
X-679524Y-18503952D01*
X-698571Y-18513476D01*
X-717619Y-18513476D01*
X-736667Y-18503952D01*
X-746190Y-18494429D01*
X-755714Y-18475381D01*
X-765238Y-18437286D01*
X-765238Y-18389667D01*
X-755714Y-18351571D01*
X-746190Y-18332524D01*
X-736667Y-18323000D01*
X-717619Y-18313476D01*
X-565238Y-18513476D02*
X-565238Y-18380143D01*
X-565238Y-18399190D02*
X-555714Y-18389667D01*
X-536667Y-18380143D01*
X-508095Y-18380143D01*
X-489048Y-18389667D01*
X-479524Y-18408714D01*
X-479524Y-18513476D01*
X-479524Y-18408714D02*
X-470000Y-18389667D01*
X-450952Y-18380143D01*
X-422381Y-18380143D01*
X-403333Y-18389667D01*
X-393809Y-18408714D01*
X-393809Y-18513476D01*
X-298571Y-18513476D02*
X-298571Y-18380143D01*
X-298571Y-18399190D02*
X-289048Y-18389667D01*
X-270000Y-18380143D01*
X-241428Y-18380143D01*
X-222381Y-18389667D01*
X-212857Y-18408714D01*
X-212857Y-18513476D01*
X-212857Y-18408714D02*
X-203333Y-18389667D01*
X-184286Y-18380143D01*
X-155714Y-18380143D01*
X-136667Y-18389667D01*
X-127143Y-18408714D01*
X-127143Y-18513476D01*
X263333Y-18303952D02*
X91905Y-18561095D01*
X520476Y-18313476D02*
X539524Y-18313476D01*
X558571Y-18323000D01*
X568095Y-18332524D01*
X577619Y-18351571D01*
X587143Y-18389667D01*
X587143Y-18437286D01*
X577619Y-18475381D01*
X568095Y-18494429D01*
X558571Y-18503952D01*
X539524Y-18513476D01*
X520476Y-18513476D01*
X501428Y-18503952D01*
X491905Y-18494429D01*
X482381Y-18475381D01*
X472857Y-18437286D01*
X472857Y-18389667D01*
X482381Y-18351571D01*
X491905Y-18332524D01*
X501428Y-18323000D01*
X520476Y-18313476D01*
X672857Y-18494429D02*
X682381Y-18503952D01*
X672857Y-18513476D01*
X663333Y-18503952D01*
X672857Y-18494429D01*
X672857Y-18513476D01*
X806190Y-18313476D02*
X825238Y-18313476D01*
X844286Y-18323000D01*
X853809Y-18332524D01*
X863333Y-18351571D01*
X872857Y-18389667D01*
X872857Y-18437286D01*
X863333Y-18475381D01*
X853809Y-18494429D01*
X844286Y-18503952D01*
X825238Y-18513476D01*
X806190Y-18513476D01*
X787143Y-18503952D01*
X777619Y-18494429D01*
X768095Y-18475381D01*
X758571Y-18437286D01*
X758571Y-18389667D01*
X768095Y-18351571D01*
X777619Y-18332524D01*
X787143Y-18323000D01*
X806190Y-18313476D01*
X968095Y-18513476D02*
X1006190Y-18513476D01*
X1025238Y-18503952D01*
X1034762Y-18494429D01*
X1053810Y-18465857D01*
X1063333Y-18427762D01*
X1063333Y-18351571D01*
X1053810Y-18332524D01*
X1044286Y-18323000D01*
X1025238Y-18313476D01*
X987143Y-18313476D01*
X968095Y-18323000D01*
X958571Y-18332524D01*
X949048Y-18351571D01*
X949048Y-18399190D01*
X958571Y-18418238D01*
X968095Y-18427762D01*
X987143Y-18437286D01*
X1025238Y-18437286D01*
X1044286Y-18427762D01*
X1053810Y-18418238D01*
X1063333Y-18399190D01*
X1177619Y-18399190D02*
X1158571Y-18389667D01*
X1149048Y-18380143D01*
X1139524Y-18361095D01*
X1139524Y-18351571D01*
X1149048Y-18332524D01*
X1158571Y-18323000D01*
X1177619Y-18313476D01*
X1215714Y-18313476D01*
X1234762Y-18323000D01*
X1244286Y-18332524D01*
X1253810Y-18351571D01*
X1253810Y-18361095D01*
X1244286Y-18380143D01*
X1234762Y-18389667D01*
X1215714Y-18399190D01*
X1177619Y-18399190D01*
X1158571Y-18408714D01*
X1149048Y-18418238D01*
X1139524Y-18437286D01*
X1139524Y-18475381D01*
X1149048Y-18494429D01*
X1158571Y-18503952D01*
X1177619Y-18513476D01*
X1215714Y-18513476D01*
X1234762Y-18503952D01*
X1244286Y-18494429D01*
X1253810Y-18475381D01*
X1253810Y-18437286D01*
X1244286Y-18418238D01*
X1234762Y-18408714D01*
X1215714Y-18399190D01*
X1425238Y-18380143D02*
X1425238Y-18513476D01*
X1377619Y-18303952D02*
X1330000Y-18446810D01*
X1453809Y-18446810D01*
X1520476Y-18313476D02*
X1520476Y-18351571D01*
X1596667Y-18313476D02*
X1596667Y-18351571D01*
X1891905Y-18589667D02*
X1882381Y-18580143D01*
X1863333Y-18551571D01*
X1853809Y-18532524D01*
X1844286Y-18503952D01*
X1834762Y-18456333D01*
X1834762Y-18418238D01*
X1844286Y-18370619D01*
X1853809Y-18342048D01*
X1863333Y-18323000D01*
X1882381Y-18294429D01*
X1891905Y-18284905D01*
X2072857Y-18513476D02*
X1958571Y-18513476D01*
X2015714Y-18513476D02*
X2015714Y-18313476D01*
X1996667Y-18342048D01*
X1977619Y-18361095D01*
X1958571Y-18370619D01*
X2139524Y-18313476D02*
X2272857Y-18313476D01*
X2187143Y-18513476D01*
X2501429Y-18513476D02*
X2501429Y-18313476D01*
X2587143Y-18513476D02*
X2587143Y-18408714D01*
X2577619Y-18389667D01*
X2558571Y-18380143D01*
X2530000Y-18380143D01*
X2510952Y-18389667D01*
X2501429Y-18399190D01*
X2710952Y-18513476D02*
X2691905Y-18503952D01*
X2682381Y-18494429D01*
X2672857Y-18475381D01*
X2672857Y-18418238D01*
X2682381Y-18399190D01*
X2691905Y-18389667D01*
X2710952Y-18380143D01*
X2739524Y-18380143D01*
X2758571Y-18389667D01*
X2768095Y-18399190D01*
X2777619Y-18418238D01*
X2777619Y-18475381D01*
X2768095Y-18494429D01*
X2758571Y-18503952D01*
X2739524Y-18513476D01*
X2710952Y-18513476D01*
X2891905Y-18513476D02*
X2872857Y-18503952D01*
X2863333Y-18484905D01*
X2863333Y-18313476D01*
X3044286Y-18503952D02*
X3025238Y-18513476D01*
X2987143Y-18513476D01*
X2968095Y-18503952D01*
X2958571Y-18484905D01*
X2958571Y-18408714D01*
X2968095Y-18389667D01*
X2987143Y-18380143D01*
X3025238Y-18380143D01*
X3044286Y-18389667D01*
X3053809Y-18408714D01*
X3053809Y-18427762D01*
X2958571Y-18446810D01*
X3130000Y-18503952D02*
X3149048Y-18513476D01*
X3187143Y-18513476D01*
X3206190Y-18503952D01*
X3215714Y-18484905D01*
X3215714Y-18475381D01*
X3206190Y-18456333D01*
X3187143Y-18446810D01*
X3158571Y-18446810D01*
X3139524Y-18437286D01*
X3130000Y-18418238D01*
X3130000Y-18408714D01*
X3139524Y-18389667D01*
X3158571Y-18380143D01*
X3187143Y-18380143D01*
X3206190Y-18389667D01*
X3282381Y-18589667D02*
X3291905Y-18580143D01*
X3310952Y-18551571D01*
X3320476Y-18532524D01*
X3330000Y-18503952D01*
X3339524Y-18456333D01*
X3339524Y-18418238D01*
X3330000Y-18370619D01*
X3320476Y-18342048D01*
X3310952Y-18323000D01*
X3291905Y-18294429D01*
X3282381Y-18284905D01*
X-1709289Y-18813711D02*
X-1709289Y-18672289D01*
X-1850711Y-18672289D01*
X-1850711Y-18813711D01*
X-1709289Y-18813711D01*
X-1441428Y-18633476D02*
X-1317619Y-18633476D01*
X-1384286Y-18709667D01*
X-1355714Y-18709667D01*
X-1336667Y-18719190D01*
X-1327143Y-18728714D01*
X-1317619Y-18747762D01*
X-1317619Y-18795381D01*
X-1327143Y-18814429D01*
X-1336667Y-18823952D01*
X-1355714Y-18833476D01*
X-1412857Y-18833476D01*
X-1431905Y-18823952D01*
X-1441428Y-18814429D01*
X-1231905Y-18814429D02*
X-1222381Y-18823952D01*
X-1231905Y-18833476D01*
X-1241429Y-18823952D01*
X-1231905Y-18814429D01*
X-1231905Y-18833476D01*
X-1155714Y-18633476D02*
X-1022381Y-18633476D01*
X-1108095Y-18833476D01*
X-965238Y-18633476D02*
X-841428Y-18633476D01*
X-908095Y-18709667D01*
X-879524Y-18709667D01*
X-860476Y-18719190D01*
X-850952Y-18728714D01*
X-841428Y-18747762D01*
X-841428Y-18795381D01*
X-850952Y-18814429D01*
X-860476Y-18823952D01*
X-879524Y-18833476D01*
X-936667Y-18833476D01*
X-955714Y-18823952D01*
X-965238Y-18814429D01*
X-717619Y-18633476D02*
X-698571Y-18633476D01*
X-679524Y-18643000D01*
X-670000Y-18652524D01*
X-660476Y-18671571D01*
X-650952Y-18709667D01*
X-650952Y-18757286D01*
X-660476Y-18795381D01*
X-670000Y-18814429D01*
X-679524Y-18823952D01*
X-698571Y-18833476D01*
X-717619Y-18833476D01*
X-736667Y-18823952D01*
X-746190Y-18814429D01*
X-755714Y-18795381D01*
X-765238Y-18757286D01*
X-765238Y-18709667D01*
X-755714Y-18671571D01*
X-746190Y-18652524D01*
X-736667Y-18643000D01*
X-717619Y-18633476D01*
X-565238Y-18833476D02*
X-565238Y-18700143D01*
X-565238Y-18719190D02*
X-555714Y-18709667D01*
X-536667Y-18700143D01*
X-508095Y-18700143D01*
X-489048Y-18709667D01*
X-479524Y-18728714D01*
X-479524Y-18833476D01*
X-479524Y-18728714D02*
X-470000Y-18709667D01*
X-450952Y-18700143D01*
X-422381Y-18700143D01*
X-403333Y-18709667D01*
X-393809Y-18728714D01*
X-393809Y-18833476D01*
X-298571Y-18833476D02*
X-298571Y-18700143D01*
X-298571Y-18719190D02*
X-289048Y-18709667D01*
X-270000Y-18700143D01*
X-241428Y-18700143D01*
X-222381Y-18709667D01*
X-212857Y-18728714D01*
X-212857Y-18833476D01*
X-212857Y-18728714D02*
X-203333Y-18709667D01*
X-184286Y-18700143D01*
X-155714Y-18700143D01*
X-136667Y-18709667D01*
X-127143Y-18728714D01*
X-127143Y-18833476D01*
X263333Y-18623952D02*
X91905Y-18881095D01*
X520476Y-18633476D02*
X539524Y-18633476D01*
X558571Y-18643000D01*
X568095Y-18652524D01*
X577619Y-18671571D01*
X587143Y-18709667D01*
X587143Y-18757286D01*
X577619Y-18795381D01*
X568095Y-18814429D01*
X558571Y-18823952D01*
X539524Y-18833476D01*
X520476Y-18833476D01*
X501428Y-18823952D01*
X491905Y-18814429D01*
X482381Y-18795381D01*
X472857Y-18757286D01*
X472857Y-18709667D01*
X482381Y-18671571D01*
X491905Y-18652524D01*
X501428Y-18643000D01*
X520476Y-18633476D01*
X672857Y-18814429D02*
X682381Y-18823952D01*
X672857Y-18833476D01*
X663333Y-18823952D01*
X672857Y-18814429D01*
X672857Y-18833476D01*
X872857Y-18833476D02*
X758571Y-18833476D01*
X815714Y-18833476D02*
X815714Y-18633476D01*
X796667Y-18662048D01*
X777619Y-18681095D01*
X758571Y-18690619D01*
X1044286Y-18700143D02*
X1044286Y-18833476D01*
X996667Y-18623952D02*
X949048Y-18766810D01*
X1072857Y-18766810D01*
X1234762Y-18633476D02*
X1196667Y-18633476D01*
X1177619Y-18643000D01*
X1168095Y-18652524D01*
X1149048Y-18681095D01*
X1139524Y-18719190D01*
X1139524Y-18795381D01*
X1149048Y-18814429D01*
X1158571Y-18823952D01*
X1177619Y-18833476D01*
X1215714Y-18833476D01*
X1234762Y-18823952D01*
X1244286Y-18814429D01*
X1253810Y-18795381D01*
X1253810Y-18747762D01*
X1244286Y-18728714D01*
X1234762Y-18719190D01*
X1215714Y-18709667D01*
X1177619Y-18709667D01*
X1158571Y-18719190D01*
X1149048Y-18728714D01*
X1139524Y-18747762D01*
X1349048Y-18833476D02*
X1387143Y-18833476D01*
X1406190Y-18823952D01*
X1415714Y-18814429D01*
X1434762Y-18785857D01*
X1444286Y-18747762D01*
X1444286Y-18671571D01*
X1434762Y-18652524D01*
X1425238Y-18643000D01*
X1406190Y-18633476D01*
X1368095Y-18633476D01*
X1349048Y-18643000D01*
X1339524Y-18652524D01*
X1330000Y-18671571D01*
X1330000Y-18719190D01*
X1339524Y-18738238D01*
X1349048Y-18747762D01*
X1368095Y-18757286D01*
X1406190Y-18757286D01*
X1425238Y-18747762D01*
X1434762Y-18738238D01*
X1444286Y-18719190D01*
X1520476Y-18633476D02*
X1520476Y-18671571D01*
X1596667Y-18633476D02*
X1596667Y-18671571D01*
X1891905Y-18909667D02*
X1882381Y-18900143D01*
X1863333Y-18871571D01*
X1853809Y-18852524D01*
X1844286Y-18823952D01*
X1834762Y-18776333D01*
X1834762Y-18738238D01*
X1844286Y-18690619D01*
X1853809Y-18662048D01*
X1863333Y-18643000D01*
X1882381Y-18614429D01*
X1891905Y-18604905D01*
X1996667Y-18719190D02*
X1977619Y-18709667D01*
X1968095Y-18700143D01*
X1958571Y-18681095D01*
X1958571Y-18671571D01*
X1968095Y-18652524D01*
X1977619Y-18643000D01*
X1996667Y-18633476D01*
X2034762Y-18633476D01*
X2053809Y-18643000D01*
X2063333Y-18652524D01*
X2072857Y-18671571D01*
X2072857Y-18681095D01*
X2063333Y-18700143D01*
X2053809Y-18709667D01*
X2034762Y-18719190D01*
X1996667Y-18719190D01*
X1977619Y-18728714D01*
X1968095Y-18738238D01*
X1958571Y-18757286D01*
X1958571Y-18795381D01*
X1968095Y-18814429D01*
X1977619Y-18823952D01*
X1996667Y-18833476D01*
X2034762Y-18833476D01*
X2053809Y-18823952D01*
X2063333Y-18814429D01*
X2072857Y-18795381D01*
X2072857Y-18757286D01*
X2063333Y-18738238D01*
X2053809Y-18728714D01*
X2034762Y-18719190D01*
X2310952Y-18833476D02*
X2310952Y-18633476D01*
X2396667Y-18833476D02*
X2396667Y-18728714D01*
X2387143Y-18709667D01*
X2368095Y-18700143D01*
X2339524Y-18700143D01*
X2320476Y-18709667D01*
X2310952Y-18719190D01*
X2520476Y-18833476D02*
X2501429Y-18823952D01*
X2491905Y-18814429D01*
X2482381Y-18795381D01*
X2482381Y-18738238D01*
X2491905Y-18719190D01*
X2501429Y-18709667D01*
X2520476Y-18700143D01*
X2549048Y-18700143D01*
X2568095Y-18709667D01*
X2577619Y-18719190D01*
X2587143Y-18738238D01*
X2587143Y-18795381D01*
X2577619Y-18814429D01*
X2568095Y-18823952D01*
X2549048Y-18833476D01*
X2520476Y-18833476D01*
X2701429Y-18833476D02*
X2682381Y-18823952D01*
X2672857Y-18804905D01*
X2672857Y-18633476D01*
X2853809Y-18823952D02*
X2834762Y-18833476D01*
X2796667Y-18833476D01*
X2777619Y-18823952D01*
X2768095Y-18804905D01*
X2768095Y-18728714D01*
X2777619Y-18709667D01*
X2796667Y-18700143D01*
X2834762Y-18700143D01*
X2853809Y-18709667D01*
X2863333Y-18728714D01*
X2863333Y-18747762D01*
X2768095Y-18766810D01*
X2939524Y-18823952D02*
X2958571Y-18833476D01*
X2996667Y-18833476D01*
X3015714Y-18823952D01*
X3025238Y-18804905D01*
X3025238Y-18795381D01*
X3015714Y-18776333D01*
X2996667Y-18766810D01*
X2968095Y-18766810D01*
X2949048Y-18757286D01*
X2939524Y-18738238D01*
X2939524Y-18728714D01*
X2949048Y-18709667D01*
X2968095Y-18700143D01*
X2996667Y-18700143D01*
X3015714Y-18709667D01*
X3091905Y-18909667D02*
X3101428Y-18900143D01*
X3120476Y-18871571D01*
X3130000Y-18852524D01*
X3139524Y-18823952D01*
X3149048Y-18776333D01*
X3149048Y-18738238D01*
X3139524Y-18690619D01*
X3130000Y-18662048D01*
X3120476Y-18643000D01*
X3101428Y-18614429D01*
X3091905Y-18604905D01*
M02*
