G04 #@! TF.GenerationSoftware,KiCad,Pcbnew,(6.0.7-1)-1*
G04 #@! TF.CreationDate,2022-08-16T19:54:08+02:00*
G04 #@! TF.ProjectId,keychron-optical-keyboard,6b657963-6872-46f6-9e2d-6f7074696361,rev?*
G04 #@! TF.SameCoordinates,Original*
G04 #@! TF.FileFunction,Paste,Top*
G04 #@! TF.FilePolarity,Positive*
%FSLAX46Y46*%
G04 Gerber Fmt 4.6, Leading zero omitted, Abs format (unit mm)*
G04 Created by KiCad (PCBNEW (6.0.7-1)-1) date 2022-08-16 19:54:08*
%MOMM*%
%LPD*%
G01*
G04 APERTURE LIST*
G04 Aperture macros list*
%AMRoundRect*
0 Rectangle with rounded corners*
0 $1 Rounding radius*
0 $2 $3 $4 $5 $6 $7 $8 $9 X,Y pos of 4 corners*
0 Add a 4 corners polygon primitive as box body*
4,1,4,$2,$3,$4,$5,$6,$7,$8,$9,$2,$3,0*
0 Add four circle primitives for the rounded corners*
1,1,$1+$1,$2,$3*
1,1,$1+$1,$4,$5*
1,1,$1+$1,$6,$7*
1,1,$1+$1,$8,$9*
0 Add four rect primitives between the rounded corners*
20,1,$1+$1,$2,$3,$4,$5,0*
20,1,$1+$1,$4,$5,$6,$7,0*
20,1,$1+$1,$6,$7,$8,$9,0*
20,1,$1+$1,$8,$9,$2,$3,0*%
%AMRotRect*
0 Rectangle, with rotation*
0 The origin of the aperture is its center*
0 $1 length*
0 $2 width*
0 $3 Rotation angle, in degrees counterclockwise*
0 Add horizontal line*
21,1,$1,$2,0,0,$3*%
G04 Aperture macros list end*
%ADD10RoundRect,0.250000X0.450000X-0.350000X0.450000X0.350000X-0.450000X0.350000X-0.450000X-0.350000X0*%
%ADD11RoundRect,0.250000X-0.450000X0.350000X-0.450000X-0.350000X0.450000X-0.350000X0.450000X0.350000X0*%
%ADD12R,0.700000X0.800000*%
%ADD13RotRect,0.700000X0.800000X70.000000*%
%ADD14RoundRect,0.237500X-0.287500X-0.237500X0.287500X-0.237500X0.287500X0.237500X-0.287500X0.237500X0*%
%ADD15RoundRect,0.250000X-0.529041X0.212405X-0.336095X-0.460478X0.529041X-0.212405X0.336095X0.460478X0*%
%ADD16RotRect,0.700000X0.800000X110.000000*%
%ADD17RoundRect,0.250000X-0.482801X-0.303155X0.174983X-0.542569X0.482801X0.303155X-0.174983X0.542569X0*%
%ADD18RoundRect,0.250000X-0.174983X-0.542569X0.482801X-0.303155X0.174983X0.542569X-0.482801X0.303155X0*%
%ADD19RotRect,0.700000X0.800000X16.000000*%
%ADD20RoundRect,0.250000X-0.336095X0.460478X-0.529041X-0.212405X0.336095X-0.460478X0.529041X0.212405X0*%
%ADD21RotRect,0.700000X0.800000X344.000000*%
G04 APERTURE END LIST*
D10*
X186450000Y-50600000D03*
X186450000Y-48600000D03*
D11*
X32049999Y-16500000D03*
X32049999Y-18500000D03*
X288550000Y-16500000D03*
X288550000Y-18500000D03*
D12*
X268100000Y-2950000D03*
X268100000Y-4750000D03*
X262700000Y-4750000D03*
X262700000Y-2950000D03*
D11*
X79550000Y-73500000D03*
X79550000Y-75500000D03*
X217300000Y2500000D03*
X217300000Y500000D03*
X41550000Y-73500000D03*
X41550000Y-75500000D03*
X79550000Y-35500000D03*
X79550000Y-37500000D03*
D12*
X16350000Y-40950000D03*
X16350000Y-42750000D03*
X10950000Y-42750000D03*
X10950000Y-40950000D03*
D11*
X160300000Y2500000D03*
X160300000Y500000D03*
D10*
X127050000Y-63000000D03*
X127050000Y-61000000D03*
D12*
X277600000Y-78950000D03*
X277600000Y-80750000D03*
X272200000Y-80750000D03*
X272200000Y-78950000D03*
D11*
X245800000Y-73500000D03*
X245800000Y-75500000D03*
D12*
X92350000Y-40950000D03*
X92350000Y-42750000D03*
X86950000Y-42750000D03*
X86950000Y-40950000D03*
X139850000Y-59950000D03*
X139850000Y-61750000D03*
X134450000Y-61750000D03*
X134450000Y-59950000D03*
D11*
X131800000Y-16500000D03*
X131800000Y-18500000D03*
X60550000Y-35500000D03*
X60550000Y-37500000D03*
D12*
X135100000Y-2950000D03*
X135100000Y-4750000D03*
X129700000Y-4750000D03*
X129700000Y-2950000D03*
X73350000Y-78950000D03*
X73350000Y-80750000D03*
X67950000Y-80750000D03*
X67950000Y-78950000D03*
D11*
X141300000Y2500000D03*
X141300000Y500000D03*
D12*
X201600000Y-78950000D03*
X201600000Y-80750000D03*
X196200000Y-80750000D03*
X196200000Y-78950000D03*
D11*
X198300000Y2500000D03*
X198300000Y500000D03*
D12*
X282350000Y-21950000D03*
X282350000Y-23750000D03*
X276950000Y-23750000D03*
X276950000Y-21950000D03*
X187350000Y-40950000D03*
X187350000Y-42750000D03*
X181950000Y-42750000D03*
X181950000Y-40950000D03*
D11*
X27300000Y2500000D03*
X27300000Y500000D03*
D10*
X286200000Y-50600000D03*
X286200000Y-48600000D03*
D12*
X130350000Y-40950000D03*
X130350000Y-42750000D03*
X124950000Y-42750000D03*
X124950000Y-40950000D03*
D11*
X283800000Y-54500000D03*
X283800000Y-56500000D03*
D12*
X154100000Y-2950000D03*
X154100000Y-4750000D03*
X148700000Y-4750000D03*
X148700000Y-2950000D03*
D13*
X116490336Y-91535605D03*
X118181782Y-92151241D03*
X116334873Y-97225581D03*
X114643427Y-96609945D03*
D11*
X84300000Y2500000D03*
X84300000Y500000D03*
D12*
X287100000Y-2950000D03*
X287100000Y-4750000D03*
X281700000Y-4750000D03*
X281700000Y-2950000D03*
X87600000Y-21950000D03*
X87600000Y-23750000D03*
X82200000Y-23750000D03*
X82200000Y-21950000D03*
X220600000Y-78950000D03*
X220600000Y-80750000D03*
X215200000Y-80750000D03*
X215200000Y-78950000D03*
D11*
X93800000Y-16500000D03*
X93800000Y-18500000D03*
D10*
X91450000Y-50600000D03*
X91450000Y-48600000D03*
X167450000Y-50600000D03*
X167450000Y-48600000D03*
D12*
X249100000Y-2950000D03*
X249100000Y-4750000D03*
X243700000Y-4750000D03*
X243700000Y-2950000D03*
X101850000Y-59950000D03*
X101850000Y-61750000D03*
X96450000Y-61750000D03*
X96450000Y-59950000D03*
D11*
X293300000Y2500000D03*
X293300000Y500000D03*
D12*
X287100000Y-40950000D03*
X287100000Y-42750000D03*
X281700000Y-42750000D03*
X281700000Y-40950000D03*
D11*
X117550000Y-35500000D03*
X117550000Y-37500000D03*
D12*
X277600000Y-59950000D03*
X277600000Y-61750000D03*
X272200000Y-61750000D03*
X272200000Y-59950000D03*
D11*
X146050000Y-73500000D03*
X146050000Y-75500000D03*
X174550000Y-35500000D03*
X174550000Y-37500000D03*
X271925000Y-35500000D03*
X271925000Y-37500000D03*
X122300000Y2500000D03*
X122300000Y500000D03*
D12*
X106600000Y-21950000D03*
X106600000Y-23750000D03*
X101200000Y-23750000D03*
X101200000Y-21950000D03*
X220600000Y-21950000D03*
X220600000Y-23750000D03*
X215200000Y-23750000D03*
X215200000Y-21950000D03*
D10*
X205450000Y-50600000D03*
X205450000Y-48600000D03*
D12*
X239600000Y-21950000D03*
X239600000Y-23750000D03*
X234200000Y-23750000D03*
X234200000Y-21950000D03*
X244350000Y-40950000D03*
X244350000Y-42750000D03*
X238950000Y-42750000D03*
X238950000Y-40950000D03*
D11*
X231550000Y-35500000D03*
X231550000Y-37500000D03*
D12*
X40100000Y-2950000D03*
X40100000Y-4750000D03*
X34700000Y-4750000D03*
X34700000Y-2950000D03*
D14*
X117875000Y-52200000D03*
X119625000Y-52200000D03*
D12*
X63850000Y-59950000D03*
X63850000Y-61750000D03*
X58450000Y-61750000D03*
X58450000Y-59950000D03*
X149350000Y-40950000D03*
X149350000Y-42750000D03*
X143950000Y-42750000D03*
X143950000Y-40950000D03*
X116100000Y-2950000D03*
X116100000Y-4750000D03*
X110700000Y-4750000D03*
X110700000Y-2950000D03*
D11*
X293300000Y-35500000D03*
X293300000Y-37500000D03*
X226800000Y-16500000D03*
X226800000Y-18500000D03*
D12*
X258600000Y-21950000D03*
X258600000Y-23750000D03*
X253200000Y-23750000D03*
X253200000Y-21950000D03*
D11*
X103300000Y2500000D03*
X103300000Y500000D03*
D12*
X163600000Y-21950000D03*
X163600000Y-23750000D03*
X158200000Y-23750000D03*
X158200000Y-21950000D03*
D11*
X264800000Y-73500000D03*
X264800000Y-75500000D03*
D15*
X186389379Y-76309055D03*
X186940653Y-78231579D03*
D12*
X139850000Y-78950000D03*
X139850000Y-80750000D03*
X134450000Y-80750000D03*
X134450000Y-78950000D03*
D11*
X283800000Y-73500000D03*
X283800000Y-75500000D03*
X112800000Y-16500000D03*
X112800000Y-18500000D03*
X41550000Y-35500000D03*
X41550000Y-37500000D03*
D12*
X173100000Y-2950000D03*
X173100000Y-4750000D03*
X167700000Y-4750000D03*
X167700000Y-2950000D03*
D11*
X27300000Y-54500000D03*
X27300000Y-56500000D03*
X65300000Y2500000D03*
X65300000Y500000D03*
X55800000Y-16500000D03*
X55800000Y-18500000D03*
D12*
X44850000Y-59950000D03*
X44850000Y-61750000D03*
X39450000Y-61750000D03*
X39450000Y-59950000D03*
X201600000Y-21950000D03*
X201600000Y-23750000D03*
X196200000Y-23750000D03*
X196200000Y-21950000D03*
X54350000Y-40950000D03*
X54350000Y-42750000D03*
X48950000Y-42750000D03*
X48950000Y-40950000D03*
X168350000Y-40950000D03*
X168350000Y-42750000D03*
X162950000Y-42750000D03*
X162950000Y-40950000D03*
D10*
X10700000Y-50600000D03*
X10700000Y-48600000D03*
D12*
X68600000Y-21950000D03*
X68600000Y-23750000D03*
X63200000Y-23750000D03*
X63200000Y-21950000D03*
D11*
X22550000Y-35500000D03*
X22550000Y-37500000D03*
D12*
X196850000Y-59950000D03*
X196850000Y-61750000D03*
X191450000Y-61750000D03*
X191450000Y-59950000D03*
D10*
X72450000Y-53700000D03*
X72450000Y-51700000D03*
D11*
X207800000Y-16500000D03*
X207800000Y-18500000D03*
D10*
X245825000Y-50600000D03*
X245825000Y-48600000D03*
X110450000Y-50600000D03*
X110450000Y-48600000D03*
D12*
X211100000Y-2950000D03*
X211100000Y-4750000D03*
X205700000Y-4750000D03*
X205700000Y-2950000D03*
X215850000Y-59950000D03*
X215850000Y-61750000D03*
X210450000Y-61750000D03*
X210450000Y-59950000D03*
D11*
X250550000Y-35500000D03*
X250550000Y-37500000D03*
D16*
X164553851Y-89517686D03*
X166245298Y-88902050D03*
X168092206Y-93976390D03*
X166400760Y-94592026D03*
D11*
X98550000Y-35500000D03*
X98550000Y-37500000D03*
D12*
X73350000Y-40950000D03*
X73350000Y-42750000D03*
X67950000Y-42750000D03*
X67950000Y-40950000D03*
X120850000Y-59950000D03*
X120850000Y-61750000D03*
X115450000Y-61750000D03*
X115450000Y-59950000D03*
X230100000Y-2950000D03*
X230100000Y-4750000D03*
X224700000Y-4750000D03*
X224700000Y-2950000D03*
D11*
X236300000Y2500000D03*
X236300000Y500000D03*
D12*
X182600000Y-21950000D03*
X182600000Y-23750000D03*
X177200000Y-23750000D03*
X177200000Y-21950000D03*
D11*
X241050000Y-54500000D03*
X241050000Y-56500000D03*
X226800000Y-73500000D03*
X226800000Y-75500000D03*
X74800000Y-16500000D03*
X74800000Y-18500000D03*
D17*
X113489535Y-83845501D03*
X115368921Y-84529541D03*
D11*
X188800000Y-16500000D03*
X188800000Y-18500000D03*
X136550000Y-35500000D03*
X136550000Y-37500000D03*
D10*
X34450000Y-50600000D03*
X34450000Y-48600000D03*
D12*
X225350000Y-40950000D03*
X225350000Y-42750000D03*
X219950000Y-42750000D03*
X219950000Y-40950000D03*
D11*
X70050000Y-54500000D03*
X70050000Y-56500000D03*
X155550000Y-35500000D03*
X155550000Y-37500000D03*
D12*
X59100000Y-2950000D03*
X59100000Y-4750000D03*
X53700000Y-4750000D03*
X53700000Y-2950000D03*
D11*
X212550000Y-35500000D03*
X212550000Y-37500000D03*
D12*
X82850000Y-59950000D03*
X82850000Y-61750000D03*
X77450000Y-61750000D03*
X77450000Y-59950000D03*
D11*
X245800000Y-16500000D03*
X245800000Y-18500000D03*
X184050000Y-54500000D03*
X184050000Y-56500000D03*
D18*
X157312001Y-85555601D03*
X159191387Y-84871561D03*
D12*
X21100000Y-2950000D03*
X21100000Y-4750000D03*
X15700000Y-4750000D03*
X15700000Y-2950000D03*
D11*
X127050000Y-54500000D03*
X127050000Y-56500000D03*
D12*
X78100000Y-2950000D03*
X78100000Y-4750000D03*
X72700000Y-4750000D03*
X72700000Y-2950000D03*
X21100000Y-59950000D03*
X21100000Y-61750000D03*
X15700000Y-61750000D03*
X15700000Y-59950000D03*
X35350000Y-40950000D03*
X35350000Y-42750000D03*
X29950000Y-42750000D03*
X29950000Y-40950000D03*
D11*
X262425000Y-54500000D03*
X262425000Y-56500000D03*
X207800000Y-73500000D03*
X207800000Y-75500000D03*
D10*
X148450000Y-53700000D03*
X148450000Y-51700000D03*
D11*
X22550000Y-73500000D03*
X22550000Y-75500000D03*
D12*
X206350000Y-40950000D03*
X206350000Y-42750000D03*
X200950000Y-42750000D03*
X200950000Y-40950000D03*
D11*
X222050000Y-54500000D03*
X222050000Y-56500000D03*
D12*
X54350000Y-78950000D03*
X54350000Y-80750000D03*
X48950000Y-80750000D03*
X48950000Y-78950000D03*
D11*
X60550000Y-73500000D03*
X60550000Y-75500000D03*
D12*
X192100000Y-2950000D03*
X192100000Y-4750000D03*
X186700000Y-4750000D03*
X186700000Y-2950000D03*
D11*
X46300000Y2500000D03*
X46300000Y500000D03*
X150800000Y-16500000D03*
X150800000Y-18500000D03*
D12*
X25850000Y-21950000D03*
X25850000Y-23750000D03*
X20450000Y-23750000D03*
X20450000Y-21950000D03*
X239600000Y-78950000D03*
X239600000Y-80750000D03*
X234200000Y-80750000D03*
X234200000Y-78950000D03*
X35350000Y-78950000D03*
X35350000Y-80750000D03*
X29950000Y-80750000D03*
X29950000Y-78950000D03*
D10*
X129450000Y-50600000D03*
X129450000Y-48600000D03*
D11*
X108050000Y-54500000D03*
X108050000Y-56500000D03*
D12*
X256225000Y-59950000D03*
X256225000Y-61750000D03*
X250825000Y-61750000D03*
X250825000Y-59950000D03*
D11*
X146050000Y-54500000D03*
X146050000Y-56500000D03*
X255300000Y2500000D03*
X255300000Y500000D03*
X264800000Y-16500000D03*
X264800000Y-18500000D03*
D10*
X53450000Y-50600000D03*
X53450000Y-48600000D03*
D12*
X258600000Y-78950000D03*
X258600000Y-80750000D03*
X253200000Y-80750000D03*
X253200000Y-78950000D03*
X49600000Y-21950000D03*
X49600000Y-23750000D03*
X44200000Y-23750000D03*
X44200000Y-21950000D03*
X177850000Y-59950000D03*
X177850000Y-61750000D03*
X172450000Y-61750000D03*
X172450000Y-59950000D03*
D11*
X193550000Y-35500000D03*
X193550000Y-37500000D03*
D19*
X181931780Y-83256884D03*
X182427927Y-84987155D03*
X177237114Y-86475596D03*
X176740967Y-84745325D03*
D11*
X169800000Y-16500000D03*
X169800000Y-18500000D03*
X203050000Y-54500000D03*
X203050000Y-56500000D03*
X51050000Y-54500000D03*
X51050000Y-56500000D03*
D12*
X16350000Y-78950000D03*
X16350000Y-80750000D03*
X10950000Y-80750000D03*
X10950000Y-78950000D03*
D20*
X102692565Y-80884636D03*
X102141291Y-82807160D03*
D12*
X158850000Y-59950000D03*
X158850000Y-61750000D03*
X153450000Y-61750000D03*
X153450000Y-59950000D03*
D11*
X179300000Y2500000D03*
X179300000Y500000D03*
D21*
X95230519Y-84414560D03*
X94734372Y-86144832D03*
X89543559Y-84656390D03*
X90039706Y-82926119D03*
D11*
X89050000Y-54500000D03*
X89050000Y-56500000D03*
D12*
X125600000Y-21950000D03*
X125600000Y-23750000D03*
X120200000Y-23750000D03*
X120200000Y-21950000D03*
D10*
X224450000Y-53700000D03*
X224450000Y-51700000D03*
D11*
X165050000Y-54500000D03*
X165050000Y-56500000D03*
X274300000Y2500000D03*
X274300000Y500000D03*
D12*
X144600000Y-21950000D03*
X144600000Y-23750000D03*
X139200000Y-23750000D03*
X139200000Y-21950000D03*
D10*
X267200000Y-50600000D03*
X267200000Y-48600000D03*
D12*
X265725000Y-40950000D03*
X265725000Y-42750000D03*
X260325000Y-42750000D03*
X260325000Y-40950000D03*
X234850000Y-59950000D03*
X234850000Y-61750000D03*
X229450000Y-61750000D03*
X229450000Y-59950000D03*
X97100000Y-2950000D03*
X97100000Y-4750000D03*
X91700000Y-4750000D03*
X91700000Y-2950000D03*
X111350000Y-40950000D03*
X111350000Y-42750000D03*
X105950000Y-42750000D03*
X105950000Y-40950000D03*
M02*
