G04 #@! TF.GenerationSoftware,KiCad,Pcbnew,(6.0.7-1)-1*
G04 #@! TF.CreationDate,2022-08-16T19:54:09+02:00*
G04 #@! TF.ProjectId,keychron-optical-keyboard,6b657963-6872-46f6-9e2d-6f7074696361,rev?*
G04 #@! TF.SameCoordinates,Original*
G04 #@! TF.FileFunction,Soldermask,Top*
G04 #@! TF.FilePolarity,Negative*
%FSLAX46Y46*%
G04 Gerber Fmt 4.6, Leading zero omitted, Abs format (unit mm)*
G04 Created by KiCad (PCBNEW (6.0.7-1)-1) date 2022-08-16 19:54:09*
%MOMM*%
%LPD*%
G01*
G04 APERTURE LIST*
G04 Aperture macros list*
%AMRoundRect*
0 Rectangle with rounded corners*
0 $1 Rounding radius*
0 $2 $3 $4 $5 $6 $7 $8 $9 X,Y pos of 4 corners*
0 Add a 4 corners polygon primitive as box body*
4,1,4,$2,$3,$4,$5,$6,$7,$8,$9,$2,$3,0*
0 Add four circle primitives for the rounded corners*
1,1,$1+$1,$2,$3*
1,1,$1+$1,$4,$5*
1,1,$1+$1,$6,$7*
1,1,$1+$1,$8,$9*
0 Add four rect primitives between the rounded corners*
20,1,$1+$1,$2,$3,$4,$5,0*
20,1,$1+$1,$4,$5,$6,$7,0*
20,1,$1+$1,$6,$7,$8,$9,0*
20,1,$1+$1,$8,$9,$2,$3,0*%
%AMHorizOval*
0 Thick line with rounded ends*
0 $1 width*
0 $2 $3 position (X,Y) of the first rounded end (center of the circle)*
0 $4 $5 position (X,Y) of the second rounded end (center of the circle)*
0 Add line between two ends*
20,1,$1,$2,$3,$4,$5,0*
0 Add two circle primitives to create the rounded ends*
1,1,$1,$2,$3*
1,1,$1,$4,$5*%
%AMRotRect*
0 Rectangle, with rotation*
0 The origin of the aperture is its center*
0 $1 length*
0 $2 width*
0 $3 Rotation angle, in degrees counterclockwise*
0 Add horizontal line*
21,1,$1,$2,0,0,$3*%
G04 Aperture macros list end*
%ADD10RoundRect,0.250000X0.450000X-0.350000X0.450000X0.350000X-0.450000X0.350000X-0.450000X-0.350000X0*%
%ADD11C,4.200000*%
%ADD12RoundRect,0.250000X-0.450000X0.350000X-0.450000X-0.350000X0.450000X-0.350000X0.450000X0.350000X0*%
%ADD13C,6.200000*%
%ADD14O,5.800000X1.500000*%
%ADD15C,3.500000*%
%ADD16R,0.700000X0.800000*%
%ADD17HorizOval,1.500000X0.735343X2.020339X-0.735343X-2.020339X0*%
%ADD18RotRect,0.700000X0.800000X70.000000*%
%ADD19RoundRect,0.237500X-0.287500X-0.237500X0.287500X-0.237500X0.287500X0.237500X-0.287500X0.237500X0*%
%ADD20RoundRect,0.250000X-0.529041X0.212405X-0.336095X-0.460478X0.529041X-0.212405X0.336095X0.460478X0*%
%ADD21HorizOval,1.500000X-0.735343X2.020339X0.735343X-2.020339X0*%
%ADD22RotRect,0.700000X0.800000X110.000000*%
%ADD23RoundRect,0.250000X-0.482801X-0.303155X0.174983X-0.542569X0.482801X0.303155X-0.174983X0.542569X0*%
%ADD24RoundRect,0.250000X-0.174983X-0.542569X0.482801X-0.303155X0.174983X0.542569X-0.482801X0.303155X0*%
%ADD25HorizOval,1.500000X2.066713X0.592620X-2.066713X-0.592620X0*%
%ADD26RotRect,0.700000X0.800000X16.000000*%
%ADD27RoundRect,0.250000X-0.336095X0.460478X-0.529041X-0.212405X0.336095X-0.460478X0.529041X0.212405X0*%
%ADD28HorizOval,1.500000X2.066713X-0.592620X-2.066713X0.592620X0*%
%ADD29RotRect,0.700000X0.800000X344.000000*%
%ADD30O,7.000000X3.500000*%
%ADD31C,2.082800*%
G04 APERTURE END LIST*
D10*
X186450000Y-50600000D03*
X186450000Y-48600000D03*
D11*
X9500000Y9500000D03*
D12*
X32049999Y-16500000D03*
X32049999Y-18500000D03*
X288550000Y-16500000D03*
X288550000Y-18500000D03*
D13*
X-12750000Y-168500000D03*
D14*
X266000000Y-6800000D03*
D15*
X266000000Y0D03*
D14*
X266000000Y6800000D03*
D16*
X268100000Y-2950000D03*
X268100000Y-4750000D03*
X262700000Y-4750000D03*
X262700000Y-2950000D03*
D12*
X79550000Y-73500000D03*
X79550000Y-75500000D03*
D11*
X294500000Y9500000D03*
D12*
X217300000Y2500000D03*
X217300000Y500000D03*
D11*
X9500000Y-24350000D03*
D12*
X41550000Y-73500000D03*
X41550000Y-75500000D03*
X79550000Y-35500000D03*
X79550000Y-37500000D03*
D13*
X205750000Y-117500000D03*
D15*
X14250000Y-38000000D03*
D14*
X14250000Y-44800000D03*
X14250000Y-31200000D03*
D16*
X16350000Y-40950000D03*
X16350000Y-42750000D03*
X10950000Y-42750000D03*
X10950000Y-40950000D03*
D12*
X160300000Y2500000D03*
X160300000Y500000D03*
D10*
X127050000Y-63000000D03*
X127050000Y-61000000D03*
D15*
X275500000Y-76000000D03*
D14*
X275500000Y-82800000D03*
X275500000Y-69200000D03*
D16*
X277600000Y-78950000D03*
X277600000Y-80750000D03*
X272200000Y-80750000D03*
X272200000Y-78950000D03*
D12*
X245800000Y-73500000D03*
X245800000Y-75500000D03*
D14*
X90250000Y-31200000D03*
X90250000Y-44800000D03*
D15*
X90250000Y-38000000D03*
D16*
X92350000Y-40950000D03*
X92350000Y-42750000D03*
X86950000Y-42750000D03*
X86950000Y-40950000D03*
D15*
X137750000Y-57000000D03*
D14*
X137750000Y-63800000D03*
X137750000Y-50200000D03*
D16*
X139850000Y-59950000D03*
X139850000Y-61750000D03*
X134450000Y-61750000D03*
X134450000Y-59950000D03*
D12*
X131800000Y-16500000D03*
X131800000Y-18500000D03*
X60550000Y-35500000D03*
X60550000Y-37500000D03*
D15*
X133000000Y0D03*
D14*
X133000000Y6800000D03*
X133000000Y-6800000D03*
D16*
X135100000Y-2950000D03*
X135100000Y-4750000D03*
X129700000Y-4750000D03*
X129700000Y-2950000D03*
D14*
X71250000Y-82800000D03*
X71250000Y-69200000D03*
D15*
X71250000Y-76000000D03*
D16*
X73350000Y-78950000D03*
X73350000Y-80750000D03*
X67950000Y-80750000D03*
X67950000Y-78950000D03*
D12*
X141300000Y2500000D03*
X141300000Y500000D03*
D11*
X199500000Y9500000D03*
D14*
X199500000Y-69200000D03*
X199500000Y-82800000D03*
D15*
X199500000Y-76000000D03*
D16*
X201600000Y-78950000D03*
X201600000Y-80750000D03*
X196200000Y-80750000D03*
X196200000Y-78950000D03*
D12*
X198300000Y2500000D03*
X198300000Y500000D03*
D14*
X280250000Y-12200000D03*
X280250000Y-25800000D03*
D15*
X280250000Y-19000000D03*
D16*
X282350000Y-21950000D03*
X282350000Y-23750000D03*
X276950000Y-23750000D03*
X276950000Y-21950000D03*
D13*
X294500000Y-168500000D03*
D15*
X185250000Y-38000000D03*
D14*
X185250000Y-44800000D03*
X185250000Y-31200000D03*
D16*
X187350000Y-40950000D03*
X187350000Y-42750000D03*
X181950000Y-42750000D03*
X181950000Y-40950000D03*
D12*
X27300000Y2500000D03*
X27300000Y500000D03*
D10*
X286200000Y-50600000D03*
X286200000Y-48600000D03*
D15*
X128250000Y-38000000D03*
D14*
X128250000Y-44800000D03*
X128250000Y-31200000D03*
D16*
X130350000Y-40950000D03*
X130350000Y-42750000D03*
X124950000Y-42750000D03*
X124950000Y-40950000D03*
D12*
X283800000Y-54500000D03*
X283800000Y-56500000D03*
D14*
X152000000Y-6800000D03*
D15*
X152000000Y0D03*
D14*
X152000000Y6800000D03*
D16*
X154100000Y-2950000D03*
X154100000Y-4750000D03*
X148700000Y-4750000D03*
X148700000Y-2950000D03*
D17*
X119389910Y-94825737D03*
D15*
X113000000Y-92500000D03*
D17*
X106610090Y-90174263D03*
D18*
X116490336Y-91535605D03*
X118181782Y-92151241D03*
X116334873Y-97225581D03*
X114643427Y-96609945D03*
D12*
X84300000Y2500000D03*
X84300000Y500000D03*
D14*
X285000000Y6800000D03*
X285000000Y-6800000D03*
D15*
X285000000Y0D03*
D16*
X287100000Y-2950000D03*
X287100000Y-4750000D03*
X281700000Y-4750000D03*
X281700000Y-2950000D03*
D14*
X85500000Y-25800000D03*
D15*
X85500000Y-19000000D03*
D14*
X85500000Y-12200000D03*
D16*
X87600000Y-21950000D03*
X87600000Y-23750000D03*
X82200000Y-23750000D03*
X82200000Y-21950000D03*
D14*
X218500000Y-69200000D03*
D15*
X218500000Y-76000000D03*
D14*
X218500000Y-82800000D03*
D16*
X220600000Y-78950000D03*
X220600000Y-80750000D03*
X215200000Y-80750000D03*
X215200000Y-78950000D03*
D12*
X93800000Y-16500000D03*
X93800000Y-18500000D03*
D10*
X91450000Y-50600000D03*
X91450000Y-48600000D03*
X167450000Y-50600000D03*
X167450000Y-48600000D03*
D15*
X247000000Y0D03*
D14*
X247000000Y6800000D03*
X247000000Y-6800000D03*
D16*
X249100000Y-2950000D03*
X249100000Y-4750000D03*
X243700000Y-4750000D03*
X243700000Y-2950000D03*
D15*
X99750000Y-57000000D03*
D14*
X99750000Y-63800000D03*
X99750000Y-50200000D03*
D16*
X101850000Y-59950000D03*
X101850000Y-61750000D03*
X96450000Y-61750000D03*
X96450000Y-59950000D03*
D12*
X293300000Y2500000D03*
X293300000Y500000D03*
D14*
X285000000Y-31200000D03*
X285000000Y-44800000D03*
D15*
X285000000Y-38000000D03*
D16*
X287100000Y-40950000D03*
X287100000Y-42750000D03*
X281700000Y-42750000D03*
X281700000Y-40950000D03*
D12*
X117550000Y-35500000D03*
X117550000Y-37500000D03*
D15*
X275500000Y-57000000D03*
D14*
X275500000Y-63800000D03*
X275500000Y-50200000D03*
D16*
X277600000Y-59950000D03*
X277600000Y-61750000D03*
X272200000Y-61750000D03*
X272200000Y-59950000D03*
D12*
X146050000Y-73500000D03*
X146050000Y-75500000D03*
X174550000Y-35500000D03*
X174550000Y-37500000D03*
X271925000Y-35500000D03*
X271925000Y-37500000D03*
D11*
X137750000Y-86500000D03*
D12*
X122300000Y2500000D03*
X122300000Y500000D03*
D14*
X104500000Y-25800000D03*
X104500000Y-12200000D03*
D15*
X104500000Y-19000000D03*
D16*
X106600000Y-21950000D03*
X106600000Y-23750000D03*
X101200000Y-23750000D03*
X101200000Y-21950000D03*
D11*
X61750000Y-85500000D03*
D15*
X218500000Y-19000000D03*
D14*
X218500000Y-12200000D03*
X218500000Y-25800000D03*
D16*
X220600000Y-21950000D03*
X220600000Y-23750000D03*
X215200000Y-23750000D03*
X215200000Y-21950000D03*
D10*
X205450000Y-50600000D03*
X205450000Y-48600000D03*
D14*
X237500000Y-25800000D03*
D15*
X237500000Y-19000000D03*
D14*
X237500000Y-12200000D03*
D16*
X239600000Y-21950000D03*
X239600000Y-23750000D03*
X234200000Y-23750000D03*
X234200000Y-21950000D03*
D11*
X71250000Y-48100000D03*
D15*
X242250000Y-38000000D03*
D14*
X242250000Y-31200000D03*
X242250000Y-44800000D03*
D16*
X244350000Y-40950000D03*
X244350000Y-42750000D03*
X238950000Y-42750000D03*
X238950000Y-40950000D03*
D12*
X231550000Y-35500000D03*
X231550000Y-37500000D03*
D11*
X223250000Y-48100000D03*
D14*
X38000000Y6800000D03*
D15*
X38000000Y0D03*
D14*
X38000000Y-6800000D03*
D16*
X40100000Y-2950000D03*
X40100000Y-4750000D03*
X34700000Y-4750000D03*
X34700000Y-2950000D03*
D19*
X117875000Y-52200000D03*
X119625000Y-52200000D03*
D14*
X61750000Y-50200000D03*
X61750000Y-63800000D03*
D15*
X61750000Y-57000000D03*
D16*
X63850000Y-59950000D03*
X63850000Y-61750000D03*
X58450000Y-61750000D03*
X58450000Y-59950000D03*
D14*
X147250000Y-31200000D03*
X147250000Y-44800000D03*
D15*
X147250000Y-38000000D03*
D16*
X149350000Y-40950000D03*
X149350000Y-42750000D03*
X143950000Y-42750000D03*
X143950000Y-40950000D03*
D14*
X114000000Y-6800000D03*
X114000000Y6800000D03*
D15*
X114000000Y0D03*
D16*
X116100000Y-2950000D03*
X116100000Y-4750000D03*
X110700000Y-4750000D03*
X110700000Y-2950000D03*
D12*
X293300000Y-35500000D03*
X293300000Y-37500000D03*
X226800000Y-16500000D03*
X226800000Y-18500000D03*
D15*
X256500000Y-19000000D03*
D14*
X256500000Y-25800000D03*
X256500000Y-12200000D03*
D16*
X258600000Y-21950000D03*
X258600000Y-23750000D03*
X253200000Y-23750000D03*
X253200000Y-21950000D03*
D12*
X103300000Y2500000D03*
X103300000Y500000D03*
D14*
X161500000Y-25800000D03*
X161500000Y-12200000D03*
D15*
X161500000Y-19000000D03*
D16*
X163600000Y-21950000D03*
X163600000Y-23750000D03*
X158200000Y-23750000D03*
X158200000Y-21950000D03*
D12*
X264800000Y-73500000D03*
X264800000Y-75500000D03*
D20*
X186389379Y-76309055D03*
X186940653Y-78231579D03*
D14*
X137750000Y-69200000D03*
X137750000Y-82800000D03*
D15*
X137750000Y-76000000D03*
D16*
X139850000Y-78950000D03*
X139850000Y-80750000D03*
X134450000Y-80750000D03*
X134450000Y-78950000D03*
D12*
X283800000Y-73500000D03*
X283800000Y-75500000D03*
X112800000Y-16500000D03*
X112800000Y-18500000D03*
X41550000Y-35500000D03*
X41550000Y-37500000D03*
D14*
X171000000Y-6800000D03*
D15*
X171000000Y0D03*
D14*
X171000000Y6800000D03*
D16*
X173100000Y-2950000D03*
X173100000Y-4750000D03*
X167700000Y-4750000D03*
X167700000Y-2950000D03*
D12*
X27300000Y-54500000D03*
X27300000Y-56500000D03*
X65300000Y2500000D03*
X65300000Y500000D03*
X55800000Y-16500000D03*
X55800000Y-18500000D03*
D15*
X42750000Y-57000000D03*
D14*
X42750000Y-63800000D03*
X42750000Y-50200000D03*
D16*
X44850000Y-59950000D03*
X44850000Y-61750000D03*
X39450000Y-61750000D03*
X39450000Y-59950000D03*
D15*
X199500000Y-19000000D03*
D14*
X199500000Y-25800000D03*
X199500000Y-12200000D03*
D16*
X201600000Y-21950000D03*
X201600000Y-23750000D03*
X196200000Y-23750000D03*
X196200000Y-21950000D03*
D14*
X52250000Y-31200000D03*
D15*
X52250000Y-38000000D03*
D14*
X52250000Y-44800000D03*
D16*
X54350000Y-40950000D03*
X54350000Y-42750000D03*
X48950000Y-42750000D03*
X48950000Y-40950000D03*
D13*
X-12750000Y-117500000D03*
D14*
X166250000Y-44800000D03*
D15*
X166250000Y-38000000D03*
D14*
X166250000Y-31200000D03*
D16*
X168350000Y-40950000D03*
X168350000Y-42750000D03*
X162950000Y-42750000D03*
X162950000Y-40950000D03*
D10*
X10700000Y-50600000D03*
X10700000Y-48600000D03*
D14*
X66500000Y-12200000D03*
D15*
X66500000Y-19000000D03*
D14*
X66500000Y-25800000D03*
D16*
X68600000Y-21950000D03*
X68600000Y-23750000D03*
X63200000Y-23750000D03*
X63200000Y-21950000D03*
D12*
X22550000Y-35500000D03*
X22550000Y-37500000D03*
D14*
X194750000Y-63800000D03*
D15*
X194750000Y-57000000D03*
D14*
X194750000Y-50200000D03*
D16*
X196850000Y-59950000D03*
X196850000Y-61750000D03*
X191450000Y-61750000D03*
X191450000Y-59950000D03*
D10*
X72450000Y-53700000D03*
X72450000Y-51700000D03*
D12*
X207800000Y-16500000D03*
X207800000Y-18500000D03*
D10*
X245825000Y-50600000D03*
X245825000Y-48600000D03*
X110450000Y-50600000D03*
X110450000Y-48600000D03*
D15*
X209000000Y0D03*
D14*
X209000000Y-6800000D03*
X209000000Y6800000D03*
D16*
X211100000Y-2950000D03*
X211100000Y-4750000D03*
X205700000Y-4750000D03*
X205700000Y-2950000D03*
D14*
X213750000Y-63800000D03*
X213750000Y-50200000D03*
D15*
X213750000Y-57000000D03*
D16*
X215850000Y-59950000D03*
X215850000Y-61750000D03*
X210450000Y-61750000D03*
X210450000Y-59950000D03*
D12*
X250550000Y-35500000D03*
X250550000Y-37500000D03*
D21*
X156110090Y-94825737D03*
D15*
X162500000Y-92500000D03*
D21*
X168889910Y-90174263D03*
D22*
X164553851Y-89517686D03*
X166245298Y-88902050D03*
X168092206Y-93976390D03*
X166400760Y-94592026D03*
D12*
X98550000Y-35500000D03*
X98550000Y-37500000D03*
D15*
X71250000Y-38000000D03*
D14*
X71250000Y-31200000D03*
X71250000Y-44800000D03*
D16*
X73350000Y-40950000D03*
X73350000Y-42750000D03*
X67950000Y-42750000D03*
X67950000Y-40950000D03*
D14*
X118750000Y-63800000D03*
D15*
X118750000Y-57000000D03*
D14*
X118750000Y-50200000D03*
D16*
X120850000Y-59950000D03*
X120850000Y-61750000D03*
X115450000Y-61750000D03*
X115450000Y-59950000D03*
D14*
X228000000Y-6800000D03*
D15*
X228000000Y0D03*
D14*
X228000000Y6800000D03*
D16*
X230100000Y-2950000D03*
X230100000Y-4750000D03*
X224700000Y-4750000D03*
X224700000Y-2950000D03*
D12*
X236300000Y2500000D03*
X236300000Y500000D03*
D15*
X180500000Y-19000000D03*
D14*
X180500000Y-12200000D03*
X180500000Y-25800000D03*
D16*
X182600000Y-21950000D03*
X182600000Y-23750000D03*
X177200000Y-23750000D03*
X177200000Y-21950000D03*
D12*
X241050000Y-54500000D03*
X241050000Y-56500000D03*
X226800000Y-73500000D03*
X226800000Y-75500000D03*
X74800000Y-16500000D03*
X74800000Y-18500000D03*
D11*
X57000000Y-10100000D03*
D23*
X113489535Y-83845501D03*
X115368921Y-84529541D03*
D12*
X188800000Y-16500000D03*
X188800000Y-18500000D03*
X136550000Y-35500000D03*
X136550000Y-37500000D03*
D10*
X34450000Y-50600000D03*
X34450000Y-48600000D03*
D14*
X223250000Y-44800000D03*
X223250000Y-31200000D03*
D15*
X223250000Y-38000000D03*
D16*
X225350000Y-40950000D03*
X225350000Y-42750000D03*
X219950000Y-42750000D03*
X219950000Y-40950000D03*
D12*
X70050000Y-54500000D03*
X70050000Y-56500000D03*
D11*
X294500000Y-85500000D03*
D12*
X155550000Y-35500000D03*
X155550000Y-37500000D03*
D11*
X147250000Y-48100000D03*
D13*
X69750000Y-117500000D03*
D15*
X57000000Y0D03*
D14*
X57000000Y-6800000D03*
X57000000Y6800000D03*
D16*
X59100000Y-2950000D03*
X59100000Y-4750000D03*
X53700000Y-4750000D03*
X53700000Y-2950000D03*
D12*
X212550000Y-35500000D03*
X212550000Y-37500000D03*
D15*
X80750000Y-57000000D03*
D14*
X80750000Y-63800000D03*
X80750000Y-50200000D03*
D16*
X82850000Y-59950000D03*
X82850000Y-61750000D03*
X77450000Y-61750000D03*
X77450000Y-59950000D03*
D12*
X245800000Y-16500000D03*
X245800000Y-18500000D03*
X184050000Y-54500000D03*
X184050000Y-56500000D03*
D24*
X157312001Y-85555601D03*
X159191387Y-84871561D03*
D14*
X19000000Y-6800000D03*
X19000000Y6800000D03*
D15*
X19000000Y0D03*
D16*
X21100000Y-2950000D03*
X21100000Y-4750000D03*
X15700000Y-4750000D03*
X15700000Y-2950000D03*
D12*
X127050000Y-54500000D03*
X127050000Y-56500000D03*
D14*
X76000000Y6800000D03*
D15*
X76000000Y0D03*
D14*
X76000000Y-6800000D03*
D16*
X78100000Y-2950000D03*
X78100000Y-4750000D03*
X72700000Y-4750000D03*
X72700000Y-2950000D03*
D15*
X19000000Y-57000000D03*
D14*
X19000000Y-63800000D03*
X19000000Y-50200000D03*
D16*
X21100000Y-59950000D03*
X21100000Y-61750000D03*
X15700000Y-61750000D03*
X15700000Y-59950000D03*
D14*
X33250000Y-31200000D03*
X33250000Y-44800000D03*
D15*
X33250000Y-38000000D03*
D16*
X35350000Y-40950000D03*
X35350000Y-42750000D03*
X29950000Y-42750000D03*
X29950000Y-40950000D03*
D12*
X262425000Y-54500000D03*
X262425000Y-56500000D03*
X207800000Y-73500000D03*
X207800000Y-75500000D03*
D10*
X148450000Y-53700000D03*
X148450000Y-51700000D03*
D12*
X22550000Y-73500000D03*
X22550000Y-75500000D03*
D11*
X152000000Y-10100000D03*
D14*
X204250000Y-44800000D03*
X204250000Y-31200000D03*
D15*
X204250000Y-38000000D03*
D16*
X206350000Y-40950000D03*
X206350000Y-42750000D03*
X200950000Y-42750000D03*
X200950000Y-40950000D03*
D11*
X104500000Y9500000D03*
D12*
X222050000Y-54500000D03*
X222050000Y-56500000D03*
D14*
X52250000Y-69200000D03*
X52250000Y-82800000D03*
D15*
X52250000Y-76000000D03*
D16*
X54350000Y-78950000D03*
X54350000Y-80750000D03*
X48950000Y-80750000D03*
X48950000Y-78950000D03*
D12*
X60550000Y-73500000D03*
X60550000Y-75500000D03*
D14*
X190000000Y-6800000D03*
X190000000Y6800000D03*
D15*
X190000000Y0D03*
D16*
X192100000Y-2950000D03*
X192100000Y-4750000D03*
X186700000Y-4750000D03*
X186700000Y-2950000D03*
D12*
X46300000Y2500000D03*
X46300000Y500000D03*
X150800000Y-16500000D03*
X150800000Y-18500000D03*
D14*
X23750000Y-25800000D03*
D15*
X23750000Y-19000000D03*
D14*
X23750000Y-12200000D03*
D16*
X25850000Y-21950000D03*
X25850000Y-23750000D03*
X20450000Y-23750000D03*
X20450000Y-21950000D03*
D15*
X237500000Y-76000000D03*
D14*
X237500000Y-69200000D03*
X237500000Y-82800000D03*
D16*
X239600000Y-78950000D03*
X239600000Y-80750000D03*
X234200000Y-80750000D03*
X234200000Y-78950000D03*
D15*
X33250000Y-76000000D03*
D14*
X33250000Y-69200000D03*
X33250000Y-82800000D03*
D16*
X35350000Y-78950000D03*
X35350000Y-80750000D03*
X29950000Y-80750000D03*
X29950000Y-78950000D03*
D11*
X23750000Y-85500000D03*
D10*
X129450000Y-50600000D03*
X129450000Y-48600000D03*
D11*
X294500000Y-48100000D03*
D12*
X108050000Y-54500000D03*
X108050000Y-56500000D03*
D15*
X254125000Y-57000000D03*
D14*
X254125000Y-63800000D03*
X254125000Y-50200000D03*
D16*
X256225000Y-59950000D03*
X256225000Y-61750000D03*
X250825000Y-61750000D03*
X250825000Y-59950000D03*
D12*
X146050000Y-54500000D03*
X146050000Y-56500000D03*
X255300000Y2500000D03*
X255300000Y500000D03*
X264800000Y-16500000D03*
X264800000Y-18500000D03*
D10*
X53450000Y-50600000D03*
X53450000Y-48600000D03*
D14*
X256500000Y-82800000D03*
D15*
X256500000Y-76000000D03*
D14*
X256500000Y-69200000D03*
D16*
X258600000Y-78950000D03*
X258600000Y-80750000D03*
X253200000Y-80750000D03*
X253200000Y-78950000D03*
D15*
X47500000Y-19000000D03*
D14*
X47500000Y-12200000D03*
X47500000Y-25800000D03*
D16*
X49600000Y-21950000D03*
X49600000Y-23750000D03*
X44200000Y-23750000D03*
X44200000Y-21950000D03*
D11*
X247000000Y-10100000D03*
D14*
X175750000Y-50200000D03*
D15*
X175750000Y-57000000D03*
D14*
X175750000Y-63800000D03*
D16*
X177850000Y-59950000D03*
X177850000Y-61750000D03*
X172450000Y-61750000D03*
X172450000Y-59950000D03*
D13*
X294500000Y-117500000D03*
D12*
X193550000Y-35500000D03*
X193550000Y-37500000D03*
D25*
X177225666Y-74463420D03*
X180974334Y-87536580D03*
D15*
X179100000Y-81000000D03*
D26*
X181931780Y-83256884D03*
X182427927Y-84987155D03*
X177237114Y-86475596D03*
X176740967Y-84745325D03*
D12*
X169800000Y-16500000D03*
X169800000Y-18500000D03*
X203050000Y-54500000D03*
X203050000Y-56500000D03*
X51050000Y-54500000D03*
X51050000Y-56500000D03*
D11*
X228000000Y-85500000D03*
D14*
X14250000Y-82800000D03*
D15*
X14250000Y-76000000D03*
D14*
X14250000Y-69200000D03*
D16*
X16350000Y-78950000D03*
X16350000Y-80750000D03*
X10950000Y-80750000D03*
X10950000Y-78950000D03*
D27*
X102692565Y-80884636D03*
X102141291Y-82807160D03*
D14*
X156750000Y-63800000D03*
D15*
X156750000Y-57000000D03*
D14*
X156750000Y-50200000D03*
D16*
X158850000Y-59950000D03*
X158850000Y-61750000D03*
X153450000Y-61750000D03*
X153450000Y-59950000D03*
D12*
X179300000Y2500000D03*
X179300000Y500000D03*
D13*
X69750000Y-168500000D03*
D15*
X94025000Y-81000000D03*
D28*
X95899334Y-74463420D03*
X92150666Y-87536580D03*
D29*
X95230519Y-84414560D03*
X94734372Y-86144832D03*
X89543559Y-84656390D03*
X90039706Y-82926119D03*
D13*
X205750000Y-168500000D03*
D12*
X89050000Y-54500000D03*
X89050000Y-56500000D03*
D14*
X123500000Y-12200000D03*
X123500000Y-25800000D03*
D15*
X123500000Y-19000000D03*
D16*
X125600000Y-21950000D03*
X125600000Y-23750000D03*
X120200000Y-23750000D03*
X120200000Y-21950000D03*
D30*
X-6250000Y-43750000D03*
D31*
X1150000Y-29900000D03*
X1497000Y-32440000D03*
X1243000Y-34980000D03*
X1497000Y-37520000D03*
X1243000Y-40060000D03*
X1497000Y-42600000D03*
X1243000Y-45140000D03*
X1497000Y-47680000D03*
X1243000Y-50220000D03*
X1497000Y-52760000D03*
X1243000Y-55300000D03*
X1497000Y-57840000D03*
X1243000Y-60380000D03*
X1497000Y-62920000D03*
X1243000Y-65460000D03*
X1497000Y-68000000D03*
X1243000Y-70540000D03*
X1497000Y-73080000D03*
X1243000Y-75620000D03*
X1497000Y-78160000D03*
X-13997000Y-78160000D03*
X-13743000Y-75620000D03*
X-13997000Y-73080000D03*
X-13743000Y-70540000D03*
X-13997000Y-68000000D03*
X-13743000Y-65460000D03*
X-13997000Y-62920000D03*
X-13743000Y-60380000D03*
X-13997000Y-57840000D03*
X-13743000Y-55300000D03*
X-13997000Y-52760000D03*
X-13743000Y-50220000D03*
X-13997000Y-47680000D03*
X-13743000Y-45140000D03*
X-13997000Y-42600000D03*
X-13743000Y-40060000D03*
X-13997000Y-37520000D03*
X-13743000Y-34980000D03*
X-13997000Y-32440000D03*
X-13750000Y-29900000D03*
D10*
X224450000Y-53700000D03*
X224450000Y-51700000D03*
D12*
X165050000Y-54500000D03*
X165050000Y-56500000D03*
X274300000Y2500000D03*
X274300000Y500000D03*
D15*
X142500000Y-19000000D03*
D14*
X142500000Y-12200000D03*
X142500000Y-25800000D03*
D16*
X144600000Y-21950000D03*
X144600000Y-23750000D03*
X139200000Y-23750000D03*
X139200000Y-21950000D03*
D10*
X267200000Y-50600000D03*
X267200000Y-48600000D03*
D14*
X263625000Y-31200000D03*
X263625000Y-44800000D03*
D15*
X263625000Y-38000000D03*
D16*
X265725000Y-40950000D03*
X265725000Y-42750000D03*
X260325000Y-42750000D03*
X260325000Y-40950000D03*
D14*
X232750000Y-50200000D03*
X232750000Y-63800000D03*
D15*
X232750000Y-57000000D03*
D16*
X234850000Y-59950000D03*
X234850000Y-61750000D03*
X229450000Y-61750000D03*
X229450000Y-59950000D03*
D14*
X95000000Y-6800000D03*
D15*
X95000000Y0D03*
D14*
X95000000Y6800000D03*
D16*
X97100000Y-2950000D03*
X97100000Y-4750000D03*
X91700000Y-4750000D03*
X91700000Y-2950000D03*
D14*
X109250000Y-44800000D03*
D15*
X109250000Y-38000000D03*
D14*
X109250000Y-31200000D03*
D16*
X111350000Y-40950000D03*
X111350000Y-42750000D03*
X105950000Y-42750000D03*
X105950000Y-40950000D03*
M02*
